<!DOCTYPE svg PUBLIC "-//W3C//DTD SVG 1.1//EN" "http://www.w3.org/Graphics/SVG/1.1/DTD/svg11.dtd">
<!-- Uploaded to: SVG Repo, www.svgrepo.com, Transformed by: SVG Repo Mixer Tools -->
<svg width="80px" height="80px" viewBox="0 0 48 48" xmlns="http://www.w3.org/2000/svg" fill="#000000">
<g id="SVGRepo_bgCarrier" stroke-width="0"/>
<g id="SVGRepo_tracerCarrier" stroke-linecap="round" stroke-linejoin="round"/>
<g id="SVGRepo_iconCarrier">
<title>70 Basic icons by Xicons.co</title>
<path d="M24,23C12.4,23,3,29.27,3,37v7a2,2,0,0,0,2,2H43a2,2,0,0,0,2-2V37C45,29.27,35.6,23,24,23Z" fill="#4dbe86"/>
<path d="M24,0A13,13,0,1,0,37,13,13,13,0,0,0,24,0Z" fill="#fac591"/>
<path d="M34.29,5A13,13,0,0,0,13.82,4.9a0.09,0.09,0,0,0,.07.14h20.4Z" fill="#84523c"/>
</g>
</svg>