<?xml version="1.0" encoding="UTF-8" standalone="no"?>
<svg
   xmlns:dc="http://purl.org/dc/elements/1.1/"
   xmlns:cc="http://creativecommons.org/ns#"
   xmlns:rdf="http://www.w3.org/1999/02/22-rdf-syntax-ns#"
   xmlns:svg="http://www.w3.org/2000/svg"
   xmlns="http://www.w3.org/2000/svg"
   xmlns:sodipodi="http://sodipodi.sourceforge.net/DTD/sodipodi-0.dtd"
   xmlns:inkscape="http://www.inkscape.org/namespaces/inkscape"
   xml:space="preserve"
   style="enable-background:new 0 0 495.5 105.5;"
   viewBox="0 0 495.5 105.5"
   y="0px"
   x="0px"
   sodipodi:docname="logo.svg"
   inkscape:version="1.0 (4035a4fb49, 2020-05-01)"
   id="svg73"
   version="1.1"><metadata
   id="metadata53"><rdf:RDF><cc:Work
       rdf:about=""><dc:format>image/svg+xml</dc:format><dc:type
         rdf:resource="http://purl.org/dc/dcmitype/StillImage" /></cc:Work></rdf:RDF></metadata><defs
   id="defs51" />
<style
   id="style2"
   type="text/css">
	.st0{fill-rule:evenodd;clip-rule:evenodd;fill:#502A20;}
	.st1{fill:url(#path4580_1_);stroke:#006CB0;stroke-width:1.371010e-02;}
	.st2{fill:none;}
	.st3{fill:url(#path4656_1_);}
	.st4{fill-rule:evenodd;clip-rule:evenodd;fill:#661414;}
	.st5{fill:#502A20;}
</style>
<sodipodi:namedview
   inkscape:document-rotation="0"
   showguides="false"
   showgrid="false"
   pagecolor="#ffffff"
   objecttolerance="10"
   inkscape:zoom="4.4851478"
   inkscape:window-y="-8"
   inkscape:window-x="-8"
   inkscape:window-width="1366"
   inkscape:window-maximized="1"
   inkscape:window-height="716"
   inkscape:pageshadow="2"
   inkscape:pageopacity="0"
   inkscape:lockguides="false"
   inkscape:cy="81.630932"
   inkscape:cx="263.61151"
   inkscape:current-layer="svg73"
   id="namedview45"
   guidetolerance="10"
   gridtolerance="10"
   borderopacity="1"
   bordercolor="#666666">
	</sodipodi:namedview>
<path
   d="M469.9,25.2c3.5,0,5.9-1.6,5.9-3.9c0-1-0.7-1.9-1.7-1.9  c-1.2,0-1.8,1-1.7,2c0.1,1.2-0.7,2.4-2.5,2.4c-1.6,0-2.6-1.1-2.5-2.4c0-0.8-0.4-2-1.6-2c-1,0-1.7,1-1.7,1.9  C464,23.7,466.3,25.2,469.9,25.2L469.9,25.2z M218.7,34.8c-0.2-2.8-0.5-6.2-0.5-8.4h-0.5c-0.8,0.9-1.1,1.2-2.4,1.2h-19.7  c-1.3,0-2-0.1-2.6-1.2h-0.5c-0.1,2.6-0.3,5.7-0.6,8.6h0.9c0.6-2.1,1-3.9,1.5-4.7c0.7-1.1,1.6-1.5,5.5-1.5h3v24.4  c0,3.8-0.4,4.2-4.7,4.5v0.9h14.6v-0.9c-4.5-0.3-4.9-0.8-4.9-4.5V28.7h3.4c3.6,0,4.4,0.4,5.1,1.5c0.5,0.8,1,2.4,1.5,4.7L218.7,34.8z   M251.9,27.5h-10.3v0.9l1.7,0.2c1.8,0.3,2.5,0.9,1.6,3.7c-0.8,2.5-1.8,5-2.7,7.4c-0.9,2.4-2,4.7-3.1,7.3l-7-15.6  c-0.8-1.9-0.8-2.4,0.6-2.7l1.4-0.2v-0.9h-12.2v0.9c3.1,0.4,3.7,0.8,4.9,3.2c1.2,2.5,9.5,19.2,9.5,20.8c0,0.9-1.1,4.3-4,4.3  c-0.9,0-2-0.2-2.8-1c-0.6-0.5-1.3-0.4-2,0.2c-0.7,0.7-0.9,1.5-0.4,2.3c0.4,1,1.8,1.7,3.3,1.7c2.3,0,4.7-1,7.4-6.7  c2-4.2,6.7-15.8,8.5-19.7c1.9-4.1,2.5-4.6,5.7-5L251.9,27.5z M188.1,27.5h-10.3v0.9l1.7,0.2c1.8,0.3,2.5,0.9,1.6,3.7  c-0.8,2.5-1.8,5-2.7,7.4c-0.9,2.4-2,4.7-3.1,7.3l-7-15.6c-0.8-1.9-0.8-2.4,0.6-2.7l1.4-0.2v-0.9h-12.2v0.9c3.1,0.4,3.7,0.8,4.9,3.2  c1.2,2.5,9.5,19.2,9.5,20.8c0,0.9-1.1,4.3-4,4.3c-0.9,0-2-0.2-2.8-1c-0.6-0.5-1.3-0.4-2,0.2c-0.7,0.7-0.9,1.5-0.4,2.3  c0.4,1,1.8,1.7,3.3,1.7c2.3,0,4.7-1,7.4-6.7c2-4.2,6.7-15.8,8.5-19.7c1.9-4.1,2.5-4.6,5.7-5L188.1,27.5z M268.5,41.4  c1.3-0.4,2.8-1.1,4-2c1.3-1,2.5-2.7,2.5-5.1c0-4.3-3.6-7.4-9.2-7.4c-1.8,0-4,0.5-4.9,0.8c-1.2,0.4-2.4,0.8-3.5,1.1  c-0.1,1.3-0.5,4.5-0.9,6.4l1,0.1c1-3.2,2.4-7.3,6.8-7.3s5.5,2.5,5.5,6.8c0,3.8-1.9,6-4.1,6c-1.2,0-2.1-0.5-3.5-0.5  c-1.1,0-2,0.4-2,1.3c0,0.9,0.9,1.3,2,1.3c1.5,0,2.6-0.5,3.8-0.5c2.8,0,4.9,3.1,4.9,7.6c0,6-3.3,8.1-6.1,8.1c-2.8,0-4.9-1.5-6.3-4.9  c-0.5-1.1-1.1-1.7-1.8-1.7c-0.8,0-1.7,0.6-1.7,1.9c0,1.2,0.9,2.6,2.3,3.7c2,1.5,4.8,2.2,7.5,2.2c5.5,0,11.8-3,11.8-9.5  c0-5.2-3.8-7.5-8.1-8.1L268.5,41.4z M298.8,26.8c-10.5,0-16.2,8-16.2,16.5c0,9.1,6.6,15.9,15.7,15.9c9.2,0,16.1-6.3,16.1-16.6  C314.4,33.1,307.3,26.8,298.8,26.8L298.8,26.8z M297.8,28.1c6.2,0,10.8,5.8,10.8,15.8c0,9.1-4.1,14-9.4,14c-6.7,0-10.9-7-10.9-15.9  C288.3,33.1,292.5,28.1,297.8,28.1z M335.6,41.7c2.7-0.7,6.7-2.6,6.7-7.1c0-5.9-5.3-7.1-10-7.1h-12.9v0.9c3.8,0.3,4,0.6,4,4.5v20.1  c0,4-0.3,4.3-4.4,4.6v0.9h11.4c5.7,0,13.9-1.9,13.9-9.1c0-4.8-3.9-6.9-8.7-7.6V41.7z M328.2,42.6h2.2c5.4,0,8.2,2.4,8.2,7.3  c0,5-3.3,7.2-6.7,7.2c-3,0-3.7-0.9-3.7-4.3V42.6z M328.2,41.5v-10c0-1.6,0.2-2.1,0.6-2.4c0.5-0.3,1.3-0.5,2.5-0.5  c4.1,0,5.7,3.3,5.7,6.6c0,4-1.8,6.3-6.5,6.3H328.2z M377.5,50.1c-2.4,4.8-5,7.8-9.8,7.8c-7.2,0-11.8-6.6-11.8-15.5  c0-7.2,3.6-14.4,11.5-14.4c5.1,0,8,2.5,9.2,7.6l1.4-0.3c-0.3-2.6-0.6-4.5-1-7.2c-1.3-0.2-4.6-1.3-8.4-1.3  c-11.5,0-18.6,6.6-18.6,16.6c0,7.6,4.5,15.8,17.3,15.8c3.4,0,7.4-1,8.8-1.3c0.9-1.6,2-5.1,2.7-7.3L377.5,50.1z M411.8,58.5v-0.9  c-2.3-0.2-3.2-1.3-4.9-4.3c-3.4-6.1-2.5-9.2-9.8-11.3v-0.1c0.8-0.5,2.8-1.6,4.6-5.2c2.3-4.7,3.3-6.4,5.4-6.4h1c1,0,2-0.6,2-1.4  c0-1-1-1.9-2.6-1.9c-2.1,0-4,1.3-5.6,5.1c-2.6,5.8-2.8,9.6-9.8,9.7v-8.9c0-3.8,0-4,3.6-4.3v-0.9h-12.1v0.9c3.6,0.3,3.5,0.6,3.5,4.3  V53c0,4,0.1,4.3-3.5,4.6v0.9h12.1v-0.9c-3.6-0.3-3.6-0.6-3.6-4.6V42.7c6.8-0.1,6.9,6,9.6,11.4c1.4,2.9,3.2,4.4,6.2,4.4L411.8,58.5z   M155.4,58.5v-0.9c-2.3-0.2-3.2-1.3-4.9-4.3c-3.4-6.1-2.5-9.2-9.8-11.3v-0.1c0.8-0.5,2.8-1.6,4.6-5.2c2.3-4.7,3.3-6.4,5.4-6.4h1  c1,0,2-0.6,2-1.4c0-1-1-1.9-2.6-1.9c-2.1,0-4,1.3-5.6,5.1c-2.6,5.8-2.8,9.6-9.8,9.7v-8.9c0-3.8,0-4,3.6-4.3v-0.9h-12.1v0.9  c3.6,0.3,3.5,0.6,3.5,4.3V53c0,4,0.1,4.3-3.5,4.6v0.9h12.1v-0.9c-3.6-0.3-3.6-0.6-3.6-4.6V42.7c6.8-0.1,6.9,6,9.6,11.4  c1.4,2.9,3.2,4.4,6.2,4.4L155.4,58.5z M448.4,58.5v-0.9c-3.6-0.3-4.1-0.5-4.1-4.6V33.3c0-4.2,0.4-4.6,4.1-4.9v-0.9H439V28  c0,0.4-0.1,0.9-0.5,1.6l-14.1,25h-0.1c0.2-4.7,0.2-7.7,0.2-9.8V32.7c0-3.7,0.5-4,4.1-4.3v-0.9h-12.9v0.9c3.6,0.3,4,0.6,4,4.3v19.9  c0,4.3-0.4,4.7-4,5v0.9h9.3V58c0-0.6,0.1-1.2,0.4-1.8l14.2-25.4h0.2c-0.2,4.6-0.2,7.7-0.2,9.3V53c0,4.1-0.4,4.3-4.1,4.6v0.9  L448.4,58.5z M485.9,58.5v-0.9c-3.6-0.3-4.1-0.5-4.1-4.6V33.3c0-4.2,0.4-4.6,4.1-4.9v-0.9h-9.4V28c0,0.4-0.1,0.9-0.5,1.6l-14.1,25  h-0.1c0.2-4.7,0.2-7.7,0.2-9.8V32.7c0-3.7,0.5-4,4.1-4.3v-0.9h-12.9v0.9c3.6,0.3,4,0.6,4,4.3v19.9c0,4.3-0.4,4.7-4,5v0.9h9.3V58  c0-0.6,0.1-1.2,0.4-1.8L477,30.8h0.2c-0.2,4.6-0.2,7.7-0.2,9.3V53c0,4.1-0.2,4.3-3.9,4.6v0.9L485.9,58.5z"
   class="st0"
   inkscape:connector-curvature="0"
   id="path18" />
<path
   d="M469.9,24.6c1.6,0,3-0.4,3.9-1l0,0c0.9-0.6,1.4-1.4,1.4-2.3  c0-0.4-0.1-0.7-0.3-1c-0.2-0.2-0.5-0.3-0.8-0.3l-0.1,0c-0.4,0-0.6,0.2-0.8,0.4c-0.2,0.2-0.3,0.5-0.3,0.9l0,0.1c0,0.1,0,0.1,0,0.1  c0,0.7-0.2,1.4-0.7,1.9c-0.5,0.5-1.2,0.9-2.2,1c-0.1,0-0.2,0-0.2,0c0,0,0,0-0.1,0c-0.9,0-1.7-0.4-2.2-0.9c-0.5-0.5-0.8-1.3-0.8-2  c0,0,0,0,0-0.1c0-0.1,0,0,0,0c0-0.3-0.1-0.6-0.2-0.9c-0.1-0.2-0.4-0.4-0.7-0.4c-0.1,0,0,0,0,0c-0.3,0-0.6,0.1-0.8,0.3  c-0.2,0.3-0.4,0.6-0.4,1c0,0.9,0.5,1.7,1.3,2.3C466.9,24.3,468.2,24.6,469.9,24.6L469.9,24.6z M474.5,24.7c-1.1,0.7-2.7,1.2-4.6,1.2  c-1.9,0-3.5-0.4-4.6-1.2c-1.2-0.8-1.9-1.9-1.9-3.3c0-0.6,0.2-1.3,0.7-1.8c0.4-0.4,1-0.7,1.6-0.7c0,0,0,0,0.1,0  c0.8,0,1.4,0.4,1.7,0.9c0.3,0.5,0.4,1.1,0.4,1.6c0,0,0,0,0,0.1c0,0.1,0,0,0,0c0,0.5,0.2,0.9,0.5,1.2c0.3,0.3,0.8,0.5,1.4,0.5  c0,0,0,0,0.1,0c0.1,0,0.1,0,0.1,0c0.6,0,1.1-0.2,1.3-0.6c0.3-0.3,0.4-0.7,0.4-1.1v-0.1c0-0.1,0-0.1,0-0.1c0-0.6,0.2-1.2,0.5-1.6  c0.4-0.5,0.9-0.8,1.7-0.8c0.1,0,0.1,0,0.1,0c0.7,0,1.3,0.3,1.7,0.7c0.4,0.5,0.7,1.1,0.7,1.8C476.4,22.7,475.7,23.9,474.5,24.7  L474.5,24.7z M217.9,33.2c-0.1-1.1-0.2-2.2-0.2-3.3c-0.1-1-0.1-1.9-0.1-2.7c-0.2,0.2-0.4,0.4-0.7,0.5c-0.4,0.2-0.9,0.3-1.7,0.3  h-19.7c-0.7,0-1.3,0-1.8-0.2c-0.3-0.1-0.5-0.3-0.8-0.5c0,1-0.1,2.1-0.2,3.2c-0.1,0.9-0.1,1.9-0.2,2.8c0.4-1.5,0.8-2.8,1.2-3.5  c0.4-0.7,0.9-1.1,1.9-1.4c0.9-0.3,2.1-0.4,4.2-0.4h3.6v25c0,2-0.1,3.2-0.9,4c-0.4,0.4-0.9,0.6-1.7,0.8h9.1c-0.8-0.2-1.3-0.4-1.8-0.8  c-0.8-0.8-0.9-2-0.9-4v-25h4c1.8,0,3,0.1,3.8,0.3c0.9,0.3,1.4,0.7,1.8,1.4c0.3,0.4,0.6,1.1,0.9,1.9  C217.7,32.2,217.8,32.7,217.9,33.2z M218.9,29.9c0.1,1.6,0.2,3.3,0.4,4.9l0,0.6l-2,0.3l-0.1-0.5c-0.3-1.1-0.5-2.1-0.7-2.9  c-0.2-0.7-0.5-1.3-0.7-1.6c-0.3-0.5-0.6-0.8-1.2-0.9c-0.7-0.2-1.7-0.3-3.4-0.3h-2.8v23.8c0,1.7,0.1,2.7,0.6,3.1  c0.5,0.5,1.7,0.7,3.8,0.8l0.6,0v2h-15.8v-2l0.6,0c2-0.1,3.1-0.3,3.6-0.8c0.5-0.5,0.6-1.4,0.6-3.1V29.3h-2.4c-1.9,0-3.1,0.1-3.8,0.3  c-0.6,0.2-0.9,0.5-1.2,0.9c-0.4,0.7-0.8,2-1.2,3.7l-0.3,1.3h-2l0.1-0.6c0.1-1.5,0.2-3,0.3-4.4c0.1-1.5,0.2-2.9,0.2-4.2l0-0.6h1.4  l0.2,0.3c0.3,0.4,0.5,0.7,0.8,0.8c0.3,0.1,0.7,0.1,1.3,0.1h19.7c0.5,0,0.9-0.1,1.1-0.2c0.3-0.1,0.5-0.4,0.8-0.8l0.2-0.2h1.4v0.6  C218.8,27.3,218.8,28.6,218.9,29.9L218.9,29.9z M250.3,28.1h-6.8c1,0.2,1.8,0.5,2.2,1.2c0.4,0.7,0.3,1.7-0.2,3.2  c-0.4,1.2-0.8,2.4-1.3,3.6c-0.5,1.3-1,2.6-1.5,3.8c-0.5,1.2-1,2.3-1.5,3.6c-0.5,1.2-1,2.4-1.6,3.7l-0.5,1.2l-7.6-16.9  c-0.5-1.1-0.7-1.8-0.6-2.3c0.1-0.7,0.6-1,1.5-1.2h-9c0.8,0.2,1.4,0.4,1.9,0.7c0.8,0.5,1.3,1.3,1.9,2.6c0.1,0.2,0.1,0.3,0.5,0.9  c2.1,4.3,9.1,18.5,9.1,20.1c0,0.6-0.5,2.3-1.6,3.5c-0.7,0.8-1.7,1.4-3,1.4c-0.6,0-1.2-0.1-1.7-0.3c-0.5-0.2-1-0.5-1.5-0.9v0  c-0.2-0.1-0.3-0.2-0.5-0.2c-0.2,0-0.4,0.1-0.7,0.4c-0.3,0.2-0.4,0.5-0.5,0.8c0,0.3,0,0.5,0.2,0.8l0,0c0.2,0.4,0.5,0.7,1,0.9  c0.5,0.3,1.1,0.4,1.8,0.4c1,0,2.1-0.2,3.2-1.1c1.2-0.9,2.4-2.5,3.7-5.3c1.1-2.3,3-6.9,4.8-11.1c1.5-3.5,2.9-6.9,3.7-8.6  c1-2.1,1.6-3.3,2.5-4.1C248.8,28.6,249.4,28.3,250.3,28.1L250.3,28.1z M241.6,26.9h10.9V29l-0.5,0.1c-1.5,0.2-2.3,0.4-3,1  c-0.7,0.6-1.3,1.7-2.2,3.7c-0.8,1.8-2.2,5.1-3.7,8.5c-1.8,4.3-3.7,8.9-4.8,11.2c-1.4,3-2.8,4.7-4.1,5.7c-1.4,1.1-2.7,1.3-3.9,1.3  c-0.8,0-1.6-0.2-2.3-0.5c-0.7-0.4-1.2-0.9-1.5-1.5c-0.3-0.5-0.4-1.1-0.3-1.6c0.1-0.5,0.4-1,0.8-1.4l0,0c0.4-0.4,0.9-0.6,1.4-0.7  c0.5,0,1,0.1,1.4,0.5l0,0c0.3,0.3,0.7,0.5,1.1,0.6c0.5,0.2,0.9,0.2,1.3,0.2c0.9,0,1.6-0.4,2.2-1c0.9-0.9,1.3-2.2,1.3-2.7  c0-1.3-6.9-15.4-9-19.6c-0.1-0.2-0.2-0.3-0.5-0.9c-0.5-1.1-0.9-1.7-1.5-2.1c-0.6-0.4-1.5-0.6-2.9-0.8l-0.5-0.1v-2.1h13.4v2l-1.9,0.3  c-0.4,0.1-0.6,0.1-0.6,0.2c0,0.3,0.1,0.8,0.5,1.6l6.5,14.4c0.4-0.8,0.7-1.6,1-2.4c0.5-1.2,1-2.4,1.5-3.6c0.5-1.2,1-2.5,1.5-3.8  c0.4-1.2,0.9-2.4,1.3-3.5c0.4-1.2,0.5-1.9,0.3-2.3c-0.2-0.3-0.7-0.5-1.4-0.6L241,29v-2.1L241.6,26.9z M186.5,28.1h-6.8  c1,0.2,1.8,0.5,2.2,1.2c0.4,0.7,0.3,1.7-0.2,3.2c-0.4,1.2-0.8,2.4-1.3,3.6c-0.5,1.3-1,2.6-1.5,3.8c-0.5,1.2-1,2.3-1.5,3.6  c-0.5,1.2-1,2.4-1.6,3.7l-0.5,1.2l-7.6-16.9c-0.5-1.1-0.7-1.8-0.6-2.3c0.1-0.7,0.6-1,1.5-1.2h-9c0.8,0.2,1.4,0.4,1.9,0.7  c0.8,0.5,1.3,1.3,1.9,2.6c0.1,0.2,0.1,0.3,0.5,0.9c2.1,4.3,9.1,18.5,9.1,20.1c0,0.6-0.5,2.3-1.6,3.5c-0.7,0.8-1.7,1.4-3,1.4  c-0.6,0-1.2-0.1-1.7-0.3c-0.5-0.2-1-0.5-1.5-0.9v0c-0.2-0.1-0.3-0.2-0.5-0.2c-0.2,0-0.4,0.1-0.7,0.4c-0.3,0.2-0.4,0.5-0.5,0.8  c0,0.3,0,0.5,0.2,0.8l0,0c0.2,0.4,0.5,0.7,1,0.9c0.5,0.3,1.1,0.4,1.8,0.4c1,0,2.1-0.2,3.2-1.1c1.2-0.9,2.4-2.5,3.7-5.3  c1.1-2.3,3-6.9,4.8-11.1c1.5-3.5,2.9-6.9,3.7-8.6c1-2.1,1.6-3.3,2.5-4.1C185,28.6,185.7,28.3,186.5,28.1L186.5,28.1z M177.8,26.9  h10.9V29l-0.5,0.1c-1.5,0.2-2.3,0.4-3,1c-0.7,0.6-1.3,1.7-2.2,3.7c-0.8,1.8-2.2,5.1-3.7,8.5c-1.8,4.3-3.7,8.9-4.8,11.2  c-1.4,3-2.8,4.7-4.1,5.7c-1.4,1.1-2.7,1.3-3.9,1.3c-0.8,0-1.6-0.2-2.3-0.5c-0.7-0.4-1.2-0.9-1.5-1.5c-0.3-0.5-0.4-1.1-0.3-1.6  c0.1-0.5,0.4-1,0.8-1.4l0,0c0.4-0.4,0.9-0.6,1.4-0.7c0.5,0,1,0.1,1.4,0.5l0,0c0.3,0.3,0.7,0.5,1.1,0.6c0.5,0.2,0.9,0.2,1.3,0.2  c0.9,0,1.6-0.4,2.2-1c0.9-0.9,1.3-2.2,1.3-2.7c0-1.3-6.9-15.4-9-19.6c-0.1-0.2-0.2-0.3-0.5-0.9c-0.5-1.1-0.9-1.7-1.5-2.1  c-0.6-0.4-1.5-0.6-2.9-0.8l-0.5-0.1v-2.1h13.4v2l-1.9,0.3c-0.4,0.1-0.6,0.1-0.6,0.2c0,0.3,0.1,0.8,0.5,1.6l6.5,14.4  c0.4-0.8,0.7-1.6,1-2.4c0.5-1.2,1-2.4,1.5-3.6c0.5-1.2,1-2.5,1.5-3.8c0.4-1.2,0.9-2.4,1.3-3.5c0.4-1.2,0.5-1.9,0.3-2.3  c-0.2-0.3-0.7-0.5-1.4-0.6l-2.2-0.3v-2.1L177.8,26.9z M268.3,40.8c0.6-0.2,1.3-0.5,2-0.8c0.6-0.3,1.2-0.7,1.8-1.1l0,0  c0.7-0.5,1.3-1.2,1.7-2c0.4-0.7,0.6-1.6,0.6-2.6c0-2-0.8-3.7-2.3-4.9c-1.5-1.2-3.7-1.9-6.3-1.9c-0.2,0-0.3,0-0.5,0  c1.9,0.2,3.1,0.9,3.9,2c0.9,1.3,1.2,3.1,1.2,5.4c0,1.9-0.5,3.5-1.2,4.6c-0.9,1.3-2.1,2-3.4,2c-0.7,0-1.2-0.1-1.8-0.2  c-0.5-0.1-1.1-0.2-1.8-0.2c-0.5,0-0.9,0.1-1.2,0.3c-0.2,0.1-0.3,0.3-0.3,0.4c0,0.2,0.1,0.3,0.2,0.4c0.3,0.2,0.7,0.2,1.2,0.2  c0.8,0,1.4-0.1,2-0.2c0.6-0.1,1.2-0.2,1.8-0.2c1.6,0,3,0.9,4,2.4c0.9,1.4,1.5,3.4,1.5,5.7l0,0.3c-0.1,3-0.9,5.1-2.2,6.4  c-1.1,1.1-2.3,1.7-3.6,1.9c2.6-0.1,5.3-1,7.3-2.6c1.8-1.4,3-3.5,3-6.3c0-2.2-0.7-3.9-1.9-5.1c-1.4-1.4-3.4-2.2-5.7-2.5l-0.5-0.1V41  L268.3,40.8z M270.8,41.1c-0.2,0.1-0.4,0.2-0.5,0.3c1.8,0.5,3.4,1.3,4.6,2.5c1.4,1.4,2.2,3.3,2.2,5.9c0,3.2-1.4,5.5-3.4,7.2  c-2.4,2-5.8,2.9-8.9,2.9c-1.5,0-3-0.2-4.4-0.6c-1.3-0.4-2.5-0.9-3.5-1.7v0c-0.8-0.6-1.4-1.2-1.9-1.9c-0.5-0.7-0.7-1.5-0.7-2.2  c0-0.7,0.2-1.3,0.6-1.7c0.4-0.5,1.1-0.8,1.7-0.8c0.5,0,1,0.2,1.4,0.6c0.4,0.3,0.7,0.8,1,1.5c0.7,1.6,1.5,2.7,2.5,3.4  c1,0.7,2.1,1.1,3.3,1.1c0.1,0,0,0,0.1,0c1.2,0,2.5-0.5,3.5-1.6c1.1-1.1,1.8-3,1.9-5.6l0-0.3c0-2.1-0.5-3.9-1.3-5.1  c-0.8-1.2-1.8-1.9-3-1.9c-0.5,0-1,0.1-1.6,0.2c-0.7,0.1-1.4,0.3-2.3,0.3c-0.7,0-1.3-0.1-1.8-0.4c-0.5-0.3-0.8-0.8-0.8-1.4  c0-0.6,0.3-1.1,0.8-1.4c0.5-0.3,1.1-0.4,1.8-0.4c0.8,0,1.4,0.1,2,0.3c0.5,0.1,1,0.2,1.5,0.2c0.9,0,1.8-0.5,2.5-1.5  c0.6-0.9,1-2.2,1-3.9c0-2.1-0.2-3.7-1-4.7c-0.7-1-1.9-1.5-3.9-1.5c-4,0-5.3,3.9-6.3,6.9l0,0l-0.2,0.5l-2.1-0.3l0.1-0.6  c0.4-1.8,0.7-4.8,0.8-6.2l0.1-0.6l0.4-0.1c0.6-0.2,1.1-0.4,1.7-0.6c0.6-0.2,1.2-0.4,1.8-0.6l0,0c0.6-0.2,1.5-0.4,2.6-0.6  c0.8-0.1,1.7-0.2,2.4-0.2c2.9,0,5.4,0.8,7.1,2.2c1.8,1.4,2.8,3.5,2.8,5.8c0,1.2-0.3,2.3-0.7,3.2c-0.5,1.1-1.3,1.9-2,2.5v0  C272.2,40.3,271.5,40.7,270.8,41.1L270.8,41.1z M261.3,28.1c-0.1,0-0.2,0.1-0.3,0.1v0c-0.6,0.2-1.2,0.4-1.8,0.6  c-0.5,0.1-0.9,0.3-1.3,0.4c-0.1,1.1-0.3,3.1-0.6,4.7C258.1,31.6,259.1,29.2,261.3,28.1L261.3,28.1z M263.9,58.6  c-1.2-0.1-2.3-0.5-3.3-1.3c-1.1-0.9-2.1-2.1-2.9-3.9c-0.2-0.5-0.4-0.8-0.7-1.1c-0.2-0.2-0.4-0.3-0.6-0.3c-0.3,0-0.6,0.1-0.8,0.3  c-0.2,0.2-0.3,0.5-0.3,1c0,0.5,0.2,1,0.5,1.6c0.4,0.6,0.9,1.1,1.6,1.6l0,0c0.9,0.7,1.9,1.2,3.1,1.5  C261.7,58.4,262.8,58.5,263.9,58.6L263.9,58.6z M298.8,27.4c-4.8,0-8.5,1.7-11.2,4.4c-2.9,3-4.5,7.2-4.5,11.5  c0,4.4,1.6,8.2,4.3,10.9c2.7,2.7,6.5,4.3,10.8,4.3c4.5,0,8.5-1.6,11.3-4.4c2.7-2.7,4.3-6.7,4.3-11.5c0-4.5-1.6-8.2-4.2-10.9  C306.8,29,303,27.4,298.8,27.4z M286.8,31c2.8-2.9,6.9-4.7,12-4.7c4.5,0,8.7,1.7,11.6,4.7c2.8,2.9,4.6,6.9,4.6,11.7  c0,5.2-1.7,9.4-4.6,12.4c-3,3.1-7.3,4.8-12.1,4.8c-4.7,0-8.8-1.7-11.7-4.7c-2.9-2.9-4.6-7.1-4.6-11.8  C281.9,38.7,283.6,34.2,286.8,31L286.8,31z M297.8,27.5c6.6,0,11.4,6,11.4,16.4c0,4.5-1,8.1-2.6,10.5c-1.8,2.7-4.4,4.1-7.3,4.1  c-3.5,0-6.4-1.8-8.4-4.7c-2-3-3.2-7.2-3.2-11.9c0-4.4,1-8,2.7-10.4C292.2,28.9,294.9,27.5,297.8,27.5L297.8,27.5z M308,43.9  c0-9.7-4.3-15.2-10.2-15.2c-2.6,0-4.8,1.2-6.4,3.6c-1.5,2.3-2.5,5.6-2.5,9.7c0,4.5,1.1,8.4,3,11.2c1.8,2.6,4.3,4.2,7.4,4.2  c2.5,0,4.8-1.2,6.4-3.6C307.1,51.5,308,48.2,308,43.9L308,43.9z M335.5,41.1c1.5-0.4,3.4-1.2,4.7-2.5c0.9-1,1.5-2.3,1.5-4  c0-2.7-1.2-4.3-2.9-5.2c-1.7-0.9-3.9-1.2-6-1.3c3.5,0.7,4.8,3.9,4.8,7c0,2.2-0.5,3.9-1.7,5.1c-1,1-2.4,1.6-4.4,1.8  c2.3,0.2,4.1,0.8,5.4,1.9c1.5,1.3,2.3,3.3,2.3,5.9c0,2.5-0.8,4.3-2,5.6c-1.4,1.5-3.3,2.2-5.3,2.2c-1.7,0-2.8-0.3-3.5-1.1  c-0.7-0.8-0.9-2-0.9-3.8V31.5c0-0.8,0.1-1.4,0.2-1.8c0.1-0.5,0.4-0.8,0.7-1.1c0.3-0.2,0.7-0.3,1.2-0.4l0,0h-8  c0.6,0.2,1.1,0.4,1.4,0.8c0.7,0.8,0.7,1.9,0.7,4v20.1c0,2.2-0.1,3.3-0.8,4.1c-0.4,0.4-0.8,0.6-1.5,0.8h8.8c3.2,0,7.1-0.6,9.9-2.4  c2-1.3,3.4-3.2,3.4-6.1c0-2-0.8-3.5-2-4.6c-1.5-1.3-3.7-2.1-6.2-2.4l-0.5-0.1v-1.1L335.5,41.1z M341,39.4c-1,1-2.2,1.7-3.4,2.2  c1.9,0.5,3.6,1.2,4.8,2.3c1.5,1.3,2.4,3.1,2.4,5.5c0,3.3-1.6,5.5-3.9,7.1c-3,2-7.2,2.6-10.6,2.6h-12v-2l0.6,0  c1.9-0.1,2.9-0.3,3.3-0.7c0.4-0.5,0.5-1.4,0.5-3.3V32.9c0-1.8,0-2.8-0.4-3.2c-0.4-0.4-1.3-0.6-3-0.7l-0.6,0v-2h13.5  c2.5,0,5.1,0.3,7.1,1.4c2.1,1.1,3.5,3.1,3.5,6.2C342.9,36.6,342.1,38.2,341,39.4L341,39.4z M330.4,43.2h-1.6v9.6  c0,1.6,0.1,2.6,0.6,3.1c0.4,0.5,1.2,0.7,2.5,0.7c1.7,0,3.3-0.6,4.5-1.8c1-1.1,1.6-2.7,1.6-4.8c0-2.3-0.6-3.9-1.9-5  C334.9,43.8,333,43.2,330.4,43.2z M328.8,31.5v9.4h1.6c2.2,0,3.7-0.5,4.6-1.5c0.9-1,1.3-2.4,1.3-4.3c0-2.9-1.4-6-5.1-6  c-0.5,0-1,0-1.4,0.1c-0.4,0.1-0.6,0.2-0.8,0.3c-0.1,0.1-0.2,0.2-0.2,0.4C328.8,30.2,328.8,30.7,328.8,31.5L328.8,31.5z M377.7,50.9  c-1.2,2.2-2.4,4.1-3.9,5.4c-1.7,1.5-3.6,2.3-6.2,2.3c-3.8,0-6.8-1.7-9-4.5c-2.2-2.9-3.4-6.9-3.4-11.6c0-4,1.1-8,3.4-10.9  c2-2.5,4.9-4.1,8.8-4.1c2.7,0,4.8,0.7,6.5,2c1.5,1.2,2.5,3,3.2,5.4l0.3-0.1c-0.2-1.9-0.4-3.5-0.7-5.3l-0.1-0.9  c-0.2-0.1-0.5-0.1-0.8-0.2c-1.6-0.4-4.2-1-7.1-1c-5.6,0-10.1,1.6-13.1,4.3c-3.1,2.8-4.8,6.8-4.8,11.7c0,4,1.3,8.2,4.5,11.2  c2.6,2.4,6.6,4,12.1,4c1.7,0,3.5-0.2,5.1-0.5c1.4-0.2,2.6-0.5,3.3-0.7c0.3-0.6,0.7-1.6,1.1-2.6c0.5-1.3,1-2.7,1.3-3.9L377.7,50.9z   M373.1,55.4c1.5-1.3,2.7-3.2,3.8-5.5l0.2-0.5l2.4,0.9l-0.2,0.5c-0.4,1.3-0.9,2.9-1.5,4.5c-0.4,1.2-0.9,2.2-1.3,2.9l-0.1,0.2  l-0.3,0.1c-0.7,0.2-2,0.5-3.6,0.8c-1.6,0.3-3.5,0.5-5.3,0.5c-5.9,0-10.1-1.7-12.9-4.3c-3.5-3.2-4.9-7.7-4.9-12.1  c0-5.2,1.9-9.6,5.2-12.6c3.3-3,8.1-4.6,13.9-4.6c3,0,5.7,0.6,7.4,1c0.5,0.1,0.8,0.2,1.2,0.3l0.4,0.1l0.1,0.4  c0.1,0.5,0.1,0.9,0.2,1.3c0.3,2.1,0.5,3.8,0.8,5.9l0.1,0.5l-2.5,0.6l-0.1-0.6c-0.6-2.4-1.5-4.2-3-5.4c-1.4-1.2-3.3-1.7-5.7-1.7  c-3.5,0-6,1.4-7.8,3.7c-2.1,2.6-3.1,6.4-3.1,10.2c0,4.4,1.1,8.2,3.2,10.8c1.9,2.5,4.7,4,8,4C369.9,57.4,371.6,56.6,373.1,55.4  L373.1,55.4z M412.4,57.6v1.5h-4.6c-1.6,0-2.9-0.4-4-1.2c-1.1-0.8-1.9-2-2.7-3.5c-0.6-1.3-1.1-2.6-1.6-3.9c-1.4-3.7-2.6-7-6.9-7.2  v9.8h0c0,3.5,0,3.7,3,3.9l0.6,0v2h-13.3v-2l0.6,0c3-0.2,3-0.5,3-3.8l0-0.2h0V32.7h0l0-0.2c0-3,0-3.2-3-3.5l-0.6,0v-2h13.3v2l-0.6,0  c-3,0.2-3,0.4-3,3.6h0V41c5-0.3,6-2.8,7.6-6.7c0.3-0.8,0.7-1.7,1.1-2.6c0.9-1.9,1.8-3.3,2.8-4.1c1.1-0.9,2.2-1.3,3.4-1.3  c0.9,0,1.7,0.3,2.2,0.7c0.6,0.5,1,1.1,1,1.9c0,0.6-0.3,1.1-0.8,1.5c-0.5,0.3-1.1,0.5-1.7,0.6l0,0h-1c-0.8,0-1.5,0.4-2.2,1.2  c-0.8,1-1.6,2.6-2.7,4.9v0c-1.4,2.8-2.9,4.2-3.9,4.9c4.8,1.7,5.7,3.8,7.2,7.2c0.5,1.2,1.1,2.5,1.9,4c0.8,1.5,1.4,2.4,2.1,3.1  c0.6,0.6,1.3,0.8,2.3,0.9l0.5,0.1L412.4,57.6z M410.2,57.9c-0.6-0.2-1.1-0.5-1.6-0.9c-0.8-0.7-1.4-1.8-2.3-3.4  c-0.9-1.6-1.5-2.9-2-4.1c-1.4-3.4-2.3-5.4-7.5-6.9l-0.4-0.1v-0.9l0.4-0.3c0.8-0.5,2.6-1.6,4.2-4.9l0,0c1.2-2.4,2-4,2.8-5.1  c0.9-1.2,1.8-1.7,3.1-1.7h1v0c0.4,0,0.8-0.1,1.1-0.3c0.2-0.1,0.3-0.3,0.3-0.5c0-0.3-0.2-0.7-0.5-0.9c-0.3-0.3-0.8-0.4-1.5-0.4  c-0.9,0-1.8,0.3-2.6,1c-0.9,0.7-1.7,1.9-2.5,3.7c-0.4,0.9-0.7,1.8-1.1,2.6c-1.7,4.3-2.8,7-8.3,7.4c4.8,0.4,6.1,3.9,7.6,8  c0.5,1.2,0.9,2.5,1.5,3.8c0.6,1.3,1.4,2.4,2.3,3c0.9,0.7,2,1,3.3,1L410.2,57.9z M391.4,42.2v-9.6h0c0-3.1,0-4.1,1.7-4.5H386  c1.7,0.4,1.7,1.4,1.7,4.4l0,0.2h0V53h0l0,0.2c0,3.2,0,4.2-1.7,4.7h7.2c-1.7-0.4-1.7-1.5-1.7-4.8h0L391.4,42.2z M156,57.6v1.5h-4.6  c-1.6,0-2.9-0.4-4-1.2c-1.1-0.8-1.9-2-2.7-3.5c-0.6-1.3-1.1-2.6-1.6-3.9c-1.4-3.7-2.6-7-6.9-7.2v9.8h0c0,3.5,0,3.7,3,3.9l0.6,0v2  h-13.3v-2l0.6,0c3-0.2,3-0.5,3-3.8l0-0.2h0V32.7h0l0-0.2c0-3,0-3.2-3-3.5l-0.6,0v-2h13.3v2l-0.6,0c-3,0.2-3,0.4-3,3.6h0V41  c5-0.3,6-2.8,7.6-6.7c0.3-0.8,0.7-1.7,1.1-2.6c0.9-1.9,1.8-3.3,2.8-4.1c1.1-0.9,2.2-1.3,3.4-1.3c0.9,0,1.7,0.3,2.2,0.7  c0.6,0.5,1,1.1,1,1.9c0,0.6-0.3,1.1-0.8,1.5c-0.5,0.3-1.1,0.5-1.7,0.6l0,0h-1c-0.8,0-1.5,0.4-2.2,1.2c-0.8,1-1.6,2.6-2.7,4.9v0  c-1.4,2.8-2.9,4.2-3.9,4.9c4.8,1.7,5.7,3.8,7.2,7.2c0.5,1.2,1.1,2.5,1.9,4c0.8,1.5,1.4,2.4,2.1,3.1c0.6,0.6,1.3,0.8,2.3,0.9l0.5,0.1  L156,57.6z M153.8,57.9c-0.6-0.2-1.1-0.5-1.6-0.9c-0.8-0.7-1.4-1.8-2.3-3.4c-0.9-1.6-1.5-2.9-2-4.1c-1.4-3.4-2.3-5.4-7.5-6.9  l-0.4-0.1v-0.9l0.4-0.3c0.8-0.5,2.6-1.6,4.2-4.9l0,0c1.2-2.4,2-4,2.8-5.1c0.9-1.2,1.8-1.7,3.1-1.7h1v0c0.4,0,0.8-0.1,1.1-0.3  c0.2-0.1,0.3-0.3,0.3-0.5c0-0.3-0.2-0.7-0.5-0.9c-0.3-0.3-0.8-0.4-1.5-0.4c-0.9,0-1.8,0.3-2.6,1c-0.9,0.7-1.7,1.9-2.5,3.7  c-0.4,0.9-0.7,1.8-1.1,2.6c-1.7,4.3-2.8,7-8.3,7.4c4.8,0.4,6.1,3.9,7.6,8c0.5,1.2,0.9,2.5,1.5,3.8c0.6,1.3,1.4,2.4,2.3,3  c0.9,0.7,2,1,3.3,1L153.8,57.9z M135,42.2v-9.6h0c0-3.1,0-4.1,1.7-4.5h-7.1c1.7,0.4,1.7,1.4,1.7,4.4l0,0.2h0V53h0l0,0.2  c0,3.2,0,4.2-1.7,4.7h7.2c-1.7-0.4-1.7-1.5-1.7-4.8h0V42.2z M449,57.6v1.5h-14.2v-2l0.6,0c1.7-0.1,2.6-0.2,3-0.7  c0.4-0.5,0.5-1.4,0.5-3.3V40.1c0-0.7,0-1.9,0-3.5c0-1.1,0.1-2.3,0.1-3.7l-13.2,23.5c-0.1,0.2-0.2,0.5-0.3,0.7  c-0.1,0.3-0.1,0.5-0.1,0.8v1.1h-10.5v-2l0.6,0c1.6-0.1,2.5-0.3,2.9-0.7c0.4-0.5,0.5-1.6,0.5-3.6V32.7c0-1.7-0.1-2.6-0.5-3.1  c-0.4-0.4-1.3-0.5-3-0.7l-0.6,0v-2h14.1v2l-0.6,0c-1.6,0.1-2.6,0.3-3,0.7c-0.4,0.4-0.5,1.3-0.5,3v12.1c0,1,0,2.2,0,4  c0,1.1,0,2.2-0.1,3.6l13-23.1c0.2-0.3,0.3-0.6,0.4-0.8c0.1-0.2,0.1-0.3,0.1-0.5v-1.1H449v2l-0.6,0c-1.6,0.1-2.6,0.3-3,0.8  c-0.4,0.5-0.5,1.6-0.5,3.6V53c0,1.9,0.1,2.9,0.5,3.3c0.4,0.4,1.3,0.6,3,0.7l0.6,0L449,57.6z M446,57.9c-0.6-0.2-1-0.4-1.4-0.8  c-0.7-0.8-0.8-1.9-0.8-4.1V33.3c0-2.3,0.1-3.5,0.8-4.3c0.4-0.4,0.8-0.7,1.5-0.9h-6.5c0,0.2-0.1,0.5-0.1,0.8c-0.1,0.3-0.2,0.6-0.5,1  l-14.2,25.4h-1.1l0-0.6c0.1-2.4,0.1-4.3,0.2-5.9c0-1.4,0-2.8,0-4V32.7c0-2,0.1-3.1,0.9-3.9c0.3-0.4,0.8-0.6,1.4-0.7h-8.1  c0.6,0.2,1,0.4,1.4,0.7c0.7,0.7,0.8,1.8,0.8,3.9v19.9c0,2.3-0.1,3.6-0.8,4.4c-0.4,0.4-0.8,0.7-1.5,0.9h6.4c0-0.3,0-0.6,0.1-1  c0.1-0.4,0.2-0.7,0.4-1.1l14.4-25.7h1.2l0,0.6c-0.1,2.3-0.2,4.2-0.2,5.8c0,1.4,0,2.7,0,3.5V53c0,2.2-0.1,3.4-0.8,4.1  c-0.4,0.4-0.8,0.6-1.4,0.8L446,57.9z M486.5,57.6v1.5h-14v-2l0.6,0c1.7-0.1,2.5-0.2,2.9-0.7c0.4-0.5,0.4-1.5,0.4-3.4V40.1  c0-0.7,0-1.9,0-3.5c0-1.1,0.1-2.3,0.1-3.7l-13.2,23.5c-0.1,0.2-0.2,0.5-0.3,0.7c-0.1,0.3-0.1,0.5-0.1,0.8v1.1h-10.5v-2l0.6,0  c1.6-0.1,2.5-0.3,2.9-0.7c0.4-0.5,0.5-1.6,0.5-3.6V32.7c0-1.7-0.1-2.6-0.5-3.1c-0.4-0.4-1.3-0.5-3-0.7l-0.6,0v-2h14.1v2l-0.6,0  c-1.6,0.1-2.6,0.3-3,0.7c-0.4,0.4-0.5,1.3-0.5,3v12.1c0,1.8,0,4.1-0.1,7.6l13-23.1c0.2-0.3,0.3-0.6,0.4-0.8c0.1-0.2,0.1-0.3,0.1-0.5  v-1.1h10.6v2l-0.6,0c-1.6,0.1-2.6,0.3-3,0.8c-0.4,0.5-0.5,1.6-0.5,3.6V53c0,1.9,0.1,2.9,0.5,3.3c0.4,0.4,1.3,0.6,3,0.7l0.6,0  L486.5,57.6z M483.5,57.9c-0.6-0.2-1-0.4-1.4-0.8c-0.7-0.8-0.8-1.9-0.8-4.1V33.3c0-2.3,0.1-3.5,0.8-4.3c0.4-0.4,0.8-0.7,1.5-0.9  h-6.5c0,0.2-0.1,0.5-0.1,0.8c-0.1,0.3-0.2,0.6-0.5,1l-14.2,25.4h-1.1l0-0.6c0.2-4.7,0.2-7.6,0.2-9.8V32.7c0-2,0.1-3.1,0.9-3.9  c0.3-0.4,0.8-0.6,1.4-0.7h-8.1c0.6,0.2,1,0.4,1.4,0.7c0.7,0.7,0.8,1.8,0.8,3.9v19.9c0,2.3-0.1,3.6-0.8,4.4c-0.4,0.4-0.8,0.7-1.5,0.9  h6.4c0-0.3,0-0.6,0.1-1c0.1-0.4,0.2-0.7,0.4-1.1l14.4-25.7h1.2l0,0.6c-0.1,2.3-0.2,4.2-0.2,5.8c0,1.4,0,2.7,0,3.5V53  c0,2.2-0.1,3.4-0.7,4.1c-0.3,0.4-0.8,0.6-1.3,0.8L483.5,57.9z"
   class="st0"
   inkscape:connector-curvature="0"
   id="path20" />
<linearGradient
   gradientTransform="matrix(5.065749e-02 0 0 -5.065749e-02 -515.4248 -57.0196)"
   y2="-2574.5068"
   x2="12353.6221"
   y1="-2574.5068"
   x1="10938.1582"
   gradientUnits="userSpaceOnUse"
   id="path4580_1_">
	<stop
   id="stop7"
   style="stop-color:#00203F"
   offset="0" />
	<stop
   id="stop9"
   style="stop-color:#006FB5"
   offset="0.5" />
	<stop
   id="stop11"
   style="stop-color:#7ED0E9"
   offset="1" />
</linearGradient>
<path
   d="M38.7,73.4c0-13.2,0-23.9,0-23.9c0,0,0.7,0.3,4.7,2.6  c4.3,2.4,21,11.7,30.5,17c3.2,1.8,32.2,17.9,35.7,19.9l0.8,0.5v3.9v3.9H74.5H38.7L38.7,73.4z"
   class="st1"
   inkscape:connector-curvature="0"
   id="path4580" />
<path
   d="M7.2,51.7h19.7v45.6H7.2V51.7z"
   class="st2"
   inkscape:connector-curvature="0"
   id="path27" />
<linearGradient
   gradientTransform="matrix(5.065749e-02 0 0 -5.065749e-02 -515.3565 -57.0196)"
   y2="-2601.0088"
   x2="10306.6367"
   y1="-2596.6074"
   x1="10707.1543"
   gradientUnits="userSpaceOnUse"
   id="path4656_1_">
	<stop
   id="stop16"
   style="stop-color:#00203F"
   offset="0" />
	<stop
   id="stop18"
   style="stop-color:#006FB5"
   offset="0.6983" />
	<stop
   id="stop20"
   style="stop-color:#7ED0E9"
   offset="1" />
</linearGradient>
<path
   d="M7.2,92.5v-4.8l9.8-18c5.4-9.9,9.8-18,9.8-18c0,0,0,8.2,0,22.8  v22.8h-9.8H7.2V92.5z"
   class="st3"
   inkscape:connector-curvature="0"
   id="path4656" />
<path
   d="M110.4,69C86.9,54.6,63.1,40.4,39.5,26  c-5.6-3.3-8.7-1.9-11.9,3.3L7.2,65.1V43.7c7-10.9,14-21.7,21.1-32.6c2.9-4.1,6-5.5,10.3-3.1l71.9,41.6V69z"
   class="st4"
   inkscape:connector-curvature="0"
   id="path31" />
<g
   id="g48">
	<path
   id="path25"
   d="M146.3,77.7h-1.3c0-0.9-0.2-1.7-0.4-2.5s-0.7-1.5-1.3-2.1c-0.7-0.6-1.5-0.9-2.7-0.9h-5.4v8   c0.2,0,0.6-0.1,1.1-0.2c0.5-0.1,1.1-0.2,1.8-0.3c0.7-0.1,1.3-0.1,2-0.1h0.4c1.5,0.1,2.8,0.4,3.9,1.1c1.1,0.7,1.9,1.6,2.5,2.8   c0.6,1.1,0.8,2.4,0.8,3.8v0.2c-0.1,2.2-0.5,3.8-1.5,5c-0.9,1.2-2.1,2-3.5,2.4c-1.4,0.4-3,0.6-4.8,0.6h-11v-1.1c0.1,0,0.3,0,0.4,0   c0.1,0,0.2,0,0.2,0c0.9,0,1.5-0.2,1.9-0.6c0.4-0.4,0.6-1.1,0.6-2.1V73.5c0-1-0.2-1.6-0.7-2c-0.4-0.4-1.1-0.6-2-0.6H127v-1.1h18.9   L146.3,77.7z M135.2,82.4v10.6c0.5,0.3,0.9,0.5,1.2,0.6s0.8,0.2,1.3,0.2c0.1,0,0.3,0,0.5-0.1c0.2,0,0.4-0.1,0.5-0.1   c1.2-0.2,2-0.8,2.6-1.9c0.6-1,0.9-2.3,0.9-3.8v-0.3c0-2-0.5-3.5-1.4-4.4c-0.9-0.9-2-1.4-3.3-1.4C136.9,81.9,136.1,82.1,135.2,82.4z   "
   class="st5" />
	<path
   id="path28"
   d="M165.8,76.8l-9.9,14.6c-0.2,0.3-0.3,0.7-0.3,1.1c0,0.5,0.2,0.9,0.7,1.3c0.5,0.4,1.1,0.6,1.9,0.6   c0,0,0.1,0,0.2,0c0.1,0,0.3,0,0.4,0v1.1h-11.2v-1.1c0.1,0,0.3,0,0.4,0c0.1,0,0.2,0,0.2,0c0.9,0,1.5-0.2,2-0.6s0.7-1.1,0.7-2.1V73.5   c0-1.7-0.9-2.6-2.7-2.6h-0.4v-1.1h11.2v1.1h-0.5c-0.9,0-1.5,0.2-2,0.6c-0.4,0.4-0.6,1.1-0.6,2v14.9l9.9-14.4   c0.2-0.4,0.3-0.8,0.3-1.2c0-0.4-0.1-0.8-0.3-1.2c-0.2-0.4-0.6-0.6-1-0.6c-0.3-0.1-0.7-0.1-1.1-0.1h-0.7v-1.1h11.3v1.1h-0.5   c-0.9,0-1.5,0.2-1.9,0.6s-0.6,1.1-0.6,2v18.2c0,1,0.2,1.7,0.6,2.1c0.4,0.4,1,0.6,1.9,0.6c0,0,0.1,0,0.2,0c0.1,0,0.3,0,0.4,0v1.1   h-11.3v-1.1c0.1,0,0.3,0,0.3,0c0.1,0,0.1,0,0.2,0c0.9,0,1.5-0.2,1.9-0.6s0.6-1.1,0.6-2.1V76.8z"
   class="st5" />
	<path
   id="path30"
   d="M176.8,78.3h-1l0.7-9h1c0.1,0.5,0.3,0.9,0.5,1.1c0.3,0.3,0.6,0.4,1,0.4l0.2-0.1c0.4,0,0.8-0.1,1.3-0.3   c1.9-0.7,3.6-1.1,5.1-1.1h0.5c1.9,0,3.2,0.5,4.1,1.5c0.9,1,1.4,2.1,1.4,3.3v0.5c0,1.5-0.5,2.9-1.5,4.3s-2.2,2.4-3.7,3.1h0.1   c1.3,0,2.5,0.3,3.5,0.8s1.8,1.2,2.3,2.1c0.5,0.9,0.8,1.9,0.9,2.9v0.3c0,0.9-0.2,1.8-0.5,2.8c-0.4,0.9-0.9,1.8-1.7,2.5   c-0.8,0.8-1.7,1.4-2.9,1.9c-1.2,0.5-2.5,0.7-4,0.7h-0.6c-1.6,0-3.3-0.4-4.9-1.2c-1.6-0.8-3.2-2.5-4.9-4.9l1.2-1.3   c2.6,2.7,5,4.2,7.1,4.3c0.1,0,0.2,0,0.3,0c0.1,0,0.2,0,0.2,0c1.4,0,2.5-0.4,3.4-1.3s1.3-2,1.4-3.2v-0.2c0-1.4-0.5-2.5-1.6-3.3   c-1.1-0.8-2.8-1.3-5.2-1.3h-1l0.1-2c1.6,0,2.9-0.4,3.9-0.9c1-0.6,1.8-1.3,2.3-2.2c0.5-0.9,0.8-1.8,0.8-2.7v-0.6   c-0.1-0.8-0.4-1.5-1-2.1c-0.6-0.6-1.4-0.9-2.5-0.9H183c-1.3,0.1-2.6,0.7-3.6,1.8C178.3,75.2,177.4,76.6,176.8,78.3z"
   class="st5" />
	<path
   id="path32"
   d="M201.5,83.1v8.6c0,1,0.2,1.7,0.6,2.1s1,0.6,1.9,0.6c0,0,0.1,0,0.2,0s0.2,0,0.4,0v1.1h-11.4v-1.1   c0.1,0,0.3,0,0.5,0.1c0.9,0,1.5-0.2,2-0.6c0.4-0.4,0.7-1.1,0.7-2.1V73.5c0-1.7-0.9-2.6-2.7-2.6h-0.5v-1.1h11.4v1.1H204   c-0.9,0-1.5,0.2-1.9,0.6s-0.6,1.1-0.6,2v7.4h9.6v-7.4c0-1-0.2-1.6-0.7-2c-0.4-0.4-1.1-0.6-2-0.6H208v-1.1h11.4v1.1h-0.5   c-0.9,0-1.5,0.2-2,0.6c-0.4,0.4-0.7,1.1-0.7,2v18.2c0,1,0.2,1.7,0.6,2.1s1.1,0.6,1.9,0.6c0,0,0.1,0,0.2,0c0.1,0,0.2,0,0.4,0v1.1   H208v-1.1c0.2,0,0.3,0,0.5,0.1c0.9,0,1.5-0.2,1.9-0.6c0.4-0.4,0.6-1.1,0.6-2.1v-8.6H201.5z"
   class="st5" />
	<path
   id="path34"
   d="M227.8,81.5h4.1c0.8,0,1.5-0.3,1.9-1c0.4-0.7,0.7-1.5,0.7-2.4v-0.7h1.1v10.4h-1.1v-1c0-0.9-0.2-1.7-0.7-2.4   s-1.1-1-1.8-1h-4.1v9.5h5.3c3.1,0,5.3-1.9,6.6-5.8h0.9l-1.2,8.1h-20.1v-0.9c0.2,0,0.3,0,0.4,0.1c0.9,0,1.6-0.3,2.1-0.8   c0.5-0.5,0.7-1.4,0.7-2.4V73.8c0-2.1-1-3.1-2.9-3.1h-0.4v-1h19.2l0.6,9h-0.9c-0.1-1.6-0.6-3-1.3-4.5c-0.7-1.4-2-2.1-3.8-2.1h-5.2   V81.5z"
   class="st5" />
	<path
   id="path36"
   d="M261.2,89.5l1.1,1.3c-1.6,1.9-3.1,3.2-4.6,4s-3.1,1.1-4.9,1.1h-0.3c-2.3,0-4.3-0.6-6.1-1.7   c-1.8-1.1-3.2-2.6-4.3-4.6s-1.6-4.2-1.6-6.7c0,0,0-0.1,0-0.1c0-0.1,0-0.1,0-0.2c0-2.6,0.5-4.9,1.6-6.9c1.1-2,2.5-3.6,4.3-4.7   s3.9-1.7,6.1-1.7h0.4c1.1,0,2.4,0.2,4,0.7c0.5,0.2,0.9,0.5,1.5,0.9c0.2,0.1,0.4,0.1,0.6,0.1l0.1,0.1c0.2,0,0.3-0.1,0.5-0.4   s0.2-0.6,0.2-1v-0.6h1.3l0.5,10.1h-1.2c-0.1-1.4-0.4-2.7-0.9-3.9c-0.5-1.2-1.3-2.2-2.3-3c-1-0.8-2.2-1.2-3.6-1.2H253   c-1.6,0.1-2.9,0.7-3.9,1.9s-1.8,2.6-2.3,4.4c-0.5,1.8-0.7,3.6-0.7,5.5c0,2.4,0.3,4.5,1,6.1s1.6,2.8,2.6,3.6   c1.1,0.8,2.2,1.2,3.4,1.3c0.1,0,0.1,0,0.2,0s0.2,0,0.2,0c1.4,0,2.7-0.4,3.9-1.2C258.6,92,259.9,90.9,261.2,89.5z"
   class="st5" />
	<path
   id="path38"
   d="M287.9,93.4V73.5c0-1-0.2-1.6-0.6-2c-0.4-0.4-1.1-0.6-2-0.6h-0.5v-1.1h11.4v1.1h-0.6c-0.9,0-1.5,0.2-1.9,0.6   c-0.4,0.4-0.6,1.1-0.6,2v17.1c0,0,0,0.1,0,0.2c0,0.1,0,0.2,0,0.2c0,1.1,0.2,1.9,0.6,2.6c0.4,0.7,1.3,1,2.6,1c0,0,0.1,0,0.2,0   c0.1,0,0.2,0,0.3,0l0.5,8.3H296c0-1.1-0.2-2.2-0.6-3.3c-0.4-1.1-1.1-2-2.2-2.9s-2.5-1.3-4.4-1.3h-18v-1.1c0.1,0,0.3,0,0.5,0.1   c0.9,0,1.5-0.2,1.9-0.6s0.6-1.1,0.6-2.1V73.5c0-1-0.2-1.6-0.7-2c-0.4-0.4-1.1-0.6-2-0.6h-0.5v-1.1H282v1.1h-0.5   c-0.9,0-1.5,0.2-1.9,0.6s-0.6,1.1-0.6,2v19.8H287.9z"
   class="st5" />
	<path
   id="path40"
   d="M305.5,81.5h4.1c0.8,0,1.5-0.3,1.9-1c0.4-0.7,0.7-1.5,0.7-2.4v-0.7h1.1v10.4h-1.1v-1c0-0.9-0.2-1.7-0.7-2.4   s-1.1-1-1.8-1h-4.1v9.5h5.3c3.1,0,5.3-1.9,6.6-5.8h0.9l-1.2,8.1H297v-0.9c0.2,0,0.3,0,0.4,0.1c0.9,0,1.6-0.3,2.1-0.8   c0.5-0.5,0.7-1.4,0.7-2.4V73.8c0-2.1-1-3.1-2.9-3.1H297v-1h19.2l0.6,9h-0.9c-0.1-1.6-0.6-3-1.3-4.5c-0.7-1.4-2-2.1-3.8-2.1h-5.2   V81.5z"
   class="st5" />
	<path
   id="path42"
   d="M326.4,83.1v8.6c0,1,0.2,1.7,0.6,2.1s1,0.6,1.9,0.6c0,0,0.1,0,0.2,0s0.2,0,0.4,0v1.1h-11.4v-1.1   c0.1,0,0.3,0,0.5,0.1c0.9,0,1.5-0.2,2-0.6c0.4-0.4,0.7-1.1,0.7-2.1V73.5c0-1.7-0.9-2.6-2.7-2.6h-0.5v-1.1h11.4v1.1H329   c-0.9,0-1.5,0.2-1.9,0.6s-0.6,1.1-0.6,2v7.4h9.6v-7.4c0-1-0.2-1.6-0.7-2c-0.4-0.4-1.1-0.6-2-0.6H333v-1.1h11.4v1.1h-0.5   c-0.9,0-1.5,0.2-2,0.6c-0.4,0.4-0.7,1.1-0.7,2v18.2c0,1,0.2,1.7,0.6,2.1s1.1,0.6,1.9,0.6c0,0,0.1,0,0.2,0c0.1,0,0.2,0,0.4,0v1.1   H333v-1.1c0.2,0,0.3,0,0.5,0.1c0.9,0,1.5-0.2,1.9-0.6c0.4-0.4,0.6-1.1,0.6-2.1v-8.6H326.4z"
   class="st5" />
	<path
   id="path44"
   d="M352.9,72h-2.2c-3.5,0-5.3,2.4-5.4,7.2h-1.1l0.8-9.4h21l0.8,9.4h-1.1c-0.1-4.8-1.8-7.2-5.1-7.2h-2.5v19.7   c0,1,0.2,1.7,0.6,2.1c0.4,0.4,1.1,0.6,1.9,0.6c0,0,0.1,0,0.2,0s0.3,0,0.4,0v1.1h-11.4v-1.1c0.1,0,0.3,0,0.5,0.1   c0.9,0,1.5-0.2,1.9-0.6c0.4-0.4,0.6-1.1,0.6-2.1V72z"
   class="st5" />
	<path
   id="path46"
   d="M370,91.4V73.8c0-2.1-1-3.1-2.9-3.1h-0.4v-1h11.8c1.2,0,2.5,0.1,3.7,0.4c1.2,0.3,2.3,1,3.3,2   c1,1.1,1.5,2.6,1.5,4.7v1c-0.1,1.4-0.5,2.7-1.2,3.9c-0.7,1.2-1.7,2.1-2.9,2.8c-1.3,0.7-2.8,1.1-4.6,1.1c-0.4,0-0.8-0.1-1.2-0.1   s-0.7-0.1-1.1-0.1c-0.4,0-0.7-0.1-0.9-0.1v6c0,2.2,0.9,3.2,2.8,3.2c0.1-0.1,0.3-0.1,0.5-0.1v0.9h-11.6v-0.9c0.2,0,0.3,0,0.3,0   c0.1,0,0.1,0,0.1,0C369,94.6,370,93.5,370,91.4z M375.1,83.4c0.8,0.1,1.2,0.2,1.4,0.2c0.8,0,1.6-0.2,2.4-0.6c0.8-0.4,1.4-1,1.9-1.9   c0.5-0.9,0.8-2.1,0.8-3.7c0-1.9-0.4-3.4-1.3-4.3c-0.8-0.9-1.9-1.3-3.1-1.3c-0.8,0-1.5,0.1-2.1,0.4L375.1,83.4z"
   class="st5" />
</g>
<rect
   y="81.494576"
   x="262.26889"
   height="2.1645916"
   width="6.6887426"
   id="rect55"
   style="fill:#502a20;fill-opacity:1;stroke-width:0.755704" /></svg>
