<?xml version="1.0" encoding="utf-8"?>
<!-- Generator: Adobe Illustrator 24.1.1, SVG Export Plug-In . SVG Version: 6.00 Build 0)  -->
<svg version="1.1" id="Layer_1" xmlns="http://www.w3.org/2000/svg" xmlns:xlink="http://www.w3.org/1999/xlink" x="0px" y="0px"
	 viewBox="0 0 196.9 138.2" style="enable-background:new 0 0 196.9 138.2;" xml:space="preserve">
<style type="text/css">
	.st0{fill:#F6CA72;}
	.st1{fill:none;}
	.st2{fill:#FFFFFF;}
	.st3{fill:#E03211;}
	.st4{fill-rule:evenodd;clip-rule:evenodd;fill:#3C0000;}
</style>
<g>
	<g>
		<g>
			<g>
				<path class="st0" d="M58.5,110.5l-0.1-0.2l-0.2,0c-2.2-0.1-3.8-0.2-6.8,0.3c-3.2,0.5-4.8,1.3-5.3,1.5c-0.7,0.3-1.4,0.7-2,1.4
					l0,0c-0.3,0.4-0.3,0.9-0.1,1.3c0.2,0.4,0.5,0.8,1.1,0.9c0.4,0.1,0.8,0.2,1.4,0.2c1.2,0,2.8-0.3,4.7-0.7c4-1.1,6.9-1.4,8.2-0.9
					l0.7,0.3l-0.3-0.7C59.5,113.2,58.5,110.6,58.5,110.5z"/>
				<path class="st0" d="M152.9,113.5L152.9,113.5c-0.6-0.8-1.3-1.2-2-1.5c-0.5-0.2-2.1-1-5.3-1.5c-3-0.5-4.6-0.4-6.8-0.3l-0.2,0
					l-0.1,0.2c0,0.1-1,2.6-1.2,3.3l-0.3,0.7l0.7-0.3c1.3-0.5,4.2-0.1,8.2,0.9c1.9,0.5,3.5,0.7,4.7,0.7c0.6,0,1-0.1,1.4-0.2
					c0.5-0.2,0.9-0.5,1.1-0.9C153.2,114.4,153.2,113.9,152.9,113.5z"/>
			</g>
			<g>
				<path class="st0" d="M154.5,112.5c0.1-1.1,0.3-2.1,0.4-3.2c0.4-3,1.5-9.8,1.4-12.6c-0.1-1.1-0.7-1.8-1.5-2.4
					c-0.4-0.5-1-0.9-1.6-1.2c-1.5-0.8-3.2-1.1-4.8-1.3c-1.5-0.2-3-0.3-4.5-0.3c-1.8,0-3.6,0.2-5.4,0.3c-2.7,0.2-5.4,0.9-8.1,1.4
					c-2.9,0.6-5.7,1.3-8.6,2c-11.7,2.9-16.3,3.4-23.2,3.5l0,0c0,0,0,0,0,0s0,0,0,0l0,0c-6.8,0-11.5-0.6-23.2-3.5
					c-2.9-0.7-5.7-1.4-8.6-2c-2.7-0.6-5.4-1.2-8.1-1.4c-1.8-0.1-3.6-0.3-5.4-0.3c-1.5,0-3,0.1-4.5,0.3c-1.7,0.2-3.3,0.5-4.8,1.3
					c-0.6,0.3-1.2,0.7-1.6,1.2c-0.8,0.6-1.4,1.3-1.5,2.4c-0.2,2.7,0.9,9.6,1.4,12.6c0.2,1.1,0.3,2.1,0.4,3.2
					c3.9-3.4,11.7-3.5,14.2-3.3c2.6,0.2,5.7,0.9,8.3,1.6c3,0.7,5.6,1.5,8.5,2.2c2.9,0.6,13.3,3.4,25,3.4c11.6,0,22-2.7,25-3.4
					c3-0.7,5.6-1.4,8.5-2.2c2.6-0.6,5.6-1.4,8.3-1.6C142.8,109,150.5,109.1,154.5,112.5z"/>
				<path class="st0" d="M56.9,115.1c-1.5,0.1-2.8,0.5-4.1,0.8c-1.2,0.3-2.4,0.6-3.7,0.8c-0.2,0-0.3,0-0.5,0.1
					c-1.3,0.2-2.5,0.3-4.1-0.1c-1.2-0.3-1.8-0.8-2.2-1.9c-0.3-1.5-0.7-3.7-1.1-5.9c-0.3-1.7-0.6-3.5-0.9-5l0-0.2l-0.2,0
					c-1.5-0.2-3.2-0.5-4.7-0.8l-0.1,0c-3.4-0.7-9-2.1-10.9-3.1l-0.7-0.4l0.3,0.7c1.4,3.9,4.8,7.8,6.7,9.5c-0.8,0.6-1.8,1.2-2.7,1.9
					c-0.6,0.4-1.3,0.9-1.8,1.3c-0.8,0.6-1.7,1.2-2.5,1.8l-1.7,1.1l0.6,0.2c2.5,0.8,6,1.6,9,2.3c1.2,0.3,2.3,0.5,3.4,0.8
					c2.3,0.6,8.8,1.6,14.9,1.6c2.6,0,5-0.2,7.1-0.7c1.2-0.2,2.4-0.6,3-1.8c0.2-0.5,0.3-1.3-0.1-2C59.5,115.6,58.7,115,56.9,115.1z"
					/>
				<path class="st0" d="M172.9,114.5c-0.9-0.6-1.7-1.2-2.5-1.8c-0.6-0.4-1.2-0.8-1.8-1.3c-0.9-0.6-1.9-1.3-2.7-1.9
					c1.7-1.6,5.1-5.1,6.6-9.2l0.3-0.7l-0.7,0.4c-1.8,1-7.2,2.4-10.3,2.9c-0.5,0.1-1.1,0.2-1.7,0.2c-1,0.2-2.1,0.3-3.1,0.4l-0.2,0
					l0,0.2c-0.3,1.5-0.6,3.3-0.9,5c-0.4,2.3-0.7,4.4-1.1,5.9c-0.4,1.1-1,1.6-2.2,1.9c-1.6,0.4-2.8,0.2-4.1,0.1c-0.2,0-0.3,0-0.5-0.1
					c-1.3-0.1-2.5-0.5-3.7-0.8c-1.3-0.3-2.7-0.7-4.1-0.8c-1.8-0.2-2.6,0.4-2.9,0.9c-0.4,0.6-0.4,1.5-0.1,2c0.6,1.3,1.8,1.6,3,1.8
					c2.1,0.5,4.6,0.7,7.1,0.7c6.1,0,12.6-1,14.9-1.6c0.6-0.1,1.2-0.3,1.9-0.5c3.3-0.8,7.1-1.7,10-2.6l0.6-0.2L172.9,114.5z"/>
			</g>
			<path class="st0" d="M31.1,90.8c0,0,0-0.1-0.1-0.1l-0.1-0.1l0,0C31,90.6,31.1,90.7,31.1,90.8C31.1,90.7,31.1,90.8,31.1,90.8z"/>
			<path class="st0" d="M37.3,90.1l0.5,0.3C37.6,90.3,37.4,90.3,37.3,90.1C37.3,90.2,37.3,90.2,37.3,90.1z"/>
			<path class="st0" d="M61.1,87.7c0,0.1,0,0.2,0.1,0.3L61,87.8L61.1,87.7C61.1,87.7,61.1,87.7,61.1,87.7z"/>
			<path class="st0" d="M39.3,92.5l0.1-0.1l0,0.1C39.4,92.5,39.4,92.5,39.3,92.5z"/>
			<path class="st0" d="M67.6,119.2l-0.8,0.4c0,0,0,0,0,0c0,0-0.1,0-0.2,0.1c-0.1-0.7-0.5-1-0.7-1.2c0.3,0.2,0.6,0.3,0.8,0.5
				c0.2,0.1,0.4,0.2,0.8,0.2C67.4,119.2,67.5,119.2,67.6,119.2L67.6,119.2z"/>
			<path class="st0" d="M63.5,125.2c0,0,0.1-0.1,0.1-0.1c0,0.1,0.1,0.1,0.1,0.2l0.1,0.2c0.1,0.1,0.1,0.2,0.2,0.4c0,0-0.1,0-0.1,0
				c0,0-0.1,0-0.1,0l-0.9,0l-0.1-0.2C63.1,125.6,63.3,125.4,63.5,125.2z"/>
			<path class="st0" d="M69,118.6L69,118.6l-0.7,0.2c0,0,0.1-0.1,0.1-0.1c0.2-0.2,0.3-0.4,0.4-0.5C68.9,118.3,68.9,118.4,69,118.6z"
				/>
			<path class="st0" d="M58.5,122.2c0.1,0.2,0.2,0.3,0.3,0.5l-0.3-0.1L58.5,122.2z"/>
			<path class="st0" d="M133.2,125.8c-0.1,0-0.1,0-0.1,0c0.1-0.1,0.1-0.2,0.2-0.4l0.1-0.2c0-0.1,0.1-0.1,0.1-0.2
				c0,0,0.1,0.1,0.1,0.1c0.2,0.2,0.4,0.4,0.8,0.5l-0.1,0.2l-0.9,0C133.3,125.8,133.3,125.8,133.2,125.8z"/>
			<path class="st0" d="M138.3,122.7c0.1-0.2,0.2-0.3,0.3-0.5l0.1,0.4L138.3,122.7z"/>
			<path class="st0" d="M182.3,87.8L182.3,87.8L182.3,87.8z"/>
			<path class="st0" d="M165.9,90.7c0.1,0,0.2-0.1,0.2-0.1l0,0l-0.1,0.1C166,90.7,166,90.8,165.9,90.7
				C165.9,90.8,165.9,90.7,165.9,90.7z"/>
			<path class="st0" d="M159.7,90.1C159.8,90.2,159.8,90.2,159.7,90.1c-0.1,0.2-0.3,0.2-0.5,0.3L159.7,90.1z"/>
			<path class="st0" d="M136,87.8l-0.2,0.2c0-0.1,0-0.2,0.1-0.3c0,0,0,0,0,0L136,87.8z"/>
			<path class="st0" d="M157.7,92.5c0,0-0.1,0-0.1,0l0-0.1L157.7,92.5z"/>
			<g>
				<path class="st0" d="M93.9,124.7c0-0.3-0.1-0.7-0.5-1.1c-0.1-0.1-0.2-0.2-0.3-0.2c-0.1-0.1-0.2-0.1-0.2-0.2
					c-0.3-0.2-0.5-0.5-0.8-0.7h0c0.2-0.1,0.8-0.4,0.9-1c0.1-0.6-0.4-1.1-0.6-1.3c-0.1-0.1-0.2-0.2-0.3-0.3c0.3-0.2,0.5-0.6,0.5-1.1
					c0-0.3-0.1-0.8-0.7-1.3c-0.1-0.1-0.2-0.2-0.3-0.2c-0.8-0.6,0.3-0.8-0.7-1.1c-1.1-0.3-3-0.4-5.1-0.8c-0.5-0.1-1.3-0.2-1.7-0.2
					l-1.7-0.5l-0.9-0.1l1.3,2.7c0,0,0,0.1,0,0.1l-0.3,1.8c0,0.1,0,0.1,0,0.1c0,0,0,0,0,0c-0.1-1.3-0.2-2.6-0.5-3.9
					c-0.1-0.5-0.5-1-1-1.1c-0.8-0.2-1.6-0.3-2.4-0.4l-2-0.3c-0.1-0.1-0.2-0.1-0.3-0.1c-0.6-0.1-1.1-0.3-1.7-0.4
					c-0.2,0-0.4-0.1-0.5-0.1l-0.8-0.2l-1.5,0.2l0,0c-0.2,0.4-0.4,0.8-0.6,1.1c-0.1,0.2,0.8-1.4,0.6-1.1c0.2-0.5-0.7,0.8-0.6,0.3
					l0.2-0.9l-0.9-0.2c-0.9-0.2-3.1-0.7-3.2-0.7l-1.3-0.3v0l-0.2-0.1c-0.5-0.1-2.9-0.7-4.2-1l-1.5-0.4l0.4,1.5
					c0.3,1.2,0.8,2.3,1.4,3.3l-0.3,1.8c-0.1,0.8-0.2,1.4-0.3,2.1l-0.5,0.9c-0.3,0.4-0.5,0.8-1.6,1.2l-0.6,0.2l-4.5,0.6l0.1,0.9
					c0.3,1.9,0.8,3.7,1.9,5.6l0.3,0.6l1,0.6c0,0,0.6,0.2,0.6,0.2c0.5,0.9,0.8,1.3,1.4,2.3c0.3,0.4,0.6,0.7,0.9,1
					c0.1,0.1,0.3,0.3,0.4,0.4l0.9,0.5l0.6-0.5c0.3,0.6,0.6,1.1,1.1,1.5c0.1,0.1,0.2,0.2,0.3,0.3c0.6,0.6,1.2,0.3,2,0.8l0.6,0.3
					l0.7,0.1c0.1,0.4,0.3,0.6,0.5,0.8c0.9,1,1.9,0.2,3,0.7c0.1,0.1,0.2,0.1,0.4,0.2c0.2,0.1,0.4,0.1,0.6,0.1c0.4,0,0.8-0.2,1-0.4
					c0.1-0.1,0.2-0.3,0.4-0.4c0.5-0.5,1.6-0.4,2-1c0-0.1,0.1-0.1,0.1-0.2c0.4-0.6,0.4-0.8,0.2-1.7c0,0,0,0,0,0l0.6,0.7l0.9-0.8
					c0-0.1,0.1-0.1,0.1-0.2c0.1-0.2,0.3-0.4,0.4-0.6c0.2-0.6,0.4-1.1,0.6-1.7c0.2-0.6,0.7,0.1,0.9-0.5c0-0.1,0.2-0.5,0.2-0.6l0,0
					l0.9-1.5c0.7-1.2,1.1-2.7,1.4-4.6c0-0.2,0.1-0.5,0.1-0.7l0.2,0.2l0.8-1.2l0,0c0.1-0.1,0.2-0.3,0.2-0.5c0,0.3,0,0.7-0.1,1
					c0,0.4-0.2,0.9-0.3,1.3c-0.5,0.1-0.9,0.5-1.1,1.1l-0.2,0.6c-0.3,0.8-0.5,1.7-0.9,2.5c-0.5,1.3-0.2,2.2,1.2,2.7l0.9,0.4l0.6-1.6
					c0.1,0.1,0.1,0.1,0.2,0.2c0.7,0.8,1.5,1.6,2.6,2.1l1.1,0.5l0.2-1.2c0,0,0-0.1,0-0.1c0,0,0,0,0-0.1c0.5,0.2,1.1,0.3,1.7,0.5
					c0.3,0.1,0.6,0.2,1,0.3l1.4,0.4l-0.2-1.5c0-0.2-0.1-0.4-0.1-0.6c0-0.3-0.1-0.5-0.1-0.8c1.6-0.2,3.1-0.7,4.5-1.5l1.1-0.7
					l-2.5-2.1C93.8,125.4,93.9,125,93.9,124.7z"/>
				<path class="st0" d="M138.2,120.6c-1.2-0.4-1.4-0.8-1.6-1.2l-0.5-0.9c-0.1-0.7-0.1-1.3-0.3-2.1l-0.3-1.8c0.6-1,1.1-2.2,1.4-3.3
					l0.4-1.5l-1.5,0.4c-1.3,0.3-3.7,0.9-4.2,1l-0.2,0.1v0l-1.3,0.3c-0.1,0-2.3,0.5-3.2,0.7l-0.9,0.2l0.2,0.9c0.1,0.5,0.2,1,0.4,1.6
					c-0.1-0.2-0.2-0.4-0.4-0.7c-0.2-0.4-0.4-0.8-0.6-1.1l0.2-0.4l-1.7,0.2l-0.8,0.2c-0.2,0-0.4,0.1-0.5,0.1
					c-0.6,0.1-1.1,0.2-1.7,0.4c-0.1,0-0.2,0.1-0.3,0.1l-2,0.3c-0.8,0.1-1.6,0.3-2.4,0.4c-0.6,0.1-1,0.7-1,1.1
					c-0.2,1.3-0.4,2.6-0.5,3.9c0,0,0,0,0,0c0,0,0-0.1,0-0.1l-0.3-1.8c0,0,0-0.1,0-0.1l1.2-2.7l-0.9,0l-1.8,0.3
					c-0.5,0.1-1,0.1-1.4,0.2c-1.1,0.1-2.3,0.3-3.4,0.6c-1,0.3-1.9,1-2.7,1.5c-0.1,0.1-0.2,0.2-0.3,0.2c-0.6,0.5-0.7,1-0.7,1.3
					c0,0.5,0.3,0.8,0.5,1.1c-0.1,0.1-0.2,0.2-0.3,0.3c-0.2,0.2-0.7,0.6-0.6,1.3c0.1,0.6,0.7,0.9,0.9,1h0c-0.3,0.2-0.5,0.5-0.8,0.7
					c-0.1,0.1-0.1,0.1-0.2,0.2c-0.1,0.1-0.2,0.1-0.3,0.2c-0.5,0.4-0.6,0.8-0.5,1.1c0,0.3,0.1,0.6,0.5,1l-2.5,2.1l1.1,0.7
					c1.4,0.8,2.9,1.3,4.5,1.5c0,0.3-0.1,0.5-0.1,0.8c0,0.2-0.1,0.4-0.1,0.6l-0.2,1.5l1.4-0.4c0.3-0.1,0.7-0.2,1-0.3
					c0.6-0.2,1.1-0.3,1.7-0.5c0,0,0,0,0,0.1c0,0,0,0.1,0,0.1l0.2,1.2l1.1-0.5c1.1-0.5,1.9-1.3,2.6-2.1c0.1-0.1,0.1-0.1,0.2-0.2
					l0.6,1.6l0.9-0.4c1.3-0.6,1.7-1.4,1.2-2.7c-0.3-0.8-0.6-1.7-0.9-2.5l-0.2-0.6c-0.2-0.6-0.6-1-1.1-1.1c-0.1-0.5-0.3-0.9-0.3-1.3
					c0-0.3,0-0.7-0.1-1c0,0.3,0.2,0.5,0.2,0.5l0.8,1.2l0.2-0.3c0,0.2,0,0.4,0.1,0.7c0.3,1.9,0.7,3.4,1.4,4.6l0.9,1.5l0.4-0.9
					c0,0.1,0.1,0.2,0.1,0.3c0.2,0.6,0.4,1.2,0.6,1.7c0.2,0.6,0.4,1.1,0.6,1.7c0.1,0.3,0.2,0.5,0.4,0.6c0,0.1,0.1,0.1,0.1,0.2
					l0.7,1.1l0.8-0.9c0,0,0,0,0,0c-0.1,1-0.2,1.3,0.2,1.9c0,0.1,0.1,0.1,0.1,0.2c0.4,0.7,1.8,0.3,2.3,0.8c0.1,0.1,0.3,0.3,0.4,0.4
					c0.2,0.3,0.7,0.4,1,0.4c0.2,0,0.4,0,0.6-0.1c0.1-0.1,0.2-0.1,0.4-0.2c1.1-0.6,1.8,0.3,2.7-0.7c0.2-0.2,0.4-0.5,0.5-0.8l1.1-0.2
					l1.5-0.8c0.8-0.5,0.2,0.3,0.7-0.3c0.1-0.1,0.2-0.2,0.3-0.3c0.5-0.5,0.8-1,1.1-1.5l0.5,0.6l1.1-0.6c0.1-0.2,0.3-0.3,0.4-0.4
					c0.3-0.3,0.6-0.6,0.9-1c0.6-1,1.2-2,1.8-2.9c0,0,0-0.1,0-0.1l1,0.1l0.6-0.8c1-1.9,2.3-3.3,2.6-5.3l-0.2-1.2l-5-0.7L138.2,120.6z
					"/>
				<path class="st0" d="M61.7,92.2c0.1,0,0.2,0,0.4,0c0.1,0,0.2,0,0.3,0l1.8,0.2c0.1,0.1,0.3,0.2,0.5,0.2c0.5,0.1,1,0.2,1.6,0.3
					c0.2,0,0.4,0.1,0.6,0.1l1.1,0.2l0-0.5c0.2,0.3,0.5,0.6,1.1,0.7c1.3,0.3,2.5,0.6,3.8,0.9c1.9,0.5,3.9,0.9,5.9,1.4l0.6-1.8
					c-3.7-1.6-7.2-3.7-10.4-6.1l-2-1.5l0.1,0.4c0,0,0,0,0-0.1c-0.1-0.1-0.1-0.2-0.2-0.4l-0.1-0.3L66.5,86c-0.8-0.7-1.6-1.5-2.3-2.2
					c-0.7-0.7-1.3-1.4-2-2.1l-0.2-0.3l0-0.1c-2.3-2.6-4.2-5.4-5.9-8.4l-0.3-5.1L55,71c-0.5-1-0.9-1.9-1.3-2.9l-1.3-2.4l0.3-0.1
					l-0.3-0.9c-0.7-2.2-1.3-4.4-1.7-6.6l2.6-1.2l-2.8,0c-0.4-2.4-0.6-4.9-0.6-7.4c0-2.6,0.2-5.3,0.6-7.9l0-0.3L50.5,41
					c-0.3-0.6-0.7-1.5-1.7-2.5l-0.8-0.8l-0.7,0.9c-0.5,0.6-0.9,1.2-1.4,2c-0.3-0.1-0.6-0.2-0.8-0.2l-1-0.3L44,41
					c-0.1,0.5-0.1,1-0.2,1.4c-0.1,0-0.1,0-0.2-0.1L42.6,42l-0.2,1.1c-0.2,1.5-0.3,2.8-0.1,4c-0.4-0.8-0.8-1.7-1.3-2.5
					c-0.3-0.5-0.7-1.1-1.1-1.6c-0.2-0.3-0.4-0.6-0.6-0.9L38.5,41l-1,1.6c-0.4-0.7-1-1.5-1.9-2.2l-0.8-0.7l-0.6,0.8
					c-0.1,0.2-0.2,0.3-0.3,0.5c-0.7-0.8-1.6-1.5-2.5-2.1l-0.9-0.6l-0.5,1c-0.1,0.1-0.1,0.2-0.1,0.3c-0.7-0.6-1.4-1.2-2.3-1.8
					L26.4,37l-0.1,0.6l-0.1-0.2l0.1,0.3l-0.1,0.7c-0.2,1.3-0.4,2.3-0.4,3.3c-0.2,0-0.3,0-0.5,0l-1.1-0.1l0.1,1.1
					c0.1,1.1,0.4,2.3,0.7,3.3l-1.7,0.4l0.4,1c0.4,0.9,0.8,1.8,1.3,2.6c0.1,0.1,0.2,0.3,0.2,0.4l-1.3,0.7l0.2,0.3
					c-0.1-0.2-0.3-0.3-0.4-0.4L23.5,51l-0.3-0.1c-1.4-0.2-2.4-0.4-3.2-0.5l-0.2,0c-1.5-0.1-3-0.2-4.4-0.1l-0.9,0.1l0,0.9
					c0,0.2,0,0.4,0.2,0.6c-0.3,0-0.7,0-1.1,0c-0.9,0.1-1.6,0.3-2.4,0.5l-0.2,0.1c-0.4,0.1-0.8,0.3-1.2,0.5c-0.1,0.1-0.3,0.1-0.4,0.2
					l-2,0.8l1.3,0.6c-0.1,0-0.2,0-0.3,0.1C8,54.6,7.6,54.8,7,55c-0.6,0.2-1.2,0.5-1.7,0.8c-0.2,0.1-0.5,0.2-0.7,0.3L5.1,55L4,57.4
					l-0.2,0l0.3,0l0.1,0.1c-0.4,0.1-0.8,0.2-1,0.3c-1.4,0.6-1.7,1.7-2.6,2.6c-0.4,0.4-0.5,1-0.3,1.6c0.7,1.6,1.2,2.5,2.4,3.6
					c0,0,0,0,0,0l-0.3,0.6l0.3,0.9c0,0.1,0.1,0.2,0.2,0.3c0.9,1.3,1.6,1.8,2.8,2.6c0,0,0,0,0,0l-1.2,0.1L6,71.8
					c1,1.1,2.2,1.9,3.4,2.6c0.2,0.2,0.5,0.3,0.7,0.4L8.9,75l2,1.3c1.7,1,3.6,1.5,5.6,1.9c0,0,0,0,0,0l-1,0.9l1.2,0.6
					c1,0.5,2.1,0.7,3,0.7c0.5,0,0.9,0,1.3-0.1l-1.4,1l1.3,0.5c-1.6,0.9-2.6,2.2-3.4,3.3L16.9,86l0.8,0.4c-0.1,0.1-0.1,0.1-0.2,0.2
					c-0.5,0.4-0.9,0.9-1.4,1.4c0,0,0,0,0,0l0.2-0.3c0.1-0.3,0.2-0.6,0-0.8l-0.9,0.3l0.5-0.3c0.4,0,0.3-0.3,0.4,0
					c0-0.1-0.1-0.1-0.1-0.2l0.3-0.2l-1.4,1.9c0,0,0,0.2,0,0.2c-0.1-0.3,0.3-0.3,0.4-0.6l-0.1-0.7l-0.1,1.2c0.2,0.3-0.2-0.3,0.1-0.3
					l0.5,0c-0.3,0.3-0.5,0.7-0.7,1c-0.1,0.2-0.2,0.3-0.3,0.5l-0.4,0.1l0.7,1.3c-0.2,0.2-0.4,0.4-0.6,0.7c-0.8,1.1,0.1,2.4-0.2,3.4
					c-0.2,0.5,0,1.1,0.5,1.5c1,0.7,0.8,1.4,2.4,1.7c0.2,0,0.3,0,0.5,0.1l-0.5,0.6l1.4,0.5c1.1,0.7,2.3,1.1,3.9,1.1l1.1,0l-0.2-1.1
					c0-0.2-0.1-0.5-0.1-0.8c0.1,0,0.2,0.1,0.4,0.1c0.3,0.1,0.6,0.3,0.9,0.4l-0.2,0.2l1.8,0.6c0.3,0.1,0.6,0.2,0.9,0.3
					c0.9,0.3,1.7,0.5,2.5,0.8c0.1,0,0.1,0,0.2,0l-0.1,0.1l2.4,0.6c0.7,0.2,1.3,0.3,2,0.5c0.1,0,0.3,0,0.4,0c0.2,0,0.3,0,0.5-0.1
					l0,0.1l0.9,0.2l1.9,0.3l1.6,0.2c0.1,0,0.3,0,0.4,0l1.2,0.1l-0.2-1.2c-0.2-1.2-0.2-1.7-0.3-2.3c0-0.2,0-0.4-0.1-0.7l-0.1-1.4
					c0-0.2,0.1-0.4,0.1-0.6c0.1-0.7,0.3-2.1,1.1-2.6l1.8-1.3L42.2,93c0.2,0,0.4,0,0.7-0.1c0.3,0,0.7-0.1,1.3-0.3
					c0.4-0.1,0.9-0.2,1.5-0.3l2.1-0.8l1.7-0.2c1.5-0.2,2.1,0.1,3.7,0.2c0.7,0,1.5,0.1,2.2,0.1C57.6,91.8,59.6,91.9,61.7,92.2z"/>
				<polygon class="st0" points="16.4,86.9 16.4,86.9 16.4,86.9 				"/>
				<path class="st0" d="M180.7,87.7l0.2,0.3c0,0,0,0,0,0c-0.4-0.5-0.9-1-1.4-1.4c-0.1-0.1-0.1-0.1-0.2-0.2l0.8-0.4l-0.6-0.9
					c-0.8-1.1-1.9-2.4-3.4-3.3l1.3-0.5l-1.4-1c0.4,0.1,0.9,0.1,1.3,0.1c1,0,2-0.2,3-0.7l1.2-0.6l-1-0.9c0,0,0,0,0,0
					c1.9-0.4,3.9-0.9,5.6-1.9l2-1.3l-1.2-0.3c0.2-0.1,0.5-0.2,0.7-0.4c1.2-0.8,2.4-1.5,3.4-2.6l1.3-1.4l-1.2-0.1c0,0,0,0,0,0
					c1.2-0.8,1.7-0.7,2.6-2.1c0.1-0.1,0.1-0.3,0.2-0.3l0.3-0.9l-0.1-1.2c0,0,0,0,0,0c1.2-1.1,1.4-2,2.1-3.6c0.3-0.6,0.2-1.2-0.3-1.6
					c-0.9-0.8-0.9-2.1-2.3-2.6c-0.2-0.1-0.5-0.2-1-0.3l0.1-0.1l0.3,0l-0.2,0l-0.5-1.7l0,0.3c-0.2-0.1-0.5-0.2-0.7-0.3
					c-0.6-0.3-1.2-0.5-1.7-0.8c-0.5-0.2-1-0.4-1.4-0.5c-0.1,0-0.2,0-0.3-0.1l1.3-0.6l-2-0.8c-0.1-0.1-0.3-0.1-0.4-0.2
					c-0.4-0.2-0.8-0.3-1.2-0.5l-0.2-0.1c-0.8-0.2-1.5-0.4-2.4-0.5c-0.4,0-0.7,0-1.1,0c0.2-0.2,0.2-0.4,0.2-0.6l0-0.9l-0.9-0.1
					c-1.4-0.1-2.9,0-4.4,0.1l-0.2,0c-0.8,0.1-1.8,0.2-3.2,0.5l-0.3,0.1l-0.2,0.2c-0.1,0.1-0.2,0.2-0.4,0.4l0.2-0.3l-1.3-0.7
					c0.1-0.1,0.2-0.3,0.2-0.4c0.5-0.8,0.9-1.7,1.3-2.6l0.4-1l-1.7-0.4c0.3-1,0.6-2.2,0.7-3.3l0.1-1.1l-1.1,0.1c-0.2,0-0.3,0-0.5,0
					c-0.1-1.1-0.2-2.1-0.4-3.3l-0.1-0.7l0.1-0.3l-0.1,0.2l-0.1-0.6l-1.2,0.8c-0.9,0.6-1.6,1.2-2.3,1.8c0-0.1-0.1-0.2-0.1-0.3l-0.5-1
					l-0.9,0.6c-0.9,0.6-1.8,1.3-2.5,2.1c-0.1-0.2-0.2-0.3-0.3-0.5l-0.6-0.8l-0.8,0.7c-0.9,0.8-1.5,1.5-1.9,2.2l-1-1.6l-0.8,1.2
					c-0.2,0.3-0.4,0.6-0.6,0.9c-0.4,0.6-0.7,1.1-1.1,1.6c-0.5,0.8-0.9,1.6-1.3,2.5c0.1-1.2,0.1-2.6-0.1-4l-0.2-1.1l-1.1,0.4
					c-0.1,0-0.1,0-0.2,0.1c0-0.4-0.1-0.9-0.2-1.4l-0.2-1.1l-1,0.3c-0.2,0.1-0.5,0.1-0.8,0.2c-0.5-0.8-0.9-1.4-1.4-2l-0.7-0.9
					l-0.8,0.8c-0.9,1.1-1.4,2-1.7,2.5l-0.1,0.3l0,0.3c0.4,2.6,0.6,5.3,0.6,7.9c0,2.5-0.2,5-0.6,7.4l-1.2,5.2l1-4
					c-0.4,2.2-1,4.4-1.7,6.6l-0.3,0.9l0.3,0.1l-1.3,2.3l0,0.1c-0.4,1-0.9,2-1.3,2.9l0.8-1.3l-1.8,3.2c-1.7,3-3.6,5.8-5.9,8.4
					l-0.1,0.1l-0.2,0.2c-0.7,0.8-1.3,1.5-2,2.1c-0.7,0.7-1.5,1.5-2.3,2.2l-0.2,0.2l-0.1,0.3c-0.1,0.1-0.1,0.2-0.2,0.4c0,0,0,0,0,0.1
					l0.1-0.4l-2,1.5c-3.2,2.5-6.7,4.5-10.4,6.1l0.6,1.8c2-0.4,4-0.9,5.9-1.4c1.3-0.3,2.6-0.6,3.8-0.9c0.6-0.1,0.9-0.4,1.1-0.7l0,0.5
					l1.1-0.2c0.2,0,0.4-0.1,0.6-0.1c0.5-0.1,1.1-0.2,1.6-0.3h0c0.2,0,0.3-0.1,0.5-0.2l1.8-0.2c0.1,0,0.2,0,0.3,0c0.1,0,0.3,0,0.4,0
					c2.1-0.3,4.1-0.7,6.3-0.8c0.7,0,1.8,0,2.5-0.1c1.6-0.1,2.5,0,4,0.2h1.2l1.9,0.8c0.6,0.1,1.1,0.2,1.5,0.3
					c0.6,0.1,1.1,0.2,1.3,0.3c0.2,0,0.4,0,0.7,0.1l-0.9,0.2l1.8,1.3c0.8,0.6,1,1.9,1.1,2.6c0,0.2,0.1,0.4,0.1,0.6l-0.1,1.4
					c0,0.2,0,0.4-0.1,0.7c0,0.5-0.1,1.1-0.3,2.3l-0.2,1.2l1.2-0.1c0.1,0,0.2,0,0.4,0l1-0.1l2.5-0.4l0.9-0.2l0-0.1
					c0.1,0,0.3,0.1,0.5,0.1c0.1,0,0.3,0,0.4,0c0.7-0.2,1.3-0.3,2-0.5l2.4-0.6l-0.1-0.1c0.1,0,0.1,0,0.2,0c0.8-0.2,1.6-0.5,2.5-0.8
					c0.3-0.1,0.6-0.2,0.9-0.3l1.8-0.6l-0.2-0.2c0.3-0.1,0.6-0.3,0.9-0.4c0.1,0,0.2-0.1,0.4-0.1c0,0.3,0,0.6-0.1,0.8l-0.2,1.1l1.1,0
					c1.6,0,3.2-0.4,4.3-1l1-0.6l-0.5-0.6c0.1,0,0.3,0,0.5-0.1c1.5-0.3,1-1.5,2-2.3c0.4-0.3,0.6-0.9,0.5-1.5c-0.3-1,0.9-1.8,0.1-2.9
					c-0.2-0.3-0.4-0.5-0.6-0.7l0-0.5l0.3-0.9c-0.1-0.2-0.2-0.4-0.3-0.5c-0.2-0.3-0.4-0.7-0.7-1"/>
			</g>
		</g>
	</g>
	<path class="st1" d="M167.6,80.1c-0.7,0.4-1.4,0.8-2.2,1.2c-0.5,0.2-1,0.3-1.5,0.5c-0.9,0.3-1.8,0.5-2.7-0.2
		c-0.1-0.1-0.3-0.2-0.4-0.2c-0.7-0.2-1.1-0.6-1-1.4c0,0,0-0.1-0.1-0.2c-1-0.1-2-0.3-3.1-0.4c0.4-0.2,0.7-0.4,0.9-0.5
		c0.3-0.2,0.6-0.2,0.9,0c0.9,0.5,1.9,1,2.8,1.5c0.6,0.3,0.8,0.2,1-0.5c0.1-0.2,0.2-0.4,0.2-0.7c0.9,0.3,1.7,0.7,2.5,0.9
		c0.3,0.1,0.7,0.1,1-0.1C166.6,79.5,166.9,79.5,167.6,80.1z"/>
	<g>
		<path d="M57.1,99.3c0.5-0.4,1.1-0.6,1.8-0.6c0.8,0.1,1.4,0.3,1.7,0.9c0.4,0.5,0.5,1.2,0.5,2c-0.1,0.9-0.3,1.5-0.8,1.9
			s-1.1,0.6-1.8,0.6c-0.8-0.1-1.4-0.3-1.7-0.9c-0.4-0.5-0.5-1.2-0.5-2C56.4,100.4,56.6,99.8,57.1,99.3z M57.8,102.5
			c0.1,0.3,0.4,0.5,0.8,0.5c0.7,0,1.1-0.4,1.1-1.5c0.1-1-0.2-1.6-0.9-1.6c-0.7-0.1-1.1,0.4-1.2,1.5
			C57.6,101.8,57.7,102.2,57.8,102.5z"/>
		<path d="M66,104.9c-0.5,0.2-1,0.3-1.7,0.1c-1.5-0.3-2-1.3-1.6-3.1c0.2-0.8,0.5-1.4,1-1.8c0.5-0.4,1.1-0.5,1.8-0.3
			c0.6,0.1,1.1,0.3,1.4,0.6l-0.5,1c-0.3-0.2-0.6-0.4-0.9-0.4c-0.7-0.2-1.2,0.3-1.4,1.3c-0.1,0.4-0.1,0.8,0.1,1.1
			c0.1,0.3,0.4,0.5,0.8,0.6c0.4,0.1,0.7,0,1-0.1L66,104.9z"/>
		<path d="M70.7,104.2l-1.6-0.4l-0.5,2l-1.3-0.3l1.2-5l1.3,0.3l-0.4,1.9l1.6,0.4l0.4-1.9l1.3,0.3l-1.2,5l-1.3-0.3L70.7,104.2z"/>
		<path d="M74.7,102.6c0.5-0.4,1.2-0.4,1.9-0.3c0.8,0.2,1.3,0.6,1.6,1.1s0.3,1.3,0.1,2.1c-0.2,0.8-0.6,1.4-1.1,1.8
			c-0.5,0.4-1.1,0.4-1.9,0.3c-0.8-0.2-1.3-0.6-1.6-1.1c-0.3-0.6-0.3-1.3-0.1-2.1C73.9,103.6,74.2,103,74.7,102.6z M74.9,105.9
			c0.1,0.3,0.3,0.5,0.7,0.6c0.7,0.2,1.1-0.3,1.4-1.3c0.3-1,0-1.6-0.6-1.8c-0.7-0.2-1.1,0.3-1.4,1.3
			C74.9,105.2,74.9,105.6,74.9,105.9z"/>
		<path d="M80.2,103.4c0.7,0.1,1.3,0.2,1.9,0.3c0.7,0.1,1.2,0.3,1.5,0.6c0.3,0.3,0.4,0.6,0.3,1c-0.1,0.3-0.2,0.5-0.3,0.7
			s-0.4,0.3-0.7,0.3l0,0c0.7,0.3,0.9,0.8,0.8,1.4c-0.1,0.5-0.4,0.8-0.8,1c-0.4,0.2-1.1,0.2-1.9,0c-0.6-0.1-1.2-0.3-1.7-0.4
			L80.2,103.4z M80.7,107.6c0.2,0.1,0.3,0.1,0.6,0.2c0.4,0.1,0.6,0.1,0.8,0c0.2-0.1,0.3-0.2,0.3-0.4c0.1-0.4-0.2-0.7-0.8-0.8
			l-0.7-0.1L80.7,107.6z M81.7,105.8c0.2,0,0.4,0,0.6-0.1c0.2-0.1,0.3-0.2,0.3-0.4c0-0.2,0-0.3-0.1-0.4s-0.3-0.2-0.6-0.3
			c-0.1,0-0.3-0.1-0.6-0.1l-0.2,1.1L81.7,105.8z"/>
		<path d="M85.5,104.7c0.6-0.2,1.3-0.2,2.2-0.1c0.7,0.1,1.1,0.3,1.4,0.6c0.2,0.3,0.3,0.8,0.2,1.4c0,0.2-0.1,0.6-0.2,1
			c-0.1,0.4-0.1,0.8-0.2,1c-0.1,0.6-0.1,1,0,1.4l-1.1-0.1l-0.1-0.7l-0.1,0c-0.4,0.5-0.9,0.7-1.6,0.6c-0.5-0.1-0.8-0.2-1.1-0.6
			s-0.3-0.7-0.3-1.1c0.1-1.1,1.1-1.5,2.8-1.3c0.2,0,0.3,0,0.4,0.1c0-0.1,0-0.2,0.1-0.3c0-0.3,0-0.4-0.1-0.6
			c-0.1-0.1-0.3-0.2-0.6-0.2c-0.6-0.1-1.1-0.1-1.6,0.1L85.5,104.7z M87.7,108.2l0.1-0.7c-0.2,0-0.3-0.1-0.4-0.1
			c-0.8-0.1-1.2,0.1-1.3,0.5c0,0.2,0,0.3,0.1,0.5c0.1,0.1,0.2,0.2,0.4,0.2C87.1,108.7,87.4,108.6,87.7,108.2z"/>
		<path d="M93.6,108.3l-1.7-0.1l-0.1,2l-1.3-0.1l0.3-5.1l1.3,0.1L92,107l1.7,0.1l0.1-1.9l1.3,0.1l-0.3,5.1l-1.3-0.1L93.6,108.3z"/>
		<path d="M100.6,105.4c0.7-0.1,1.4-0.1,1.9-0.2c0.7,0,1.3,0.1,1.6,0.3s0.5,0.5,0.5,1c0,0.3-0.1,0.5-0.2,0.7
			c-0.1,0.2-0.3,0.4-0.6,0.5l0,0c0.7,0.1,1.1,0.5,1.1,1.2c0,0.5-0.2,0.9-0.6,1.2c-0.4,0.3-1,0.4-1.9,0.4c-0.6,0-1.2,0-1.7,0
			L100.6,105.4z M102.7,107.4c0.2,0,0.4-0.1,0.5-0.2s0.2-0.2,0.2-0.4c0-0.2-0.1-0.3-0.2-0.4c-0.1-0.1-0.3-0.1-0.6-0.1
			c-0.1,0-0.3,0-0.6,0.1l0,1.1L102.7,107.4z M102.1,109.4c0.2,0,0.4,0,0.6,0c0.4,0,0.6-0.1,0.8-0.2c0.2-0.1,0.2-0.3,0.2-0.5
			c0-0.4-0.3-0.6-0.9-0.6l-0.7,0L102.1,109.4z"/>
		<path d="M110.2,108.8l1.4-0.2l-0.6-4l0.1-0.7l-0.4,0.7l-0.8,0.7l-0.7-0.7l2-2.2l0.7-0.1l0.8,6.1l1.4-0.2l0.2,1.1l-4,0.6
			L110.2,108.8z"/>
		<path d="M114.5,102.6c0.3-0.5,0.8-0.8,1.6-1c0.8-0.2,1.4,0,1.9,0.3c0.5,0.4,0.9,1,1,1.8c0.1,0.7,0.2,1.4,0.1,2.1s-0.2,1.2-0.5,1.6
			c-0.3,0.4-0.6,0.8-1,1.1s-0.8,0.5-1.3,0.6l-0.5-1c0.7-0.2,1.2-0.6,1.6-1.1s0.5-1,0.5-1.7c-0.1,0.2-0.3,0.4-0.4,0.5
			c-0.2,0.1-0.4,0.2-0.7,0.2l0,0c-0.6,0.1-1.1,0-1.6-0.3c-0.5-0.3-0.8-0.8-0.9-1.5C114,103.7,114.1,103.1,114.5,102.6z M115.9,104.8
			c0.2,0.2,0.5,0.2,0.9,0.1c0.5-0.1,0.8-0.3,1-0.7c0-0.1,0-0.3-0.1-0.4c-0.1-0.4-0.3-0.7-0.5-1s-0.6-0.3-1-0.3
			c-0.3,0.1-0.6,0.2-0.7,0.5c-0.1,0.2-0.2,0.6-0.1,0.9C115.5,104.4,115.7,104.7,115.9,104.8z"/>
		<path d="M120.2,101.6c0.3-0.7,0.8-1.2,1.6-1.4c0.8-0.2,1.5-0.1,2,0.4s1,1.3,1.3,2.6c0.3,1.2,0.3,2.2,0.1,2.9
			c-0.3,0.7-0.8,1.2-1.6,1.4c-1.6,0.4-2.7-0.6-3.3-3C120,103.3,120,102.3,120.2,101.6z M123.3,106.4c0.4-0.1,0.6-0.4,0.7-0.8
			c0.1-0.4,0-1.1-0.2-2c-0.2-0.8-0.5-1.4-0.7-1.8c-0.3-0.4-0.6-0.5-1-0.4c-0.4,0.1-0.6,0.4-0.7,0.8s0,1.1,0.2,2
			C122,105.8,122.6,106.6,123.3,106.4z"/>
		<path d="M126.8,103.6c0.1-0.3,0.4-0.7,0.7-1c-0.8-0.3-1.3-0.8-1.4-1.5c-0.1-0.5,0-1,0.3-1.5s0.8-0.7,1.4-0.9
			c0.6-0.1,1.1-0.1,1.6,0.1s0.7,0.6,0.8,1.1c0.2,0.7,0,1.4-0.6,2c0.5,0.2,0.8,0.3,1.1,0.6c0.3,0.2,0.4,0.6,0.5,1
			c0.1,0.6,0,1.1-0.3,1.6c-0.3,0.5-0.8,0.8-1.5,0.9c-0.7,0.2-1.2,0.1-1.7-0.1c-0.5-0.2-0.8-0.6-0.9-1.2
			C126.7,104.3,126.7,103.9,126.8,103.6z M127.5,101.2c0.1,0.1,0.2,0.2,0.3,0.3c0.1,0.1,0.3,0.1,0.4,0.2c0.1,0,0.3,0.1,0.5,0.1
			c0.3-0.4,0.4-0.8,0.3-1.3c-0.1-0.3-0.2-0.5-0.4-0.6c-0.2-0.1-0.4-0.1-0.6-0.1c-0.3,0.1-0.5,0.2-0.6,0.4c-0.1,0.2-0.1,0.4-0.1,0.6
			C127.4,101,127.5,101.1,127.5,101.2z M129.8,103.4c-0.1-0.1-0.2-0.2-0.4-0.3c-0.2-0.1-0.3-0.1-0.4-0.2l-0.5-0.2
			c-0.5,0.4-0.6,0.9-0.5,1.4c0.1,0.3,0.2,0.5,0.4,0.6c0.2,0.1,0.5,0.2,0.8,0.1c0.3-0.1,0.5-0.2,0.7-0.4c0.1-0.2,0.2-0.4,0.1-0.7
			C129.9,103.7,129.9,103.6,129.8,103.4z"/>
		<path d="M137.9,100.2l-1.9,0.3l0.7,3.9l-1.3,0.2l-0.9-5l3.2-0.6L137.9,100.2z"/>
		<path d="M139,102.8c0.1-0.2,0.3-0.2,0.6-0.3c0.3,0,0.5,0,0.6,0.2s0.3,0.3,0.3,0.5s0,0.4-0.2,0.6c-0.1,0.2-0.3,0.2-0.6,0.3
			c-0.2,0-0.4,0-0.6-0.2c-0.2-0.1-0.3-0.3-0.3-0.6C138.8,103.2,138.8,103,139,102.8z"/>
	</g>
	<g>
		<circle cx="61.8" cy="43" r="1.6"/>
		<circle cx="135.6" cy="43" r="1.6"/>
	</g>
	<path d="M193.2,57c-0.4-3-4-3.9-4.3-4.3c-1.3-1.7-3.3-1.9-4.9-2c-0.6,0-0.7-0.7-2.1-1.2c-1.3-0.4-1.7-0.4-2.9-0.5
		c-0.6,0-1.1,0-1.7,0c-2.3,0.2-2.6,0.6-4.3,1c0.8-1.5,1.3-2.8,1.8-4.3c-0.8-0.2-1.5-0.4-2.2-0.5c0.1-0.3,0.3-1.2,0.5-2.1
		s0.4-1.9,0.4-2.3c-0.5,0-1.2,0-1.8,0.1c-0.2-1.4-0.4-3.3-0.9-4.9c0,0-2.7,1.6-3.6,2.3c-0.3-0.4-0.4-0.8-0.8-1.4
		c-0.5,0.3-3.2,2.5-3.3,2.6c-0.1-0.1-0.3-0.6-0.8-1.1c-0.9,0.7-2.4,2-3,3c-0.2-0.4-0.5-1-0.9-1.3c-1.1,1-3.2,4.5-3.3,4.7
		c-0.1-1-0.2-2.7-0.3-3.6c-0.6,0.1-1.3,0.3-1.4,0.3c-0.1-0.8-0.3-1.9-0.5-2.5c-0.3,0.1-1.2,0.3-1.9,0.6c-0.5-0.9-1.6-2.6-2.3-3.4
		c-1,1.1-2.1,2.3-2.8,3.6c-0.2,0.4-0.1,0.7-0.2,1.2c-0.1,0.8,0,1.4,0.5,2c0,0,0.1,0.1,0.2,0.3c0.2-0.3,0.4-0.5,0.4-0.7
		c0.1-1.7,1.6-3.3,1.9-3.6c0.6,0.8,1.1,1.5,1.7,2.5c0.3-0.1,1.1-0.3,1.5-0.4c0.1,0.9,0.2,1.7,0.2,2.5c0.4-0.1,0.8-0.2,1.3-0.4
		c0.2,1.6,0.3,3.4-0.1,5c-0.3,1.4-0.9,2.6-1.3,4c-0.2,0.6-0.3,1.1-0.3,1.7c0,0.7,0.2,1.1,0.7,1.3c0.5,0.2,1,0.1,1.4-0.5
		c0.3-0.5,0.3-1.2,0.3-1.7c0.1-2.8,1-5.3,2.4-7.7c0.5-0.8,1-1.5,1.6-2.5c0.4,0.6,0.7,1.2,1.1,1.7c0.5-1.1,1.1-2.2,2.5-3.4
		c0.4,0.5,0.7,1,1,1.6c0.9-1.3,1.8-2.1,3.1-3c0.2,0.5,0.3,1,0.5,1.7c1.1-1,2-1.9,3.4-2.8c0.3,1.5,0.4,2.6,0.4,4.2
		c0.4-0.1,0.9-0.1,1.5-0.1c-0.2,1.5-0.7,3.2-1,4.1c0.5,0.1,1,0.2,1.6,0.4c-0.5,1.3-1.3,2.5-1.9,3.8c0.3,0.2,0.7,0.4,1.2,0.6
		c-0.8,1.4-2.1,2.3-3.1,3.6c0.7,0.4,1.3,0.9,2.1,1.4c-1,0.9-1.9,1.6-2.8,2.4c-0.4,0.3,0.4,1.8,0.7,2.3c0,0.1-2.3,0.9-3.7,1.1
		c-0.7,0.1-1.5,0-2.3,0.2c-0.5,0.1-1.2,0.5-1.2,1.1c-0.1,0.7,0.3,1.3,1,1.4c0.5,0,1,0,1.7-0.3c0.5-0.2,1.1-0.5,1.7-0.7
		c1.6-0.3,2.9-0.1,4.9,1.1c-0.7,0.6-1.6,1.3-2.3,1.9c0.3,0.3,0.7,0.5,1,0.7c0.3,0.2,0.5,0.5,0.8,0.8c0.5,0.7,0.5,0.7,0,1.4
		c-0.1,0.1-0.2,0.3-0.3,0.4c0.4,0.4,0.9,0.8,1.2,1.2c0.6,0.8,0.9,1.5,1,2.2c0,0.1-0.5,0.2-0.7,0.3c-0.5,0.1-0.8,0.2-1.2,0.2
		c-0.4,0.1-0.8,0.1-1.3,0.1c0,0.4,0,0.9,0,1.3c0,0.6-0.2,0.6-0.7,0.5c-0.9-0.2-1.7-0.3-2.6-0.5c-0.1,0.4-0.1,0.8-0.2,1.2
		c-0.1,0.6-0.3,0.7-0.9,0.5c-0.8-0.3-1.6-0.7-2.4-1c-0.3-0.1-0.5-0.1-0.5,0.3c0,0.2-0.1,0.3-0.1,0.5c-0.2,0.8-0.3,0.9-1,0.5
		c-0.7-0.3-1.3-0.7-1.9-1.2c-0.5-0.4-0.5-0.7,0-1c0.4-0.3,0.9-0.7,1.3-1c0.3-0.2,0.3-0.4,0.2-0.7c-0.2-0.4-0.4-0.7-0.6-1.1
		c-0.2-0.3-0.2-0.5,0.1-0.8c0.4-0.5,0.8-1,1.2-1.6c0.1-0.1,0-0.4-0.1-0.5c-0.2-0.2-0.5-0.2-0.7-0.4c-0.3-0.2-0.3-0.4-0.2-0.6
		c0.1,0,0.3,0.1,0.4,0.1c0.5,0.1,0.9,0.2,1.3,0.4c0.3,0.2,0.6,0.6,0.7,1c0.3,1.1,0.5,2.2,0.7,3.3c0,0.1,0,0.2,0.1,0.3
		c0.4-0.6,0.3-2-0.2-4.1c1.9,0.5,3.6,1.3,5.2,2.3c-1.3-1.5-3.2-2.2-4.9-3.3c1.1-0.8,2.1-1.5,3.2-2.2c0,0-2.7,1.3-3.7,1.8
		c-0.2,0.1-0.5,0.1-0.7,0.1c-0.6-0.2-1.2-0.4-1.9-0.6c0-0.5,0-1,0-1.5c0-0.7-0.2-0.9-0.9-1c-0.4-0.1-0.9-0.1-1.3-0.1
		c-0.1-0.5-0.2-1-0.4-1.4c-0.1-0.1-0.3-0.3-0.5-0.3c-0.8,0-1.5,0.1-2.3,0.2c-0.2,0-0.6,0-0.7-0.1c-0.2-0.3-0.2-0.6,0.1-1
		c1-1.2,1.9-2.5,2.8-3.7c0.3-0.4,0.7-0.6,1.1-0.8c1.7-0.8,3.6-1.2,5.5-1.3c1-0.1,1.9,0.1,2.9,0.2c-0.6-0.5-1.4-0.6-2.3-0.7
		c-1.9-0.2-3.7,0.2-5.6,0.7c0.4-0.4,0.7-0.8,1-1.2c1.3-1.6,2.6-3.2,4-4.8c0.1-0.2,0.4-0.2,0.6-0.3c1.4-0.3,2.9-0.5,4.3-0.8
		c0.3-0.1,0.6-0.2,0.8-0.5c-1.6,0.2-3.2,0.4-5,0.6c1.4-2,2.7-4.5,3.4-6.7c-1.1,1.6-2.7,4.6-4.5,6.3c-0.4-1.5-0.4-3.1-1.2-4.5
		c0.1,1.2,0.2,2.4,0.4,3.6c0.2,1.1,0.1,2.1-0.7,3c-1.3,1.4-2.5,2.9-3.8,4.4c-0.1,0.1-0.3,0.3-0.5,0.5c0.5-2.7,1-5.3,0.7-8
		c-0.1,0.4-0.1,0.8-0.2,1.1c-0.4,2.3-0.6,4.2-1.2,6.3c-0.4,1.4-0.9,2.5-1.7,3.6c-1,1.4-2.1,2.7-3.5,3.8c-0.1,0.1-0.2,0.2-0.4,0.3
		c0-0.4,0.1-0.7,0.1-1c0.2-1.7,0.1-2.7,0-4.3c-0.1-1.3-0.5-2.9-0.8-4.3c-0.2-0.8-0.3-1.4-0.5-2.7c-0.1-1,0.3-1.5,0.8-2.5
		c0.3-0.7,0.6-1.1,1-1.7c0.1-0.1,0.4-0.6,0.4-0.7c-0.9,0.6-1.7,2-2.4,3.1c-0.1-2,0-4.5,0-6.5c-0.1,0-0.3,0.8-0.4,1.5
		c-0.3,2.7-0.5,4.3-0.2,6.8c0.3,2.8,1.2,5.4,1.3,7.5c-0.5-0.7-1.5-1.3-2.4-1.2c0.7,0.3,1.2,0.7,1.8,1.5c0.4,0.5,0.6,1.2,0.5,2
		c-0.1,1-0.1,1.6-0.4,2.6c-0.4-0.6-0.8-0.4-1.2-0.1c-0.8,0.6-1.6,1.2-2.4,1.9c-0.2-0.2-0.3-0.5-0.6-0.7c-0.2-0.1-0.6-0.2-0.7-0.1
		c-0.3,0.2-0.6,0.6-0.9,0.9c-0.3,0.3-0.5,0.7-0.7,1.1c-0.3,0.4-0.3,0.8-0.4,1.2c-0.4,0.7-0.1,1.4-0.2,2.1c0,0.2,0,0.4,0.1,0.7
		c0.8-1.4,1.5-2.7,2.2-4.1c0.3,0.5,0.6,0.9,0.8,1.4c1-0.9,2-1.8,3-2.7c0.3,0.4,0.5,0.8,0.7,1.1c0.8-0.5,1.5-1,2.3-1.5
		c0.8-0.5,0.9-0.5,1.2,0.4c0,0.1,0,0.1,0.1,0.2c0.7-0.1,1.4-0.3,2.1-0.4c0.9-0.1,1.1,0.1,1.2,1.1c0,0.1,0,0.2,0,0.4
		c0.7,0.1,1.3,0.2,2,0.2c0.1,1-0.1,1.9-0.8,2.6c-0.4,0.4-0.4,0.5,0.1,0.7c0.3,0.1,0.6,0.2,1,0.4c-0.6,0.8-1.1,1.5-1.7,2.3
		c0.3,0.3,0.7,0.6,1.2,1.1c-0.9,0.6-1.8,1.3-2.7,1.9c0.2,0.3,0.5,0.7,0.6,1c0.1,0.1,0,0.4-0.1,0.5c-2,1.6-4.2,2.5-6.6,3.1
		c-0.7,0.2-1.5,0.5-2.1,0.9c-0.6,0.4-0.7,1.2-0.3,1.7c0.3,0.4,1.1,0.6,1.7,0.3c1.1-0.6,2-1.2,3.1-1.8c1.7-1,3.5-1.2,5.4-1
		c0.5,0.1,0.9,0.1,1.3,0.2c0,0.1,0,0.5,0,1.3c1,0.2,1.5,0.4,2.5,0.7c0,0.1-0.6,1.3-1.4,2.4c0.3,0.4,0.6,0.8,1,1.3
		c0,0-2.2,1.5-2.5,1.7c0,0.1,0.5,1.1,0.5,1.1c-0.7,0.3-2.2,0.9-2.8,1c0.2,0.4,0.4,0.8,0.6,1.3c-0.8,0.1-1.5,0.1-2.2,0
		c-1-0.1-6-1.3-10.5-1.3c-3.1,0-5.7,0.1-8.6,0.6c-0.1,0-0.3,0-0.6,0.1c0.7-0.9,1.3-1.8,1.9-2.6c0.1-0.1,0.4-0.2,0.6-0.2
		c2-0.1,4.1-0.2,6.1-0.3c0.5,0,1,0.1,1.4,0.3c0.8,0.4,1.6,1,2.4,1.4c-0.7-0.6-1.4-1.2-2.2-1.8c0.5-0.1,1-0.1,1.5-0.2
		c1.4-0.2,2.8-0.4,4.2-0.6c0.2,0,0.3,0,0.5,0.1c1.7,1,4.8,1.7,4.9,1.6c-2-0.7-3.1-1.2-4.3-1.9c1.2-0.3,3.5-0.7,5.9-2.5
		c-2.2,1-4.1,1.6-5.6,2c0.7-1.2,1.8-3.4,1.8-3.5c-0.4,0.6-1.6,2.4-1.8,2.8c-0.6,0.9-1.6,1-2.5,1.1c-1.5,0.2-4.9,0.6-5.1,0.6
		c0.6-1.2,1.8-3.7,1.8-3.7c-0.4,0.6-2,2.9-2.5,3.5c-0.1,0.1-0.3,0.2-0.5,0.3c-1.9,0.1-3.8,0.1-5.9,0.2c0.5-0.6,0.8-1.1,1.2-1.6
		c1-1.4,1.9-2.6,2.9-4c0.2-0.2,0.6-0.5,0.8-0.6c1.2-0.4,2.2-0.6,4.1-0.7c-1.1-0.2-2.5-0.2-4,0.1c0.4-0.4,0.7-0.8,0.9-1.1
		c0.8-0.9,1.7-1.8,2.5-2.7c0.8-0.9,1.9-1.3,3.1-1.4c1.5-0.2,3.1-0.2,4.6-0.3c-1.9-0.4-3.8-0.4-5.8-0.1c2.1-2.4,4.6-4.2,7-6.1
		c-2.8,1.3-5.3,3.1-7.5,5.2c0.2-1.9,0.3-3.8,0.5-5.6c-0.1,0-0.2,0-0.2,0c-0.1,0.6-0.1,1.3-0.2,1.9c-0.4,1.6-0.8,3.1-1.1,4.7
		c0,0.2-0.2,0.3-0.3,0.5c-1.2,1.3-2.8,2.9-4.1,4.2c0.5-2,0.8-4,0.4-5.7c-0.1,1.9-0.2,3.7-1.2,6.3c-0.4,1-4.5,5.8-4.6,5.9
		c-0.1,0-0.2-2.1-0.2-2.9c0-0.8,0-1.7-0.1-2.5c-0.1,0.5-0.3,1-0.4,1.6c-0.2,1.6-0.2,3.1-0.5,4.7c-0.1,0.6-0.5,1.2-0.8,1.8
		c-0.5,0.7-1.1,1.4-1.6,2.1c-0.1,0.1-0.2,0.2-0.3,0.3c-0.7,0.2-1.4,0.3-2.1,0.5c0-1.6-0.1-3.1,0.6-4.5c0.1-0.3,0.4-0.6,0.5-0.9
		c0.1-0.2,0-0.4,0.1-0.5c-0.2,0-0.5-0.1-0.7,0c-0.2,0-0.4,0.1-0.5,0.2c-0.6,0.1-0.8,0.5-1,1c-0.3,0.9-0.4,1.9-0.6,2.9
		c-0.1,0.6-0.1,1.2,0,1.8c0,0.5-0.2,0.6-0.6,0.7c-9.2,2.1-19.1,4.8-29.3,5c-10.1-0.2-20.1-2.9-29.3-5c-0.4-0.1-0.6-0.2-0.6-0.7
		c0-0.6,0.1-1.2,0-1.8c-0.1-1-0.3-1.9-0.6-2.9c-0.1-0.5-0.4-0.9-1-1c-0.2,0-0.4-0.2-0.5-0.2c-0.2,0-0.5,0-0.7,0c0,0.2,0,0.4,0.1,0.5
		c0.1,0.3,0.3,0.6,0.5,0.9c0.7,1.4,0.6,2.9,0.6,4.5c-0.8-0.2-1.4-0.3-2.1-0.5c-0.1,0-0.3-0.1-0.3-0.3c-0.5-0.7-1.1-1.4-1.6-2.1
		c-0.4-0.5-0.7-1.2-0.8-1.8c-0.2-1.5-0.3-3.1-0.5-4.7c-0.1-0.5-0.2-1-0.4-1.6c-0.1,0.9,0,1.7-0.1,2.5c0,0.8-0.2,2.9-0.2,2.9
		c0-0.1-4.2-5-4.6-5.9c-1-2.6-1.1-4.4-1.2-6.3c-0.4,1.8-0.2,3.8,0.4,5.7c-1.2-1.3-2.8-2.9-4.1-4.2c-0.1-0.1-0.2-0.3-0.3-0.5
		c-0.4-1.6-0.8-3.1-1.1-4.7c-0.1-0.6-0.2-1.3-0.2-1.9c-0.1,0-0.2,0-0.2,0c0.2,1.9,0.3,3.7,0.5,5.6c-2.2-2.2-4.7-4-7.5-5.2
		c2.5,1.9,4.9,3.7,7,6.1c-2-0.3-3.9-0.3-5.8,0.1c1.5,0.1,3.1,0.1,4.6,0.3c1.2,0.1,2.3,0.5,3.1,1.4c0.8,0.9,1.7,1.8,2.5,2.7
		c0.3,0.3,0.6,0.7,0.9,1.1c-1.4-0.3-2.9-0.4-4-0.1c1.9,0.1,2.9,0.3,4.1,0.7c0.3,0.1,0.7,0.4,0.8,0.6c1,1.4,1.9,2.6,2.9,4
		c0.4,0.5,0.7,1,1.2,1.6c-2.1-0.1-4-0.1-5.9-0.2c-0.2,0-0.4-0.1-0.5-0.3c-0.5-0.5-2.1-2.8-2.5-3.5c0,0,1.2,2.5,1.8,3.7
		c-0.1,0-3.6-0.4-5.1-0.6c-0.9-0.1-1.9-0.1-2.5-1.1c-0.2-0.4-1.5-2.2-1.8-2.8c-0.1,0,1.1,2.3,1.8,3.5c-1.5-0.4-3.4-1-5.6-2
		c2.4,1.8,4.7,2.2,5.9,2.5c-1.2,0.6-2.3,1.2-4.3,1.9c0.1,0.1,3.2-0.6,4.9-1.6c0.1-0.1,0.3-0.1,0.5-0.1c1.4,0.2,2.8,0.4,4.2,0.6
		c0.5,0.1,1,0.1,1.5,0.2c-0.8,0.7-1.5,1.2-2.2,1.8c0.8-0.4,1.6-1,2.4-1.4c0.4-0.2,0.9-0.3,1.4-0.3c2,0,4.1,0.2,6.1,0.3
		c0.2,0,0.5,0,0.6,0.2c0.6,0.8,1.2,1.6,1.9,2.6c-0.3,0-0.5,0-0.6-0.1c-2.8-0.5-5.4-0.5-8.6-0.6c-4.5-0.1-9.5,1.2-10.5,1.3
		c-0.6,0.1-1.4,0.1-2.2,0c0.2-0.5,0.3-0.9,0.6-1.3c-0.6-0.2-2.2-0.7-2.8-1c0,0,0.5-1,0.5-1.1c-0.3-0.2-2.5-1.7-2.5-1.7
		c0.4-0.5,0.7-0.9,1-1.3c-0.8-1.1-1.3-2.3-1.4-2.4c1-0.3,1.5-0.6,2.5-0.7c0-0.9-0.1-1.2,0-1.3c0.4-0.1,0.9-0.1,1.3-0.2
		c1.9-0.3,3.7,0,5.4,1c1,0.6,2,1.2,3,1.8c0.6,0.3,1.4,0.1,1.7-0.3c0.4-0.5,0.3-1.3-0.3-1.7c-0.6-0.4-1.4-0.8-2.1-0.9
		c-2.4-0.6-4.7-1.6-6.6-3.1c-0.1-0.1-0.2-0.4-0.1-0.5c0.2-0.4,0.4-0.7,0.6-1c-0.9-0.6-1.8-1.3-2.7-1.9c0.5-0.4,0.9-0.8,1.2-1.1
		c-0.6-0.8-1.2-1.5-1.7-2.3c0.4-0.2,0.7-0.3,1-0.4c0.5-0.2,0.5-0.3,0.1-0.7c-0.7-0.7-1-1.6-0.8-2.6c0.7-0.1,1.3-0.2,2-0.2
		c0-0.1,0-0.3,0-0.4c0.1-0.9,0.3-1.1,1.2-1.1c0.7,0.1,1.4,0.3,2.1,0.4c0,0,0-0.1,0.1-0.2c0.3-0.8,0.4-0.9,1.2-0.4
		c0.8,0.5,1.5,1,2.3,1.5c0.2-0.4,0.5-0.7,0.7-1.1c1,0.9,2,1.8,3,2.7c0.3-0.4,0.5-0.8,0.8-1.4c0.8,1.4,1.5,2.7,2.2,4.1
		c0.1-0.3,0.1-0.5,0.1-0.7c-0.1-0.7,0.2-1.4-0.2-2.1c-0.2-0.3-0.1-0.8-0.4-1.2c-0.3-0.3-0.5-0.7-0.7-1.1c-0.3-0.3-0.5-0.7-0.9-0.9
		c-0.2-0.1-0.5,0-0.7,0.1c-0.3,0.2-0.4,0.5-0.6,0.7c-0.8-0.6-1.6-1.3-2.4-1.9c-0.4-0.3-0.8-0.5-1.2,0.1c-0.2-1-0.3-1.6-0.4-2.6
		c-0.1-0.8,0.2-1.6,0.5-2c0.6-0.8,1.1-1.2,1.8-1.5c-0.9,0-1.9,0.5-2.4,1.2c0.1-2.1,1-4.6,1.3-7.5c0.2-2.5,0.1-4.1-0.2-6.8
		c-0.1-0.7-0.3-1.5-0.4-1.5c0.1,2,0.2,4.5,0,6.5c-0.6-1.1-1.5-2.5-2.4-3.1c0,0.2,0.3,0.6,0.4,0.7c0.4,0.6,0.7,1.1,1,1.7
		c0.5,1,0.9,1.6,0.8,2.5c-0.2,1.3-0.3,1.9-0.5,2.7c-0.3,1.3-0.7,2.9-0.8,4.3c-0.2,1.5-0.2,2.6,0,4.3c0,0.3,0.1,0.6,0.1,1
		c-0.2-0.2-0.3-0.2-0.4-0.3c-1.4-1-2.5-2.4-3.5-3.8c-0.8-1.1-1.3-2.3-1.7-3.6c-0.6-2.1-0.8-4.1-1.2-6.3c-0.1-0.4-0.1-0.8-0.2-1.1
		c-0.3,2.7,0.2,5.3,0.7,8c-0.2-0.2-0.4-0.3-0.5-0.5c-1.3-1.5-2.5-2.9-3.8-4.4c-0.8-0.9-0.9-1.9-0.7-3c0.2-1.2,0.2-2.4,0.4-3.6
		c-0.8,1.4-0.8,3-1.2,4.5c-1.8-1.7-3.4-4.7-4.5-6.3c0.7,2.2,2,4.7,3.4,6.7c-1.7-0.2-3.4-0.4-5-0.6c0.2,0.2,0.5,0.4,0.8,0.5
		c1.4,0.3,2.9,0.5,4.3,0.8c0.2,0,0.5,0.1,0.6,0.3c1.3,1.6,2.7,3.2,4,4.8c0.3,0.4,0.6,0.7,1,1.2c-1.9-0.4-3.7-0.8-5.6-0.7
		c-0.8,0.1-1.6,0.2-2.3,0.7c0.9-0.1,1.9-0.3,2.9-0.2c1.9,0.2,3.7,0.6,5.5,1.3c0.4,0.2,0.9,0.5,1.1,0.8c1,1.2,1.9,2.5,2.8,3.7
		c0.3,0.3,0.2,0.7,0.1,1c-0.1,0.1-0.5,0.1-0.7,0.1c-0.8,0-1.5-0.1-2.3-0.2c-0.2,0-0.4,0.2-0.5,0.3c-0.2,0.4-0.3,0.9-0.4,1.4
		c-0.4,0-0.8,0.1-1.3,0.1c-0.7,0.1-0.8,0.3-0.9,1c0,0.5,0,1,0,1.5c-0.6,0.2-1.2,0.4-1.9,0.6c-0.2,0.1-0.5,0-0.7-0.1
		c-1-0.5-3.7-1.8-3.7-1.8c1,0.7,2.1,1.4,3.2,2.2c-1.7,1.1-3.6,1.8-4.9,3.3c1.6-1.1,3.3-1.9,5.2-2.3c-0.5,2.1-0.6,3.5-0.2,4.1
		c0-0.1,0.1-0.2,0.1-0.3c0.2-1.1,0.4-2.2,0.7-3.3c0.1-0.4,0.4-0.8,0.7-1c0.4-0.2,0.9-0.3,1.3-0.4c0.1,0,0.3-0.1,0.4-0.1
		c0.1,0.2,0.1,0.4-0.2,0.6c-0.2,0.1-0.5,0.2-0.7,0.4c-0.1,0.1-0.2,0.4-0.1,0.5c0.4,0.6,0.8,1.1,1.2,1.6c0.3,0.3,0.3,0.5,0.1,0.8
		c-0.2,0.3-0.4,0.7-0.6,1.1c-0.2,0.3-0.1,0.5,0.2,0.7c0.5,0.3,0.9,0.7,1.3,1c0.5,0.4,0.6,0.7,0,1c-0.6,0.5-1.3,0.9-1.9,1.2
		c-0.7,0.3-0.8,0.3-1-0.5c0-0.2-0.1-0.3-0.1-0.5c0-0.3-0.2-0.4-0.5-0.3c-0.8,0.3-1.6,0.6-2.4,1c-0.5,0.2-0.8,0.1-0.9-0.5
		c0-0.4-0.1-0.8-0.2-1.2c-0.9,0.2-1.8,0.3-2.6,0.5c-0.5,0.1-0.7,0-0.7-0.5c0-0.4,0-0.8,0-1.3c-0.5-0.1-0.9-0.1-1.3-0.1
		c-0.4-0.1-0.7-0.1-1.2-0.2c-0.2-0.1-0.7-0.2-0.7-0.3c0.2-0.7,0.5-1.4,1-2.2c0.3-0.4,0.9-0.8,1.2-1.2c-0.1-0.1-0.2-0.3-0.3-0.4
		c-0.5-0.7-0.6-0.7,0-1.4c0.2-0.3,0.5-0.6,0.8-0.8c0.3-0.3,0.6-0.5,1-0.7c-0.7-0.6-1.6-1.3-2.3-1.9c1.9-1.2,3.3-1.5,4.9-1.1
		c0.6,0.1,1.1,0.5,1.7,0.7c0.7,0.3,1.2,0.3,1.7,0.3c0.7,0,1.1-0.6,1-1.4c-0.1-0.6-0.7-1-1.2-1.1c-0.8-0.2-1.6-0.1-2.3-0.2
		c-1.3-0.2-3.6-1-3.7-1.1c0.3-0.5,1.1-2,0.7-2.3c-0.9-0.7-1.8-1.5-2.8-2.4c0.8-0.5,1.4-0.9,2.1-1.4c-1-1.2-2.3-2.2-3.1-3.6
		c0.5-0.3,0.9-0.5,1.2-0.6c-0.6-1.3-1.4-2.5-1.9-3.8c0.6-0.2,1.2-0.3,1.6-0.4c-0.4-0.9-0.9-2.6-1-4.1c0.6,0,1,0,1.5,0.1
		c0-1.6,0.1-2.7,0.4-4.2c1.4,0.9,2.3,1.7,3.4,2.8c0.1-0.7,0.3-1.3,0.5-1.7c1.3,0.9,2.3,1.7,3.1,3c0.3-0.6,0.6-1.1,1-1.6
		c1.4,1.2,2,2.3,2.5,3.4c0.4-0.6,0.7-1.1,1.1-1.7c0.6,0.9,1.1,1.7,1.6,2.5c1.5,2.4,2.3,4.9,2.4,7.7c0,0.6,0,1.2,0.3,1.7
		c0.4,0.6,0.9,0.7,1.4,0.5c0.5-0.2,0.8-0.5,0.7-1.3c0-0.6-0.1-1.1-0.3-1.7c-0.4-1.4-1-2.6-1.3-4c-0.4-1.6-0.3-3.3-0.1-5
		c0.5,0.2,0.9,0.3,1.3,0.4c0-0.9,0.1-1.6,0.2-2.5c0.4,0.1,1.2,0.3,1.5,0.4c0.6-1,1.1-1.8,1.7-2.5c0.3,0.3,1.7,1.9,1.9,3.6
		c0,0.2,0.2,0.4,0.4,0.7c0.1-0.2,0.1-0.2,0.2-0.3c0.5-0.6,0.6-1.2,0.5-2c-0.1-0.5,0-0.7-0.2-1.2c-0.6-1.3-1.7-2.5-2.8-3.6
		c-0.7,0.9-1.8,2.6-2.3,3.4c-0.6-0.3-1.6-0.5-1.9-0.6c-0.2,0.6-0.4,1.7-0.5,2.5c-0.1,0-0.9-0.3-1.4-0.3c-0.1,0.9-0.2,2.6-0.3,3.6
		c-0.1-0.2-2.2-3.7-3.3-4.7c-0.4,0.3-0.6,0.9-0.9,1.3c-0.6-1-2.1-2.4-3-3c-0.5,0.5-0.7,1-0.8,1.1c-0.2-0.1-2.9-2.3-3.3-2.6
		c-0.4,0.6-0.5,1-0.8,1.4c-0.9-0.7-3.6-2.3-3.6-2.3c-0.5,1.6-0.7,3.5-0.9,4.9c-0.6-0.1-1.3-0.1-1.8-0.1c0.1,0.4,0.3,1.4,0.4,2.3
		s0.4,1.8,0.5,2.1c-0.7,0.2-1.4,0.3-2.2,0.5c0.6,1.5,1.1,2.8,1.8,4.3c-1.6-0.4-1.9-0.8-4.3-1c-0.5,0-1.1,0-1.7,0
		c-1.2,0.1-1.6,0.1-2.9,0.5c-1.4,0.5-1.5,1.2-2.1,1.2c-1.6,0.1-3.6,0.3-4.9,2C7.6,53.1,4.1,54,3.7,57c-3.8,0.9-5.3,5.8-1.4,9.1
		c0.5,0.4-0.6,2.2,2.6,5.3c0.2,1.7,1.8,3.9,4.4,4.3c0.5,0.8,0.8,1,1.1,1.3c1.2,0.9,2.4,1.3,3.7,1.8c0.5,0.2,0.5,0.6,0.6,1
		c0.4,0.9,2.7,1.7,3.8,1.5c-0.3,0.4-2.5,1.3-2.8,4.8c-1.1,1.3-1.7,3-1.5,4.7c-2,4.7,0.5,8.1,3.7,9c1.4,0.4,1.5,1.5,3.4,1.8
		c0.5,0.1,1.3,0.1,1.7,0.1c0.3,0.6,0.5,1.1,0.8,1.6c1.4,2.6,3.1,4.5,4.5,6c-3.1,2.1-6.8,4.5-9.8,7c0.2,0.1,5.6,1.9,8.1,2.5
		c5.8,1.5,11.7,2.8,17.7,3.2c2.8,0.2,5.2,0.2,7.7,0.2c0.2,1,0.6,2.4,0.8,2.9c0.9,2.9,2.8,4.3,3.7,4.3c0.8,1.4,1.3,2.4,2.2,3.2
		c0.3,0.3,1.2,0.9,1.7,1c0.8,0.3,0.9,0.7,1.5,1.2s2.2,1.3,3.3,1.3c4.3,3.4,8.2,2.1,10.9-1.7c0.6-0.5,2-1.4,2.4-2.1
		c0.2-0.4,0.5-1,0.6-1.4c0.5,0.6,0.5,0.8,1,1.1c0.5,0.4,1.4,0.7,2.2,1c0.2,0,0.4-1.5,0.4-1.5c1.6,1.2,1.8,1.4,3.7,2.5
		c0.4,0.2,0.6,0.2,0.5-0.3c0-0.2,0.1-0.9,0.1-1.2c1.2,0.3,2.2,0.6,3.3,0.8c0.8,0.2,0.7-0.1,0.6-0.8c0-0.2-0.1-1.6-0.2-2.1
		c0.7-0.2,1.4-0.4,2-0.6c1.4-0.4,2.6-0.9,3.8-1.4c0.6-0.3,0.6-0.6,0.2-1c-0.8-0.7-1.5-1.2-2.2-1.9c-0.1-0.1-0.1-0.1-0.1-0.2
		c1.1-0.5,1.1-0.8,0.2-1.6c-0.4-0.3-0.7-0.6-1.2-1c0.4-0.2,0.7-0.4,1-0.6c0.5-0.3,0.6-0.6,0.2-1.1c-0.1-0.2-0.3-0.3-0.5-0.5
		c-0.4-0.3-1-0.6-1.4-1c0.3-0.1,0.9-0.3,1.1-0.4c0.6-0.2,0.6-0.5,0.2-0.9c-0.3-0.3-0.7-0.9-1-1.2c2,0.1,3.8,0,5.5,0
		c1.7,0,3.5,0.1,5.5,0c-0.3,0.3-0.7,0.9-1,1.2c-0.4,0.4-0.4,0.7,0.2,0.9c0.2,0.1,0.8,0.4,1.1,0.4c-0.4,0.3-1,0.6-1.4,1
		c-0.2,0.1-0.4,0.3-0.5,0.5c-0.4,0.5-0.3,0.8,0.2,1.1c0.3,0.2,0.6,0.3,1,0.6c-0.4,0.4-0.8,0.7-1.2,1c-0.9,0.7-0.9,1.1,0.2,1.6
		c0,0.1-0.1,0.2-0.1,0.2c-0.8,0.7-1.5,1.2-2.2,1.9c-0.5,0.4-0.5,0.8,0.2,1c1.2,0.6,2.4,1,3.8,1.4c0.5,0.2,1.3,0.4,2,0.6
		c-0.1,0.5-0.2,1.8-0.2,2.1c0,0.8-0.2,1,0.6,0.8c1.1-0.2,2.1-0.6,3.3-0.8c0,0.3,0.1,0.9,0.1,1.2c0,0.5,0.1,0.5,0.5,0.3
		c1.9-1,2.1-1.3,3.7-2.5c0,0,0.3,1.6,0.4,1.5c0.8-0.2,1.7-0.5,2.2-1c0.5-0.4,0.5-0.6,1-1.1c0.1,0.4,0.4,1,0.6,1.4
		c0.4,0.7,1.7,1.7,2.4,2.1c2.7,3.8,6.6,5,10.9,1.7c1.1,0,2.7-0.8,3.3-1.3s0.7-0.8,1.5-1.2c0.5-0.1,1.4-0.7,1.7-1
		c0.9-0.9,1.4-1.9,2.2-3.2c1-0.1,2.8-1.4,3.7-4.3c0.2-0.5,0.6-1.9,0.8-2.9c2.5,0.1,4.9,0,7.7-0.2c6-0.4,11.9-1.7,17.7-3.2
		c2.5-0.6,7.9-2.4,8.1-2.5c-2.9-2.6-6.7-4.9-9.8-7c1.4-1.5,3.1-3.5,4.5-6c0.3-0.5,0.5-1,0.8-1.6c0.5,0,1.3,0,1.7-0.1
		c1.9-0.3,2-1.4,3.4-1.8c3.1-0.9,5.6-4.3,3.7-9c0.2-1.7-0.4-3.4-1.5-4.7c-0.3-3.5-2.5-4.4-2.8-4.8c1.2,0.2,3.4-0.6,3.8-1.5
		c0.1-0.4,0.2-0.8,0.6-1c1.3-0.5,2.5-0.9,3.7-1.8c0.3-0.3,0.7-0.5,1.1-1.3c2.6-0.4,4.2-2.7,4.4-4.3c3.2-3.1,2.1-4.9,2.6-5.3
		C198.5,62.9,196.9,57.9,193.2,57z M189.5,55.1c0.4,0.1,1.7,0.5,1.5,1.8c0,1.7-5.5,4.3-7.8,1.7c1.4-0.5,3.4-1,5.2-1.5
		c-1.8-0.2-4.2,0.1-5.7,0.4C183.7,56.2,186.7,54.5,189.5,55.1z M175.8,70.4c-0.7,0.1-1.2,0.1-1.6,0.2c0-0.3,0.3-0.3,0.4-0.5
		c1-1.1,1.8-1.6,2.8-3.2c0.3-0.5,0.3-0.5,0.4-0.4c1.8,0.7,3.7,1.1,5,2.4c1.5,1.9-1.3,3.3-2.9,3.9c-0.5,0.2-1,0.3-1.5,0.5
		c-0.4,0.1-0.9,0.2-1.4,0.2c-0.2,0-0.4,0-0.5-0.1c-0.7-0.6-1.4-1.2-2-1.7c0.5-0.1,1.5-0.2,2.8-0.6c0.4-0.1,0.9-0.2,1.4-0.4
		c0.7-0.1,1.4-0.5,2.2-0.7C179.9,70,176.4,70.3,175.8,70.4z M182.4,67.1c-0.5-0.1-0.9-0.2-1.4-0.4c-0.9-0.3-1.7-0.8-2.4-1.4
		c0.6-0.1,1.1-0.3,1.6-0.4c0.7-0.2,1-0.3,1.7-0.6c0.8-0.3,2-0.6,2.6-1c-1.2,0.1-2.4,0.2-3.4,0.4c-0.5,0.1-1.1,0.1-1.6,0.2
		c-0.5,0.1-1,0.2-1.5,0.2c0.2-0.5,0.5-1.1,1.3-1.9c0.5-0.5,0.6-0.6,1.3-1.1c0.4-0.4,0.8-0.7,1.3-0.8c1-0.4,2.1-0.3,3,0.3
		c0.6,0.4,0.9,0.9,1.1,1.5C187,64.5,185.3,67.7,182.4,67.1z M182.4,52.6c0.9-0.2,1.4-0.2,2-0.1c0.6,0.1,1.1,0.2,1.7,0.5
		c0.7,0.4,0.3,0.9-0.1,1.2c-0.4,0.3-0.8,0.5-1.2,0.8c-1.9,1-4.1,1.9-5.9,0.2c1.8-0.4,2.7-0.7,4.6-1.3c-1.9,0-2.7,0.1-4,0.1
		C180.3,53.3,181.3,52.8,182.4,52.6z M176.9,52.5c0.2-0.2-4.6,1.4-4.6,1.1c0.1-0.8,0.9-1.5,1.5-1.8c1.8-1.1,5.6-1.4,7.5-0.4
		c-1.1,0.6-1.9,1.3-2.7,2c-0.4,0.3-0.9,0.6-1.4,0.9c-0.5,0.2-1,0.4-1.5,0.5c-0.5,0.1-1.1,0.3-1.6,0.3c-1.1,0.1-2.1,0.1-2.7-0.3
		C171.4,54.8,175.7,53.6,176.9,52.5z M174.1,56.5c0.9-0.2,4-1.2,6.6,1c0.5,0.5,0.3,1.4,0,1.8c-0.9,1.3-2.7,2.7-3.1,3
		c-0.4,0.3-1.3,0.3-1.7,0c-1.2-0.7-1-0.7-2-1.3c-0.3-0.2-1.1-0.6-1.5-0.8c0.1-0.1,0.6-0.1,0.6-0.2c1.4-0.3,4.8-1.3,5.2-1.4
		c0-0.1-4.8,0-7.1,0.7C171.4,57.9,173.2,56.7,174.1,56.5z M171.8,67.6c-0.2-0.4-0.3-0.5,0-0.8c0.5-0.5,1-1,1.5-1.5
		c0.3-0.3,0.2-0.5-0.1-0.7c-0.1-0.1-0.3-0.2-0.5-0.3c-0.9-0.5-1.7-1-2.6-1.6c0.2-0.1,0.4-0.2,0.5-0.3c0.8-0.4,0.9-0.5,0.5-1.3
		c-0.1-0.1-0.1-0.2-0.2-0.5c0.3,0.1,0.4,0.1,0.6,0.2c1.8,0.6,3.1,1.4,4.5,2.6c0.8,0.7,1.1,1,0.6,2c-0.7,1.3-1.6,2.5-2.8,3.4
		c-0.3,0.2-0.4,0.2-0.8-0.1C172.5,68.6,172,68.1,171.8,67.6z M167.7,78c0.8,0.1,3.8,0.5,7.6,3.1c-0.1,0-2.7-0.3-5.4,0.8
		c-0.5-0.2-1.4-0.7-1.9-0.8c0.5-0.5,1.1-0.8,1.6-1.3c-0.9-0.6-1.9-1.1-2.9-1.4C166.7,78.1,167.3,77.8,167.7,78z M165.3,97.7
		c-1.3,0-2.5-0.4-3.8-0.9c-0.1,0-0.2-0.1-0.2-0.2c-0.3-0.8-0.6-1.5-0.8-2.3c1.3,0.5,2.8,1.1,4.3,1.3c0.5,0.1,1,0.1,1.5,0.1
		c-0.3-0.1-0.6-0.2-1.1-0.4s-0.9-0.4-1.4-0.7c-1-0.5-2.1-1-2.8-1.5c0.7-0.1,1.2-0.3,1.8-0.5c0.5-0.2,1-0.5,1.5-0.9
		c2.8-1.2,2.9,3.4,4.5,4.9c-0.6,0.4-1.3,0.6-2.1,0.8C166.1,97.7,165.7,97.7,165.3,97.7z M165.5,100.7c-1,0.2-1.9,0.4-2.8,0.6
		c-0.3,0.1-0.5,0-0.6-0.3c-0.2-0.8-0.6-2.8-0.6-2.9c0.6,0.2,1.1,0.3,1.6,0.5c0.2,0.1,0.5,0.1,0.6,0.3
		C164.3,99.4,164.9,100,165.5,100.7z M161,101.6C161.1,101.6,161.1,101.6,161,101.6L161,101.6z M168.9,98c0.5,0.3,1,0.7,1.6,1.2
		c-0.6,0.2-1.1,0.4-1.7,0.6c-0.6,0.2-1.1,0.3-1.6,0.5c-0.2,0-0.5,0-0.6-0.2c-0.3-0.3-0.6-0.7-0.9-1.1
		C166.2,98.8,168.3,98.1,168.9,98z M166.8,91.3c1.9,0.2,3.8,0.8,5.9,0.9c-2.1-0.8-4-1.7-5.9-2.8c1.1-0.2,2.3-0.6,3.5-1.2
		c0.8-0.6,1.3-0.5,1.9,0.1c1.2,1.3,2.5,2.8,2.1,4.3c-0.4,2.1-3.4,3-5.3,2.5C167.9,94.5,167.9,92.4,166.8,91.3z M165.9,87.8
		c-0.3-0.7-0.5-1.4-0.9-2c-0.3-0.6-0.7-1.2-1.2-1.8c0,0,1.5,0.4,2.9,0.8c0.7,0.2,1.5,0.4,2.1,0.5c0.6,0.1,1,0.3,1,0.3
		c-0.6-0.4-1.2-0.7-1.7-1c-0.5-0.3-1-0.5-1.5-0.7c-1-0.4-1.8-0.7-2.8-0.9c0.5-0.2,0.9-0.3,1.3-0.5c1.4-0.8,2.6-0.6,3.9,0.1
		c0.4,0.2,0.7,0.5,1,0.7c0.8,0.9,1.4,1.8,2,2.7C170,86.7,168.1,89.2,165.9,87.8z M160.1,81.1c-0.1-0.1-0.1-0.8-0.1-0.8
		s0.1-0.5,0-0.6c-1-0.1-2-0.3-3.1-0.4c0.4-0.2,0.7-0.4,0.9-0.5c0.3-0.2,0.6-0.2,0.9,0c0.9,0.5,1.9,1,2.8,1.5c0.6,0.3,0.8,0.2,1-0.5
		c0.1-0.2,0.2-0.4,0.2-0.7c0.9,0.3,1.7,0.7,2.5,0.9c0.3,0.1,0.7,0.1,1-0.1c0.6-0.4,1-0.4,1.6,0.2c-0.7,0.4-3.6,1.9-6.4,1.4
		C161.4,81.4,160.2,81.2,160.1,81.1z M161,90.5c-0.2-0.5-0.6-1.3-0.8-1.5c0.9-0.6,1.7-1.1,2.6-1.7c-0.7-0.9-1.4-1.8-0.3-2.9
		c0.4,0.4,1.9,1.8,3.2,5.4c-1.1,0.6-2.2,1.2-3.3,1.8c-1.4,0.7-2.8,0.7-4.2,0.1C159,91.3,160.1,91,161,90.5z M157.9,93.5
		c0.2,0,0.5,0.1,0.6,0.2c1,1,2.2,6.4,2.5,7.9c-1.2,0.2-2.6,0.4-3.7,0.5c0.3-1.7,0.3-2.2,0.3-3c0.6,0.5,2.1,1.7,2.1,1.6
		c-0.2-0.3-1.9-2.2-2.1-3.7c-0.1-1.1-0.4-2.6-1.5-3.3C156.7,93.6,157.4,93.5,157.9,93.5z M39,93.5c0.4,0,1.2,0.1,1.6,0.2
		c-1.1,0.7-1.4,2.3-1.5,3.3c-0.2,1.5-1.9,3.5-2.1,3.7c0.1,0.1,1.5-1.2,2.1-1.6c0.1,0.8,0.1,1.3,0.3,3c-1.1-0.1-2.4-0.3-3.7-0.5
		c0.3-1.5,1.5-6.9,2.5-7.9C38.5,93.6,38.8,93.5,39,93.5z M35.6,96.6c0,0.1-0.1,0.2-0.2,0.2c-1.3,0.5-2.5,1-3.8,0.9
		c-0.4,0-0.9-0.1-1.3-0.2c-0.8-0.2-1.5-0.4-2.1-0.8c1.5-1.5,1.7-6,4.5-4.9c0.6,0.3,1,0.6,1.5,0.9c0.5,0.2,1.1,0.4,1.8,0.5
		c-0.7,0.4-1.8,1-2.8,1.5c-0.5,0.2-1,0.5-1.4,0.7s-0.8,0.3-1.1,0.4c0.5,0,1-0.1,1.5-0.1c1.5-0.2,3.1-0.8,4.3-1.3
		C36.2,95.1,35.9,95.8,35.6,96.6z M35.8,101.6C35.8,101.6,35.8,101.6,35.8,101.6L35.8,101.6z M35.3,98.1c0,0.1-0.4,2.1-0.6,2.9
		c-0.1,0.3-0.3,0.4-0.6,0.3c-0.9-0.2-1.8-0.4-2.8-0.6c0.7-0.7,1.2-1.3,1.8-1.9c0.1-0.1,0.4-0.2,0.6-0.3
		C34.3,98.4,34.8,98.3,35.3,98.1z M28,85.4c0.6-0.1,1.3-0.3,2.1-0.5c1.5-0.4,3-0.8,2.9-0.8c-0.5,0.5-0.9,1.1-1.2,1.8
		c-0.3,0.6-0.6,1.3-0.9,2c-2.2,1.3-4.1-1.1-6.2-1.7c0.6-0.9,1.1-1.9,2-2.7c0.3-0.3,0.6-0.5,1-0.7c1.3-0.8,2.6-0.9,3.9-0.1
		c0.3,0.2,0.7,0.3,1.3,0.5c-0.9,0.2-1.8,0.5-2.8,0.9c-0.5,0.2-1,0.4-1.5,0.7c-0.5,0.3-1.1,0.6-1.7,1C27,85.6,27.4,85.5,28,85.4z
		 M26.6,88.2c1.2,0.6,2.4,1,3.5,1.2c-1.9,1.1-3.8,2.1-5.9,2.8c2.1-0.2,4-0.8,5.9-0.9c-1.1,1.1-1.1,3.2-2.3,3.8
		c-1.9,0.6-4.9-0.4-5.3-2.5c-0.4-1.5,0.9-3,2.1-4.3C25.2,87.7,25.8,87.6,26.6,88.2z M28,98c0.6,0.1,2.7,0.8,3.2,1
		c-0.3,0.4-0.6,0.8-0.9,1.1c-0.1,0.1-0.4,0.2-0.6,0.2c-0.5-0.2-1.1-0.3-1.6-0.5c-0.5-0.2-1.1-0.4-1.7-0.6C27,98.7,27.5,98.3,28,98z
		 M36.7,89c-0.2,0.2-0.6,1-0.8,1.5c0.9,0.5,2.1,0.8,2.9,1.2c-1.4,0.6-2.8,0.6-4.2-0.1c-1.1-0.6-2.2-1.2-3.3-1.8
		c1.3-3.6,2.8-5,3.2-5.4c1.1,1.1,0.4,2-0.3,2.9C35,87.9,35.8,88.4,36.7,89z M31.6,79.9c0.8-0.3,1.6-0.6,2.5-0.9
		c0.1,0.2,0.2,0.5,0.2,0.7c0.2,0.6,0.4,0.7,1,0.5c0.9-0.5,1.9-0.9,2.8-1.5c0.3-0.2,0.6-0.2,0.9,0c0.3,0.2,0.6,0.3,0.9,0.5
		c-1.1,0.2-2.1,0.3-3.1,0.4c0,0.1,0,0.6,0,0.6s0,0.7-0.1,0.8c-0.1,0.1-1.2,0.4-1.4,0.4c-2.7,0.5-5.6-1-6.4-1.4
		c0.7-0.6,1-0.6,1.6-0.2C30.8,80,31.3,80,31.6,79.9z M29.1,78c0.5-0.1,1,0.1,1,0.5c-1,0.3-2,0.8-2.9,1.4c0.4,0.4,1.1,0.8,1.6,1.3
		c-0.5,0.1-1.4,0.5-1.9,0.8c-2.7-1-5.2-0.7-5.4-0.8C25.3,78.5,28.3,78.1,29.1,78z M26.2,62.6c0.2,0.1,0.3,0.2,0.5,0.3
		c-0.9,0.5-1.8,1.1-2.6,1.6c-0.2,0.1-0.3,0.2-0.5,0.3c-0.3,0.2-0.3,0.4-0.1,0.7c0.5,0.5,1,1,1.5,1.5c0.3,0.3,0.1,0.4,0,0.8
		c-0.2,0.4-0.7,0.9-1.1,1.2c-0.4,0.3-0.5,0.3-0.8,0.1c-1.3-0.9-2.2-2-2.8-3.4c-0.5-1-0.2-1.3,0.6-2c1.4-1.2,2.7-2,4.5-2.6
		c0.2-0.1,0.3-0.1,0.6-0.2c-0.1,0.2-0.2,0.3-0.2,0.5C25.4,62.1,25.4,62.2,26.2,62.6z M18.3,70.7c0.5,0.2,1,0.3,1.4,0.4
		c1.3,0.3,2.2,0.5,2.8,0.6c-0.6,0.6-1.3,1.2-2,1.7c-0.1,0.1-0.3,0.1-0.5,0.1c-0.5,0-0.9-0.1-1.4-0.2c-0.5-0.2-1-0.3-1.5-0.5
		c-1.6-0.6-4.4-2-2.9-3.9c1.3-1.3,3.2-1.7,5-2.4c0.1,0,0.2,0,0.4,0.4c0.9,1.6,1.7,2.1,2.8,3.2c0.1,0.1,0.4,0.2,0.4,0.5
		c-0.4-0.1-1-0.1-1.6-0.2S17,70,16.1,70C16.8,70.2,17.6,70.5,18.3,70.7z M14.8,64.3c0.7,0.2,1,0.4,1.7,0.6c0.5,0.1,1.1,0.3,1.6,0.4
		c-0.7,0.5-1.5,1-2.4,1.4c-0.4,0.2-0.9,0.3-1.4,0.4c-2.9,0.6-4.6-2.6-3.7-5c0.2-0.6,0.5-1.1,1.1-1.5c0.9-0.6,2-0.7,3-0.3
		c0.5,0.2,0.9,0.5,1.3,0.8c0.6,0.5,0.8,0.6,1.3,1.1c0.7,0.8,1.1,1.3,1.3,1.9c-0.6,0-1-0.1-1.5-0.2c-0.5-0.1-1.1-0.1-1.6-0.2
		c-1-0.2-2.2-0.3-3.4-0.4C12.8,63.7,14,64,14.8,64.3z M18.5,58.6c0.4,0.1,3.8,1.1,5.2,1.4c0.1,0,0.5,0.1,0.6,0.2
		c-0.4,0.2-1.2,0.6-1.5,0.8c-1,0.7-0.9,0.6-2,1.3c-0.4,0.2-1.3,0.2-1.7,0c-0.4-0.3-2.1-1.6-3.1-3c-0.3-0.5-0.5-1.4,0-1.8
		c2.6-2.2,5.7-1.2,6.6-1c0.9,0.2,2.7,1.4,2.8,2.8C23.3,58.6,18.5,58.5,18.5,58.6z M23,51.8c0.6,0.3,1.4,1,1.5,1.8
		c0.1,0.3-4.8-1.3-4.6-1.1c1.2,1.1,5.4,2.3,5.5,2.3c-0.6,0.4-1.7,0.4-2.7,0.3c-0.5-0.1-1.1-0.2-1.6-0.3c-0.6-0.1-1.1-0.3-1.5-0.5
		c-0.5-0.2-0.9-0.5-1.4-0.9c-0.8-0.7-1.6-1.5-2.7-2C17.4,50.4,21.2,50.7,23,51.8z M10.7,52.9c0.6-0.3,1.2-0.4,1.7-0.5
		c0.6-0.1,1.1-0.1,2,0.1c1.1,0.3,2.1,0.7,2.9,1.4c-1.3,0-2.1-0.1-4-0.1c1.8,0.6,2.8,0.9,4.6,1.3c-1.8,1.6-4,0.8-5.9-0.2
		c-0.5-0.3-0.8-0.5-1.2-0.8C10.4,53.8,10,53.3,10.7,52.9z M7.4,55.1c2.8-0.6,5.8,1.1,6.7,2.4c-1.5-0.2-3.9-0.5-5.7-0.4
		c1.9,0.5,3.8,1,5.2,1.5c-2.3,2.6-7.7,0.1-7.8-1.7C5.7,55.7,7,55.2,7.4,55.1z M2.2,63.5c-0.3-0.4-0.4-1-0.4-2
		c0.7-3.1,4.7-2.9,6.9-1.2c0.5,0.4,1.1,1,1.1,1.8c-2,0.1-3.6-0.3-6.4-0.1c2.9,0.9,4.4,0.7,6.2,1.9C7.7,66.2,4,65.6,2.2,63.5z
		 M4.9,68.4c-0.2-0.3-0.3-0.6-0.5-1c2.4-2,6.4-2.3,8,1.3c-1.7,0-3-0.4-5.1-0.6c2.5,1.2,3.5,1.4,5,1.8C10.1,70.8,6.4,70.7,4.9,68.4z
		 M7,71.8c1,0.1,2-0.7,4.3-0.5c1.5,0.1,2.9,0.4,3.9,1.9c-1.7-0.4-3.6-0.6-5.3-0.6c1.5,0.4,2.7,0.8,4.2,1.3
		C12.1,75.1,8.7,74.9,7,71.8z M13.6,76.6c-0.6-0.2-1.1-0.5-1.7-0.8c0.9,0.1,3.8-1.1,4.4-1.2s1-0.2,1.6-0.2c0.7,0,1.2,0.1,1.7,0.2
		c-0.4,0.5-0.9,1.1-1.3,1.5C16.4,77.9,14.2,76.8,13.6,76.6z M17,78.9c0.6-0.5,1.3-1.3,1.9-1.8c0.3-0.4,0.7-0.8,1-1.2
		c0.3-0.4,0.6-0.8,1-1.2c0.6-0.8,1.3-1.6,2.3-2c-0.1,0.6-0.1,1.1-0.3,1.6c-0.1,0.4,0,0.6,0.4,0.7c0.4,0.1,0.8,0.3,1.3,0.6
		c-1.5,0.7-2.9,1.3-4.3,1.9c1.6,0.1,4.6-1,5.5-1.4c0.1,0.8,0.2,0.9-0.6,1.3c-0.8,0.3-2.6,1.7-4.8,2c-0.5,0.1-1.1,0.1-1.7,0
		C18.2,79.4,17.6,79.2,17,78.9z M20.3,82.5c0.4-0.1,1.8-0.6,4.3-0.3c-0.5,0.3-1.4,0.7-2,0.9c-0.5,0.3-1.1,0.5-1.5,0.9
		c1.3-0.4,2.8-0.6,4.2-1.3c-0.8,3.4-5.5,2.9-6.6,2.7C17.1,84.9,18.7,83.1,20.3,82.5z M16.9,88.6c0.3-0.6,0.7-1,1.1-1.3
		c0.4-0.3,0.9-0.5,1.5-0.7c1.1-0.3,2.2-0.3,3.4-0.3c-0.9,0.7-2,1.1-3,1.7c-0.3,0.2-0.7,0.4-0.9,0.7c0.4-0.1,0.8-0.2,1.2-0.4
		c1.2-0.4,2.4-1,3.7-1c-0.5,1.3-1.2,2.2-1.9,2.7c-0.4,0.3-0.8,0.4-1.3,0.5c-1.5,0.5-3-0.3-4.6-0.5C16.3,89.6,16.6,89.1,16.9,88.6z
		 M18,97.4c-2.3-0.3-3.1-2.8-2.4-4.5c1.1-1.9,4.3-1.4,5.7-0.4c-1.5,0.9-3.2,1.3-4.7,2.5c1.4-0.4,3.5-1,5.1-1.2
		c-0.5,1.2-1.1,1.9-1.8,2.8C19.5,97,18.5,97.5,18,97.4z M22.7,97.3c-0.1,0.2-0.2,0.6-0.2,1.1c-0.1,0.5,0,1.4,0,1.4s-2.5,0.2-2.5-1.1
		c0-1.5,1.1-2.7,2.7-3.1c0.5-0.1,1-0.2,1.5-0.1c1,0.1,1.9,0.4,2.5,1.3c0.6,1-0.8,1.5-2.4,1.2C23.8,97.8,23.2,97.6,22.7,97.3z
		 M34.8,118.9c-3.8-0.9-8.9-2-12.3-3.1c1.3-0.9,2.5-1.7,3.7-2.6c1.5-1,3.3-2.3,4.8-3.4c-4-4-6.3-8.1-6.7-9.9
		c0.8,0.6,1.7,0.9,2.7,1.3c0.6,0.2,1.3,0.4,2,0.6c2.1,0.6,4.3,1.1,6.1,1.4c1.5,0.3,3.2,0.6,4.8,0.8c0.7,3.4,1.3,8.2,1.9,10.9
		c0.4,1.1,1,1.8,2.4,2.1c1.9,0.4,3.2,0.2,4.7,0c2.8-0.3,5.1-1.3,7.8-1.6c0.8-0.1,1.4,0,1.8,0.2c0.4,0.2,0.7,0.4,0.9,0.7
		c0.6,1,0.1,2.4-1.1,2.8c-0.5,0.2-1.1,0.5-1.7,0.6C49.5,121.5,37.7,119.6,34.8,118.9z M44.2,113.7c0.5-0.6,1.1-1,1.8-1.3
		c0.7-0.3,2.3-1,5.2-1.5s4.9-0.4,7-0.3c0,0,1,2.6,1.2,3.3c-1.6-0.6-5.4,0-8.7,0.9c-3.1,0.8-5,0.8-5.8,0.6
		C44.1,115.2,43.8,114.4,44.2,113.7z M57.1,123.5c-0.1,0.5-0.4,2.2-0.4,2.7c-0.1,0.5-0.2,1.6-0.6,1.2c-0.5-0.6-1.4-1.6-2.1-5.2
		c1-0.1,2.3-0.3,3.4-0.5C57.4,122.2,57.2,123,57.1,123.5z M61.3,126.7c-0.1,1.7-0.6,3.4-0.6,5.1c-0.6-0.2-0.8-0.5-1.3-1
		c-0.3-0.3-0.5-0.6-0.8-1c-0.7-1.2-1.2-2.8-0.4-4.6c0.1,0.7,0.2,1.3,0.4,1.9s0.5,1.2,0.9,1.7c-0.2-0.6-0.3-1.1-0.4-1.7
		c-0.1-0.5-0.2-1-0.2-1.5c-0.1-0.9-0.1-1.6-0.1-1.7c0.5,0.2,0.9,0.5,1.3,0.8c0.4,0.3,0.7,0.5,0.9,0.9
		C61.2,125.7,61.3,126.1,61.3,126.7z M61.5,124.4c-0.6-0.2-1.1-0.6-1.6-1.2s-1.1-1.2-1-1.7c0.1-0.8,1.7-0.8,1.9-1.9
		c0.1,0.5,0.3,0.9,0.6,1.4s0.6,1.2,0.7,1.7c0-0.5-0.1-1.3-0.2-1.8s-0.2-1.1-0.2-1.6c-0.1-1-0.1-1.8,0.4-2c1.1-0.4,1.8,0.4,2.1,1.7
		c0.1,0.4,0.2,0.9,0.2,1.4c0,1.4-0.4,3.2-1.4,4C62.6,124.5,61.9,124.5,61.5,124.4z M66.4,112.4c1.3,0.4,2.1,0.5,3.3,0.7
		c0,1.5-0.8,4.4-3.1,4.4c-0.6,0-1.1-0.2-1.7-0.6c-1.3-0.9-2.5-2.3-3.1-3.6c-0.2-0.4-0.4-0.7-0.5-1.1c-0.1-0.4-0.3-0.8-0.4-1.2
		c0.5,0.1,1.4,0.4,2.3,0.6s1.7,0.4,1.9,0.5c0.7,1.4,0.7,2.1,1.6,4C66.7,115.3,66.4,112.7,66.4,112.4z M73.6,115.3
		c-0.1-0.4-0.1-0.9-0.2-1.3c0.8,0.2,1.8,0.4,2.5,0.6c0.1,0,0.6,2.9,0.4,4.5c-0.1,0.4-0.1,0.7-0.3,1.3c-0.2,0.5-0.3,0.8-0.8,1.2
		c-1.5,1-3-0.8-3.9-1.8c-0.4-0.4-0.7-0.8-1-1.3c-0.3-0.4-0.5-0.8-0.4-1.4c0.3-1.5,1.6-2.3,2-3.7c0.9,1.7,1.5,3.3,2,5.4
		C73.9,117.7,73.8,116.8,73.6,115.3z M71.7,125.5c-0.5,0.7-0.8,1.4-1.5,2c-0.6,0.4-1.3,0.6-2.1,0.4c-1.3-0.4-2.5-1.1-3.2-2.3
		c-1.1-2.3,0.6-4.5,1.9-6.4c0.6,2.3,1.3,4.3,1.9,6.6c0.2-1.5-0.4-3-0.4-4.6c-0.1-1-0.1-1.8-0.1-2.2
		C70.5,120.1,73.4,122.4,71.7,125.5z M64.6,134.4c-3-0.9-3-4.9-2.3-7.6c0.6,1.5,0.9,3.2,2.1,4.5c-0.6-1.7-0.9-3.4-0.9-5.3
		c0.9,0.6,1.9,1.3,2.5,2.3c0.5,0.7,0.6,1.4,0.6,2.2C66.5,132.2,66.7,135,64.6,134.4z M72.9,135c-1.1,1.8-4.1,2-5.2,0.1
		c-0.3-0.5-0.5-1.1-0.6-1.7c-0.1-1.6,0.5-3.2,1.2-4.5c0.7,0.9,1,1.8,1.3,2.8c0.2,0.5,0.3,1,0.5,1.5c0.2,0.5,0.4,0.9,0.7,1.3
		c-0.1-0.5-0.3-1-0.4-1.5c-0.1-0.5-0.2-1-0.2-1.6c-0.1-1,0-2.1,0.4-3.1c0.7,1.3,1.7,2.3,2.4,3.7c0.2,0.4,0.5,0.9,0.5,1.5
		C73.3,134.1,73.1,134.7,72.9,135z M76.6,132.4c-0.9,0.9-2.1,0.6-2.6-0.4c-0.8-1.1-1.3-2.3-1.7-3.4c-0.2-0.8-0.2-1.5,0-2.3
		c0.4-0.9,0.6-1.9,1.5-2.5c0.4,1.9,0.8,3.8,1.3,5.7c0.2-1.7-0.6-3.4,0.2-5.1c0.8,1.3,1.4,2.6,1.9,4.4c0.1,0.4,0.1,0.8,0.2,1.3
		C77.3,131,77.1,131.8,76.6,132.4z M79.7,126.5c-0.2,0.7-0.9,2-1.3,2.7c-0.7-2.3-1.4-3-2.2-4.9c-0.3-0.7-0.2-1.6,0-2.3s1-2.2,1-2.2
		c0.1,0.4,0.6,3.9,1,5c0.2-0.8,0.2-3.5,0.1-4.2c0.4,0.5,0.8,1.1,1.1,1.7c0.3,0.6,0.6,1.4,0.6,2.2C80.1,125.5,80,125.8,79.7,126.5z
		 M79.4,119.9c-1-1.5-1.9-3.1-2.2-5c1.1,0.2,2.3,0.4,3.4,0.6c0.1,0,1,0.1,1.1,0.2c0.3,1.6,0,3.2-0.1,4.7c0,0.5-0.3,2.4-0.9,1.3
		c-0.2-0.4-0.2-0.4-0.5-0.8C79.9,120.7,79.6,120.3,79.4,119.9z M92.5,125c-0.3,0.2-0.5,0.4-0.9,0.7c0.8,0.7,2,1.3,2.8,2
		c-1.3,0.6-3.1,1.1-4.9,1.4c-0.8,0.1-0.8,0.1-0.6,0.8c0.1,0.5,0.2,1,0.2,1.6c-0.5-0.2-3.2-1.4-3.6-1.6c-0.1,0.8,0,1.1,0,1.7
		c-1.4-0.9-2.4-1.8-3.7-2.7c-0.2,0.8-0.4,1.2-0.6,1.9c-1.7-2,0.4-4.1,0.5-6c0-0.9,0.9-1.6,1.1-3.1c0.1-0.6,0.1-2.1,0.1-2.2
		c0.6,1,0.8,2.2,1,3.2c0.1,0.5,0.1,1,0.2,1.6c0.1,1.5,0.2,2.6-0.2,4.4c1-2.3,0.9-2.6,0.9-4.2c0-0.2-0.1-0.5,0-0.9
		c1.1,1.5,2.9,3.3,4.5,3.6c-1.8-1.2-3.3-2.8-4.1-4.6c-0.8-1.8-1.4-3.6-2-5.4c1,0.9,1.9,1.8,3,2.6c0.7,0.5,1.7,0.7,2.4,0.8
		c-2.1-1-3.9-2.7-5-4.5c1.6,0.2,3.2,0.3,4.7,0.7c1,0.3,1.9,0.7,2.8,1.4c0.5,0.4,0.3,0.9-0.2,1.3c-0.2,0.1-0.3,0.2-0.6,0.4
		c0.4,0.4,0.8,0.8,1.1,1.1c0.4,0.4,0.4,0.5-0.1,0.8c-0.4,0.2-0.8,0.4-1.3,0.6c0.7,0.6,1.3,1.1,1.9,1.6c0.2,0.1,0.4,0.3,0.5,0.4
		C92.8,124.6,92.8,124.8,92.5,125z M98.5,115.3C98.5,115.3,98.5,115.3,98.5,115.3L98.5,115.3c-0.1,0-0.1,0-0.1,0s0,0,0,0l0,0
		c0,0-0.1,0-0.1,0c-11.4,0-21.7-2.6-24.6-3.2c-2.9-0.6-5.5-1.2-8.5-1.9c-2.6-0.6-5.5-1.2-8.1-1.5c-2.7-0.2-10.1,0-14,3.2
		c-0.1-1-0.3-2.1-0.4-3.1c-0.4-2.8-1.7-9.5-1.6-12.1c0.1-1.3,1.1-2.1,2.2-2.7c1.5-0.7,3.4-1.1,5.1-1.3c1.5-0.2,3.2-0.3,4.7-0.3
		c1.8,0,3.4,0.1,5.4,0.3c2.7,0.3,5.5,0.9,8.2,1.4c2.9,0.6,5.7,1.4,8.6,2c12.6,2.7,15.2,3.1,22.9,3.3l0,0c0,0,0,0,0,0s0,0,0,0l0,0
		c0,0,0.1,0,0.1,0c0,0,0.1,0,0.1,0l0,0c0,0,0,0,0,0c0,0,0,0,0,0l0,0c7.7-0.2,10.3-0.5,22.9-3.3c2.9-0.6,5.7-1.4,8.6-2
		c2.7-0.5,5.5-1.1,8.2-1.4c2-0.2,3.6-0.3,5.4-0.3c1.5,0,3.2,0.1,4.7,0.3c1.7,0.2,3.6,0.5,5.1,1.3c1.1,0.6,2.1,1.3,2.2,2.7
		c0.2,2.5-1.1,9.3-1.6,12.1c-0.2,1-0.3,2.1-0.4,3.1c-3.9-3.2-11.3-3.5-14-3.2c-2.6,0.2-5.6,0.9-8.1,1.5c-2.9,0.7-5.5,1.3-8.5,1.9
		C120.2,112.7,110,115.3,98.5,115.3z M151.9,115.5c-0.8,0.3-2.7,0.2-5.8-0.6c-3.4-0.9-7.1-1.5-8.7-0.9c0.2-0.7,1.2-3.3,1.2-3.3
		c2.1-0.1,4-0.2,7,0.3c3,0.5,4.5,1.2,5.2,1.5c0.7,0.3,1.3,0.7,1.8,1.3C153,114.4,152.7,115.2,151.9,115.5z M123.1,118.9
		c0.5-2.1,1-3.7,2-5.4c0.4,1.3,1.7,2.1,2,3.7c0.1,0.6-0.1,1-0.4,1.4s-0.6,0.8-1,1.3c-0.9,1-2.4,2.7-3.9,1.8
		c-0.5-0.4-0.7-0.7-0.8-1.2c-0.2-0.6-0.3-1-0.3-1.3c-0.3-1.6,0.3-4.5,0.4-4.5c0.7-0.2,1.7-0.4,2.5-0.6c-0.1,0.4-0.2,0.9-0.2,1.3
		C123.1,116.8,123,117.7,123.1,118.9z M128.7,119c0,0.4,0,1.2-0.1,2.2c0,1.6-0.6,3.1-0.4,4.6c0.6-2.3,1.3-4.3,1.9-6.6
		c1.3,1.9,3,4.2,1.9,6.4c-0.8,1.1-1.9,1.9-3.2,2.3c-0.8,0.2-1.5,0-2.1-0.4c-0.8-0.6-1.1-1.3-1.5-2
		C123.5,122.4,126.4,120.1,128.7,119z M130.3,117.5c-2.3,0-3.2-2.8-3.1-4.4c1.1-0.2,1.9-0.4,3.3-0.7c0,0.3-0.3,2.8-0.3,3.8
		c0.9-1.9,0.9-2.6,1.6-4c0.3-0.1,1.1-0.3,1.9-0.5s1.8-0.4,2.3-0.6c-0.1,0.4-0.2,0.8-0.4,1.2s-0.3,0.8-0.5,1.1
		c-0.7,1.3-1.8,2.6-3.1,3.6C131.5,117.4,130.9,117.5,130.3,117.5z M115.6,130.8c-0.2-0.8-0.4-1.2-0.6-1.9c-1.3,0.9-2.3,1.8-3.7,2.7
		c-0.1-0.6,0.1-0.9,0-1.7c-0.4,0.2-3.1,1.5-3.6,1.6c0.1-0.6,0.2-1.1,0.2-1.6c0.2-0.8,0.2-0.7-0.6-0.8c-1.7-0.3-3.6-0.8-4.9-1.4
		c0.8-0.7,2-1.3,2.8-2c-0.3-0.3-0.6-0.5-0.9-0.7c-0.3-0.2-0.3-0.4,0-0.6c0.2-0.1,0.4-0.3,0.5-0.4c0.6-0.5,1.2-1.1,1.9-1.6
		c-0.5-0.2-0.9-0.4-1.3-0.6c-0.5-0.2-0.5-0.4-0.1-0.8c0.4-0.3,0.7-0.7,1.1-1.1c-0.3-0.2-0.4-0.3-0.6-0.4c-0.6-0.4-0.7-0.8-0.2-1.3
		c0.9-0.7,1.8-1.2,2.8-1.4c1.5-0.4,3.1-0.5,4.7-0.7c-1.1,1.8-2.8,3.5-5,4.5c0.8-0.1,1.8-0.4,2.4-0.8c1.1-0.7,2-1.7,3-2.6
		c-0.7,1.8-1.3,3.6-2,5.4c-0.8,1.8-2.3,3.4-4.1,4.6c1.7-0.3,3.5-2.1,4.5-3.6c0,0.4,0,0.7,0,0.9c0,1.6-0.2,1.9,0.9,4.2
		c-0.3-1.8-0.3-2.8-0.2-4.4c0-0.5,0.1-1,0.2-1.6c0.2-1,0.4-2.2,1-3.2c0,0.2,0,1.7,0.1,2.2c0.3,1.5,1.1,2.2,1.1,3.1
		C115.2,126.8,117.3,128.9,115.6,130.8z M116.2,121.8c-0.5,1-0.8-0.8-0.9-1.3c-0.2-1.6-0.4-3.2-0.1-4.7c0-0.1,1-0.2,1.1-0.2
		c1-0.2,2.3-0.4,3.4-0.6c-0.4,1.9-1.2,3.5-2.2,5c-0.2,0.4-0.5,0.8-0.7,1.2C116.5,121.4,116.5,121.4,116.2,121.8z M118.4,129.2
		c-0.4-0.7-1.1-2-1.3-2.7c-0.2-0.7-0.3-1-0.3-2.2c0-0.7,0.3-1.6,0.6-2.2c0.3-0.6,0.7-1.2,1.1-1.7c0,0.7-0.1,3.4,0.1,4.2
		c0.4-1.1,0.9-4.7,1-5c0.1,0,0.8,1.6,1,2.2c0.2,0.7,0.3,1.7,0,2.3C119.8,126.2,119.1,126.9,118.4,129.2z M120.3,132.4
		c-0.6-0.6-0.7-1.3-0.7-2.2c0-0.5,0.1-1,0.2-1.3c0.5-1.7,1.1-3,1.9-4.4c0.8,1.7,0,3.4,0.2,5.1c0.6-1.9,0.9-3.8,1.3-5.7
		c0.9,0.6,1.1,1.5,1.5,2.5c0.2,0.8,0.2,1.5,0,2.3c-0.4,1.1-0.9,2.3-1.7,3.4C122.4,132.9,121.3,133.3,120.3,132.4z M129.8,133.4
		c0,0.5-0.3,1.2-0.6,1.7c-1.2,1.9-4.2,1.7-5.2-0.1c-0.3-0.3-0.4-0.9-0.4-1.5c0-0.6,0.2-1,0.5-1.5c0.6-1.4,1.6-2.4,2.4-3.7
		c0.4,1,0.5,2.1,0.4,3.1c0,0.5-0.1,1-0.2,1.6c-0.1,0.5-0.2,1-0.4,1.5c0.3-0.4,0.5-0.9,0.7-1.3c0.2-0.5,0.3-1,0.5-1.5
		c0.3-1,0.6-2,1.3-2.8C129.3,130.2,129.9,131.8,129.8,133.4z M132.2,134.4c-2.1,0.6-1.9-2.3-1.9-3.8c0-0.8,0.1-1.5,0.6-2.2
		c0.6-1,1.5-1.8,2.5-2.3c0,1.9-0.4,3.6-0.9,5.3c1.1-1.3,1.5-3,2.1-4.5C135.2,129.5,135.2,133.5,132.2,134.4z M135.3,124.4
		c-0.3,0.1-1.1,0.1-1.5-0.2c-1.1-0.8-1.5-2.5-1.4-4c0-0.5,0.1-0.9,0.2-1.4c0.3-1.3,1-2.1,2.1-1.7c0.6,0.2,0.6,1,0.4,2
		c-0.1,0.5-0.1,1-0.2,1.6c-0.1,0.5-0.2,1.4-0.2,1.8c0.1-0.5,0.4-1.2,0.7-1.7s0.5-0.9,0.6-1.4c0.2,1.1,1.7,1.1,1.9,1.9
		c0.1,0.6-0.5,1.2-1,1.7C136.4,123.8,136,124.2,135.3,124.4z M138.3,129.7c-0.2,0.4-0.5,0.7-0.8,1c-0.5,0.5-0.7,0.8-1.3,1
		c0-1.7-0.6-3.4-0.6-5.1c0-0.6,0.1-0.9,0.3-1.3c0.2-0.3,0.5-0.6,0.9-0.9c0.4-0.3,0.8-0.6,1.3-0.8c0,0.2,0,0.8-0.1,1.7
		c-0.1,0.4-0.1,1-0.2,1.5c-0.1,0.5-0.2,1.1-0.4,1.7c0.4-0.5,0.7-1,0.9-1.7s0.4-1.3,0.4-1.9C139.5,127,139,128.6,138.3,129.7z
		 M140.7,127.4c-0.4,0.4-0.5-0.7-0.6-1.2c0-0.5-0.3-2.2-0.4-2.7c-0.1-0.5-0.2-1.3-0.3-1.8c1.1,0.2,2.4,0.4,3.4,0.5
		C142.2,125.8,141.2,126.8,140.7,127.4z M165.8,109.9c1.5,1,3.3,2.3,4.8,3.4c1.2,0.8,2.4,1.7,3.7,2.6c-3.5,1.1-8.5,2.2-12.3,3.1
		c-2.9,0.7-14.7,2.7-21.8,1c-0.6-0.1-1.2-0.4-1.7-0.6c-1.2-0.5-1.8-1.8-1.1-2.8c0.2-0.3,0.5-0.5,0.9-0.7s1-0.2,1.8-0.2
		c2.8,0.2,5.1,1.3,7.8,1.6c1.5,0.2,2.8,0.4,4.7,0c1.3-0.3,2-1,2.4-2.1c0.6-2.7,1.3-7.6,1.9-10.9c1.5-0.2,3.2-0.5,4.8-0.8
		c1.7-0.3,4-0.9,6.1-1.4c0.7-0.2,1.4-0.4,2-0.6c1-0.4,1.9-0.7,2.7-1.3C172.1,101.7,169.8,105.9,165.8,109.9z M174.4,99.7
		c0,0,0-0.9,0-1.4s-0.1-0.9-0.2-1.1c-0.5,0.3-1.1,0.5-1.6,0.6c-1.6,0.3-2.9-0.2-2.4-1.2c0.6-0.9,1.5-1.2,2.5-1.3
		c0.5-0.1,1,0,1.5,0.1c1.6,0.4,2.7,1.6,2.7,3.1C177,99.9,174.4,99.7,174.4,99.7z M181.2,92.8c0.8,1.7-0.1,4.3-2.4,4.5
		c-0.4,0.1-1.5-0.4-1.8-0.8c-0.8-0.9-1.3-1.6-1.8-2.8c1.6,0.1,3.7,0.7,5.1,1.2c-1.5-1.1-3.2-1.5-4.7-2.5
		C176.9,91.5,180,91,181.2,92.8z M179.9,88.6c0.4,0.5,0.6,1.1,0.9,1.6c-1.5,0.2-3,1-4.6,0.5c-0.4-0.1-0.9-0.3-1.3-0.5
		c-0.8-0.5-1.4-1.3-1.9-2.7c1.3,0,2.4,0.5,3.7,1c0.4,0.1,0.8,0.3,1.2,0.4c-0.3-0.3-0.6-0.5-0.9-0.7c-1-0.6-2.2-1-3-1.7
		c1.1,0,2.3,0,3.4,0.3c0.5,0.1,1,0.3,1.5,0.7C179.3,87.6,179.6,88,179.9,88.6z M178.1,85.5c-1.1,0.2-5.8,0.7-6.6-2.7
		c1.3,0.8,2.8,0.9,4.2,1.3c-0.4-0.4-0.9-0.6-1.5-0.9c-0.5-0.3-1.4-0.7-2-0.9c2.5-0.3,3.9,0.1,4.3,0.3
		C178.2,83.1,179.7,84.9,178.1,85.5z M178.1,79.5c-0.6,0.1-1.2,0.1-1.7,0c-2.2-0.3-4-1.6-4.8-2c-0.7-0.3-0.7-0.5-0.6-1.3
		c0.9,0.3,3.9,1.5,5.5,1.4c-1.4-0.6-2.8-1.2-4.3-1.9c0.6-0.2,0.9-0.4,1.3-0.6c0.4-0.1,0.4-0.4,0.4-0.7c-0.1-0.5-0.2-1-0.3-1.6
		c1,0.4,1.7,1.2,2.3,2c0.3,0.4,0.6,0.8,1,1.2s0.7,0.8,1,1.2c0.5,0.5,1.3,1.3,1.9,1.8C179.3,79.2,178.7,79.4,178.1,79.5z M183.2,76.6
		c-0.6,0.2-2.8,1.4-4.7-0.5c-0.4-0.4-0.9-1-1.3-1.5c0.6-0.1,1-0.2,1.7-0.2c0.5,0,1.1,0.1,1.6,0.2c0.5,0.1,3.4,1.3,4.4,1.2
		C184.4,76,183.8,76.3,183.2,76.6z M182.8,73.9c1.5-0.6,2.7-0.9,4.2-1.3c-1.7,0-3.6,0.2-5.3,0.6c0.9-1.4,2.4-1.8,3.9-1.9
		c2.3-0.2,3.3,0.6,4.3,0.5C188.1,74.9,184.7,75.1,182.8,73.9z M192,68.4c-1.5,2.3-5.2,2.4-7.4,1.5c1.5-0.4,2.5-0.6,5-1.8
		c-2,0.2-3.4,0.6-5.1,0.6c1.6-3.5,5.6-3.3,8-1.3C192.3,67.8,192.1,68.1,192,68.4z M194.6,63.5c-1.7,2.2-5.5,2.7-7.4,0.5
		c1.8-1.2,3.3-1,6.2-1.9c-2.8-0.2-4.4,0.2-6.4,0.1c0-0.8,0.6-1.4,1.1-1.8c2.2-1.8,6.2-2,6.9,1.2C195.1,62.4,194.9,63,194.6,63.5z"/>
	<g>
		<g>
			<circle class="st2" cx="98.7" cy="49.7" r="48.8"/>
			<path d="M98.7,99.4c-13.3,0-25.8-5.2-35.2-14.6C54.2,75.5,49,63,49,49.7c0-13.3,5.2-25.8,14.6-35.2C72.9,5.2,85.4,0,98.7,0
				c13.3,0,25.8,5.2,35.2,14.6s14.6,21.9,14.6,35.2c0,13.3-5.2,25.8-14.6,35.2C124.5,94.3,112,99.4,98.7,99.4z M98.7,1.9
				c-12.8,0-24.8,5-33.8,14c-9,9-14,21-14,33.8s5,24.8,14,33.8c9,9,21,14,33.8,14s24.8-5,33.8-14c9-9,14-21,14-33.8s-5-24.8-14-33.8
				C123.5,6.9,111.5,1.9,98.7,1.9z"/>
		</g>
		<g>
			<path d="M58.1,56.6l-0.2-1.7l5-0.5l-0.2-1.8l-5,0.5l-0.2-1.7l6.1-0.6l0.5,5.1L58.1,56.6z"/>
			<path d="M59.7,62.8l3.1-0.9c0.3-0.1,0.6-0.1,0.9-0.2l0-0.1c-0.3,0-0.6,0-0.9-0.1l-3.6-0.7l-0.5-1.5l5.9-1.8L65,59l-3,0.9
				c-0.3,0.1-0.6,0.1-0.9,0.2l0,0.1c0.3,0,0.7,0,1,0.1l3.5,0.8l0.5,1.5l-5.9,1.8L59.7,62.8z"/>
			<path d="M65.7,68.5c0.4,0.9,0,1.4-0.8,1.9c-1.1,0.6-1.7,0.2-2.4-1.2c-0.6-1.1-0.9-1.7-1.2-2.5l5.4-2.8c0.4,0.6,0.7,1.2,1.2,2.2
				c0.8,1.5,0.7,2.1-0.4,2.7C66.7,69.2,66.1,69.1,65.7,68.5L65.7,68.5z M63.3,68.4c0.3,0.6,0.5,0.6,1,0.3c0.6-0.3,0.6-0.5,0.3-1.1
				l-0.4-0.7l-1.4,0.7L63.3,68.4z M65.6,67.2c0.3,0.5,0.4,0.6,0.9,0.3c0.5-0.2,0.5-0.4,0.2-1l-0.4-0.7l-1.2,0.6L65.6,67.2z"/>
			<path d="M70.3,75.1c-2,1.5-3,1.4-4.2-0.2c-1.2-1.6-1.1-2.6,0.8-4.1c2-1.5,3-1.4,4.2,0.2C72.3,72.6,72.2,73.6,70.3,75.1z M68,72.2
				c-1.2,0.9-1.4,1.3-0.9,2c0.5,0.6,0.9,0.5,2.1-0.4s1.4-1.3,0.9-2C69.6,71.2,69.2,71.2,68,72.2z"/>
			<path d="M74.1,78.7c0.7,0.7,0.5,1.3-0.1,2.1c-0.8,0.9-1.6,0.7-2.7-0.3c-0.9-0.8-1.4-1.3-2-1.9l4.1-4.5c0.6,0.5,1.1,0.9,1.9,1.6
				c1.2,1.1,1.4,1.8,0.6,2.7C75.3,79,74.8,79.1,74.1,78.7L74.1,78.7z M71.9,79.4c0.5,0.4,0.7,0.4,1.1,0c0.4-0.5,0.4-0.7,0-1.1
				l-0.6-0.6l-1,1.2L71.9,79.4z M73.6,77.5c0.4,0.4,0.6,0.4,1,0c0.4-0.4,0.3-0.6-0.1-1l-0.6-0.5l-0.9,1L73.6,77.5z"/>
			<path d="M76.5,82.6l-1.1,1l-1.4-0.9l4.5-3.9c0.2-0.2,0.5-0.2,0.7-0.1l1.3,0.8c0.2,0.1,0.3,0.4,0.2,0.7L79,85.9L77.6,85l0.5-1.4
				L76.5,82.6z M79,80.9c0.1-0.2,0.2-0.4,0.2-0.6L79,80.1c-0.1,0.2-0.3,0.3-0.4,0.5l-1.2,1.1l1.1,0.7L79,80.9z"/>
			<path d="M82.8,81c0.7,0.2,1.2,0.4,2.3,0.9c1.7,0.7,2,1.4,1.4,2.8c-0.6,1.5-1.3,1.7-2.8,1c-0.3-0.1-0.6-0.3-0.9-0.5l-0.9,2
				l-1.5-0.7L82.8,81z M83.9,84.5c0.6,0.2,0.8,0.2,1-0.5c0.3-0.6,0.2-0.8-0.4-1.1l-0.7-0.3l-0.7,1.5L83.9,84.5z"/>
			<path d="M91.1,90.1c-0.9-0.1-2-0.4-3-0.6c-0.8-0.2-1.2-0.8-1-1.6l0.9-3.4c0.2-0.8,0.9-1.1,1.7-0.9c1,0.2,2.1,0.5,2.9,0.8
				l-0.4,1.1L90,84.9c-0.3-0.1-0.4,0-0.5,0.3l-0.2,0.7l2.3,0.6l-0.3,1.1L89,87l-0.2,0.9c-0.1,0.2,0,0.4,0.3,0.5l2.2,0.6L91.1,90.1z"
				/>
			<path d="M98.7,90.9L97,90.8l0.2-2.6l-1.8-0.1l-0.2,2.6l-1.7-0.1l0.4-6.1l1.7,0.1l-0.1,2.3l1.8,0.1l0.1-2.3l1.7,0.1L98.7,90.9z"/>
			<path d="M106.4,90.2l-1.7,0.2l-0.3-2.6l-1.8,0.2l0.3,2.6l-1.6,0.2l-0.8-6.1l1.6-0.2l0.3,2.2l1.8-0.2l-0.3-2.2l1.7-0.2L106.4,90.2
				z"/>
			<path d="M109.9,85.2c1.7-0.6,2.4-0.3,2.9,1.1c0.5,1.5,0.1,2.1-1.3,2.6c-1.1,0.4-1.7,0.6-2.5,0.8l0,0l-2-5.8l1.6-0.6l0.7,2.1
				L109.9,85.2z M110.8,87.8c0.5-0.2,0.6-0.4,0.4-1c-0.2-0.7-0.4-0.8-0.9-0.6l-0.6,0.2l0.6,1.6L110.8,87.8z M115.7,87.3l-1.6,0.6
				l-2-5.8l1.6-0.6L115.7,87.3z"/>
			<path d="M121.2,84.1l-1.7-2.7c-0.2-0.3-0.3-0.5-0.4-0.8l-0.1,0c0.1,0.3,0.1,0.6,0.2,0.9l0.2,3.7l-1.4,0.8l-3.2-5.2l1.3-0.8
				l1.6,2.7c0.1,0.2,0.3,0.5,0.4,0.8l0.1,0c-0.1-0.3-0.1-0.6-0.1-0.9l-0.2-3.6l1.4-0.8l3.2,5.2L121.2,84.1z M117.5,77
				c0.5,0.6,0.4,1.5-0.5,2.1c-0.9,0.5-1.8,0.3-2.1-0.4l0.9-0.5c0.2,0.5,0.5,0.5,0.8,0.3c0.3-0.2,0.4-0.4,0.1-0.9L117.5,77z"/>
			<path d="M122.9,75.3c0.3-0.5,0.7-1,1.3-1.7c1.1-1.2,1.7-1.4,2.7-0.5c0.6,0.6,0.8,1.1,0.3,1.7l0,0c0.7-0.6,1.3-0.5,2,0.2
				c0.9,0.9,0.7,1.6-0.2,2.6c-0.7,0.8-1.3,1.2-1.9,1.6l-0.7-0.8c0.6-0.5,1.1-0.9,1.5-1.4c0.4-0.4,0.4-0.6,0-1c-0.4-0.4-0.7-0.4-1,0
				l-0.9,0.9l-0.8-0.7l0.8-0.9c0.3-0.3,0.3-0.5-0.1-0.9c-0.4-0.3-0.5-0.3-0.9,0.1c-0.4,0.5-0.8,0.9-1.2,1.5L122.9,75.3z"/>
			<path d="M131,72.7l1,1.1l-1,1.4l-3.8-4.6c-0.2-0.2-0.2-0.5,0-0.7l0.9-1.3c0.1-0.2,0.4-0.3,0.7-0.2l5.7,1.8l-1,1.4l-1.4-0.5
				L131,72.7z M129.4,70.2c-0.2-0.1-0.4-0.2-0.6-0.3l-0.1,0.2c0.1,0.1,0.3,0.3,0.5,0.5l1.1,1.2l0.7-1L129.4,70.2z"/>
			<path d="M133.7,64.5c0.5-0.8,1.1-0.9,2-0.5c1.1,0.5,1.2,1.3,0.5,2.6c-0.5,1.1-0.8,1.8-1.2,2.5l-5.6-2.6c0.3-0.7,0.5-1.3,1-2.3
				c0.7-1.5,1.2-1.9,2.4-1.4C133.6,63.3,133.9,63.7,133.7,64.5L133.7,64.5z M132.7,65.3c0.2-0.5,0.2-0.7-0.3-0.9
				c-0.5-0.2-0.7-0.1-0.9,0.4l-0.3,0.7l1.2,0.6L132.7,65.3z M135.1,66.4c0.3-0.6,0.2-0.8-0.4-1c-0.6-0.3-0.8-0.2-1.1,0.4l-0.4,0.8
				l1.4,0.7L135.1,66.4z"/>
			<path d="M136.2,57c2.4,0.7,2.9,1.5,2.4,3.5c-0.5,2-1.4,2.5-3.8,1.8c-2.4-0.7-2.9-1.5-2.4-3.5C132.9,56.8,133.8,56.3,136.2,57z
				 M135.2,60.6c1.5,0.4,1.9,0.3,2.1-0.5c0.2-0.8-0.1-1.1-1.6-1.5c-1.5-0.4-1.9-0.3-2.1,0.5C133.4,59.9,133.7,60.2,135.2,60.6z"/>
			<path d="M139.8,51.5l-0.3,3.8l1.3,0.2l-0.1,1.2l-2.5-0.2l0.1-0.7c-1.2-0.5-2.4-0.9-3.6-1.1c-0.8-0.1-1.3-0.7-1.2-1.6l0.2-2.8
				l5,0.4l0.1-0.8l2.5,0.2l-0.1,1.2L139.8,51.5z M134.8,52.2l-0.1,0.6c0,0.3,0.1,0.4,0.4,0.5c1.6,0.3,2.5,0.6,3.3,1.1l0.2-1.8
				L134.8,52.2z"/>
		</g>
		<g>
			<path d="M98.7,96c-12.4,0-24-4.8-32.7-13.6S52.4,62.1,52.4,49.7S57.2,25.7,66,17S86.3,3.5,98.7,3.5c12.4,0,24,4.8,32.7,13.6
				S145,37.4,145,49.7s-4.8,24-13.6,32.7S111.1,96,98.7,96z M98.7,5c-12,0-23.2,4.7-31.6,13.1c-8.5,8.5-13.1,19.7-13.1,31.6
				s4.7,23.2,13.1,31.6c8.5,8.5,19.7,13.1,31.6,13.1s23.2-4.7,31.6-13.1s13.1-19.7,13.1-31.6s-4.7-23.2-13.1-31.6
				C121.9,9.6,110.7,5,98.7,5z"/>
		</g>
		<g>
			<circle class="st3" cx="98.7" cy="49.7" r="30.2"/>
			<path d="M98.7,80.7c-17.1,0-30.9-13.9-30.9-30.9c0-17.1,13.9-30.9,30.9-30.9c17.1,0,30.9,13.9,30.9,30.9
				C129.6,66.8,115.8,80.7,98.7,80.7z M98.7,20.3c-16.2,0-29.4,13.2-29.4,29.4s13.2,29.4,29.4,29.4c16.2,0,29.4-13.2,29.4-29.4
				S114.9,20.3,98.7,20.3z"/>
		</g>
		<g>
			<g>
				<path d="M65.6,31.2c0.8-1,1.2-0.9,3.8-0.3l-0.8,1.5c-2.3-0.5-2.6-0.6-3,0.1l-0.2,0.3c0.2,0.1,0.4,0.1,0.5,0.2l1.8,1l-0.8,1.5
					l-5.4-2.9l0.8-1.5l1.4,0.8c0.2,0.1,0.4,0.3,0.6,0.4l0.1-0.3c0.4-0.8,0-1.1-1.4-2.4l0.8-1.5C65.5,29.7,66,30,65.6,31.2L65.6,31.2
					z"/>
			</g>
			<g>
				<path d="M65.1,26.3c0.4-0.7,0.7-1.1,1.5-2c1.1-1.4,1.8-1.6,3.1-0.6c1.3,1,1.3,1.7,0.3,3c-0.2,0.3-0.5,0.5-0.7,0.8l1.7,1.3
					l-1,1.3L65.1,26.3z M68.8,26.1c0.4-0.5,0.3-0.7-0.2-1.1c-0.5-0.4-0.8-0.4-1.1,0.1L67,25.7l1.3,1L68.8,26.1z"/>
			</g>
			<g>
				<path d="M75.4,19.8c1.7,1.9,1.6,2.9,0.1,4.2c-1.5,1.4-2.5,1.3-4.2-0.5s-1.6-2.8-0.1-4.2C72.7,17.9,73.7,18,75.4,19.8z
					 M72.6,22.3c1,1.1,1.4,1.3,2,0.7c0.6-0.5,0.5-1-0.5-2.1c-1-1.1-1.4-1.3-2-0.7C71.5,20.8,71.6,21.2,72.6,22.3z"/>
			</g>
			<g>
				<path d="M82.9,18.6l-1.4,0.9l-2.6-4.3l-1.5,0.9l2.6,4.3l-1.4,0.9L75.3,16l4.4-2.7L82.9,18.6z"/>
			</g>
			<g>
				<path d="M88,13.3c0.9,2.3,0.4,3.2-1.5,4c-1.9,0.7-2.8,0.3-3.7-2c-0.9-2.3-0.4-3.2,1.5-3.9C86.2,10.6,87.2,11,88,13.3z
					 M84.5,14.6c0.5,1.4,0.9,1.7,1.6,1.4c0.7-0.3,0.8-0.7,0.3-2.1s-0.9-1.7-1.6-1.4C84.1,12.8,84,13.2,84.5,14.6z"/>
			</g>
			<g>
				<path d="M92,10.7l0.9,4.8l-1.6,0.3L90.4,11l-1.7,0.3L88.4,10l5.1-1l0.2,1.3L92,10.7z"/>
			</g>
			<g>
				<path d="M98.7,11.8c1.3,0.1,1.4,0.6,2.2,3.1l-1.7,0c-0.7-2.2-0.8-2.6-1.6-2.6l-0.3,0c0,0.2,0.1,0.4,0.1,0.6l0.1,2.1l-1.7,0
					l-0.2-6.1l1.7,0l0,1.6c0,0.2,0,0.5-0.1,0.8l0.3,0c0.9,0,1-0.6,1.4-2.4l1.7,0C99.9,11,99.9,11.5,98.7,11.8L98.7,11.8z"/>
			</g>
			<g>
				<path d="M105.6,15.6l0.5-3.2c0.1-0.3,0.1-0.6,0.2-0.9l-0.1,0c-0.1,0.3-0.3,0.6-0.5,0.8l-2.3,2.9L102,15l1-6l1.6,0.3l-0.5,3.1
					c0,0.3-0.1,0.6-0.2,0.9l0.1,0c0.2-0.3,0.3-0.6,0.5-0.8l2.3-2.8l1.6,0.3l-1,6L105.6,15.6z"/>
			</g>
			<g>
				<path d="M113.5,18.2l-1.6-0.6l0.9-2.5l-1.7-0.7l-0.9,2.5l-1.6-0.6l2.2-5.7l1.6,0.6l-0.8,2.1l1.7,0.7l0.8-2.1l1.6,0.6L113.5,18.2
					z"/>
			</g>
			<g>
				<path d="M118.9,21.1c-0.6-0.1-1.1-0.4-1.9-0.8c-1.7-1-1.9-2.1-0.7-4.1c1.2-2,2.3-2.3,3.9-1.3c0.8,0.5,1.1,0.8,1.5,1.2l-0.7,1
					c-0.5-0.3-0.8-0.5-1.5-1c-0.6-0.4-1-0.2-1.7,1c-0.7,1.2-0.7,1.6-0.1,2c0.7,0.4,1.2,0.7,1.7,0.9L118.9,21.1z"/>
			</g>
			<g>
				<path d="M124.2,21.6c0.8,1,0.6,1.4-0.5,3.8l-1.3-1.1c1-2.1,1.2-2.4,0.6-3l-0.2-0.2c-0.1,0.2-0.2,0.3-0.3,0.5l-1.3,1.5l-1.3-1.1
					l4-4.6l1.3,1.1l-1.1,1.2c-0.2,0.2-0.4,0.4-0.6,0.5l0.2,0.2c0.6,0.6,1.1,0.2,2.7-0.8l1.3,1.1C125.7,21.9,125.3,22.3,124.2,21.6
					L124.2,21.6z"/>
			</g>
			<g>
				<path d="M126.7,29.1l2.5-2c0.2-0.2,0.5-0.3,0.8-0.5l0,0c-0.3,0.1-0.6,0.2-0.9,0.3l-3.6,0.6l-1-1.3l4.8-3.8l1,1.2l-2.5,1.9
					c-0.2,0.2-0.5,0.4-0.8,0.5l0,0c0.3-0.1,0.6-0.2,0.9-0.2l3.6-0.6l1,1.3l-4.8,3.8L126.7,29.1z"/>
			</g>
			<g>
				<path d="M130.2,35l2.9-1.4c0.3-0.1,0.5-0.2,0.8-0.3l0-0.1c-0.3,0.1-0.6,0.1-0.9,0.1l-3.7-0.1l-0.7-1.4l5.5-2.8l0.7,1.4l-2.8,1.4
					c-0.3,0.1-0.6,0.2-0.9,0.3l0,0.1c0.3,0,0.7-0.1,1-0.1l3.6,0.1l0.7,1.4l-5.5,2.8L130.2,35z M137.6,31.9c-0.6,0.4-1.5,0.2-2-0.7
					c-0.5-0.9-0.1-1.8,0.6-2l0.5,0.9c-0.5,0.2-0.6,0.4-0.4,0.8c0.2,0.3,0.4,0.4,0.9,0.1L137.6,31.9z"/>
			</g>
		</g>
		<g>
			<path class="st4" d="M87.5,51.8c0-1.4,0-2.9,0-4.3c0-2.4-2.8,1.2-3.2,1.6c-0.4,0.5-0.7,1-1.1,1.5c-1.2,1.9,0.4,3.7,1.9,4.9
				c0.3,0.3,1.8,1.4,2.2,1.1C87.6,56.4,87.5,52.5,87.5,51.8L87.5,51.8z M78.4,62c0.5-0.6,1.5-0.6,2.1,0.1c1.8,2,3,2.7,5.3,3.2
				c0.7,0.1,0.8,0.3,1.2-0.4c0.9-1.9,1.2-4.5-0.8-5.6c-2.2-1.3-3.3-2-4.9-4.1c-2.2-2.7-0.6-5.6,1.3-7.9c0.7-0.8,1.5-1.5,2.3-2.2
				c1-0.9,2.6-1.6,3.9-1.2c0.6,0.2,1,0.8,1,1.5c-0.1,4.6,1.5,18.7-1.1,22c-0.6,0.8-1.2,0.7-2.1,0.6c-3.1-0.3-7.2-2.1-8.2-4.9
				C78.2,62.6,78.1,62.4,78.4,62z"/>
			<path class="st4" d="M100.5,27.2c2,0.1,3.3,1.9,3.7,3.7c0.2,1.1,0.2,2.5,1.7,2.7c3.8,0.3,5.9,5.1,2,8.3c-1.1,0.9-5.4,1.2-5.9-0.4
				c-0.2-0.4,0-1,0.3-1.3c0.6-0.6,2.6-0.4,3.4-0.4c2.3-0.1,2.3-3.8-1.1-3.9c-1.4-0.1-2.1-0.6-2.3-2.1c-0.2-1.2-0.4-3.1-1.6-3.6
				c-1.1-0.6-2.2-0.3-3.1,0.3c-1.3,1-0.8,2.4-1.3,3.4c-1.8,3.6-3.3,0.9-5,3.3c-0.2,1.3,0.3,2.5,1.5,2.6c1,0.1,3.3-0.2,3.4,1.3
				c0,0.5-0.2,0.9-0.6,1.1c-1.8,0.9-5.1,0-6.2-1.7c-2.1-3.2-0.1-7.2,3.5-7.1c1.3,0,1.4-1.6,1.5-2.6C95.1,27.7,98.1,26.8,100.5,27.2z
				"/>
			<path class="st4" d="M102.7,56.7c-0.9,0.7-1.6,1.7-2.2,2.5c-0.6,0.7-1.9,0.8-2.5,0c-0.4-0.5-0.7-1.1-1.1-1.5
				c-0.4-0.5-0.9-0.9-1.3-1.4c-0.6-0.7-0.5-1.6,0.3-2.1c0.3-0.2,0.6-0.2,0.9,0c0.7,0.6,1.4,1.3,2.1,1.9c0.2,0.2,0.4,0.3,0.5,0.3
				c0.1,0,0.2-0.1,0.4-0.2c0.8-0.5,1.6-1.5,2.4-2C103.4,53.4,104.4,55.6,102.7,56.7z"/>
			<path class="st4" d="M102.7,48.1c-0.9,0.7-1.6,1.7-2.2,2.5c-0.6,0.7-1.9,0.8-2.5,0c-0.4-0.5-0.7-1.1-1.1-1.5
				c-0.4-0.5-0.9-0.9-1.3-1.4c-0.6-0.7-0.5-1.6,0.3-2.1c0.3-0.2,0.6-0.2,0.9,0c0.7,0.6,1.4,1.3,2.1,1.9c0.2,0.2,0.4,0.3,0.5,0.3
				c0.1,0,0.2-0.1,0.4-0.2c0.8-0.5,1.6-1.5,2.4-2C103.4,44.8,104.4,47,102.7,48.1z"/>
			<path class="st4" d="M102.7,64.8c-0.9,0.7-1.6,1.7-2.2,2.5c-0.6,0.7-1.9,0.8-2.5,0c-0.4-0.5-0.7-1.1-1.1-1.5
				c-0.4-0.5-0.9-0.9-1.3-1.4c-0.6-0.7-0.5-1.6,0.3-2.1c0.3-0.2,0.6-0.2,0.9,0c0.7,0.6,1.4,1.3,2.1,1.9c0.2,0.2,0.4,0.3,0.5,0.3
				c0.1,0,0.2-0.1,0.4-0.2c0.8-0.5,1.6-1.5,2.4-2C103.4,61.5,104.4,63.7,102.7,64.8z"/>
			<path class="st4" d="M111.1,51.8c0-1.4,0-2.9,0-4.3c0-2.4,2.8,1.2,3.2,1.6c0.4,0.5,0.7,1,1.1,1.5c1.2,1.9-0.4,3.7-1.9,4.9
				c-0.3,0.3-1.8,1.4-2.2,1.1C110.9,56.4,111.1,52.5,111.1,51.8L111.1,51.8z M120.1,62c-0.5-0.6-1.5-0.6-2.1,0.1
				c-1.8,2-3,2.7-5.3,3.2c-0.7,0.1-0.8,0.3-1.2-0.4c-0.9-1.9-1.2-4.5,0.8-5.6c2.2-1.3,3.3-2,4.9-4.1c2.2-2.7,0.6-5.6-1.3-7.9
				c-0.7-0.8-1.5-1.5-2.3-2.2c-1-0.9-2.6-1.6-3.9-1.2c-0.6,0.2-1,0.8-1,1.5c0.1,4.6-1.5,18.7,1.1,22c0.6,0.8,1.2,0.7,2.1,0.6
				c3.1-0.3,7.2-2.1,8.2-4.9C120.4,62.6,120.5,62.4,120.1,62z"/>
		</g>
	</g>
</g>
</svg>
